<svg width="4228" height="2091" viewBox="0 0 4228 2091" fill="none" xmlns="http://www.w3.org/2000/svg">
<rect width="4228" height="2091" fill="white"/>
<g clip-path="url(#clip0_312_2726)">
<rect x="1358" y="555" width="1512" height="982" fill="white"/>
<rect x="2667" y="579" width="89" height="52" fill="#5F5F5F"/>
<rect x="1397" y="579" width="154" height="52" fill="#5F5F5F"/>
<rect x="2778" y="579" width="52" height="52" fill="#5F5F5F"/>
<rect x="2034" y="753" width="52" height="52" fill="#5F5F5F"/>
<rect x="1634" y="937" width="226" height="167" fill="#A4A4A4"/>
<rect x="1634" y="1266" width="222" height="226" fill="#A4A4A4"/>
<rect x="1634" y="1519" width="222" height="67" fill="#A4A4A4"/>
<rect x="1880" y="1519" width="222" height="67" fill="#A4A4A4"/>
<rect x="2126" y="1519" width="222" height="67" fill="#A4A4A4"/>
<rect x="2372" y="1519" width="222" height="67" fill="#A4A4A4"/>
<rect x="1880" y="1266" width="222" height="226" fill="#A4A4A4"/>
<rect x="2126" y="1266" width="222" height="226" fill="#A4A4A4"/>
<rect x="2372" y="1266" width="222" height="226" fill="#A4A4A4"/>
<rect x="1895" y="937" width="226" height="167" fill="#A4A4A4"/>
<rect x="2156" y="937" width="226" height="167" fill="#A4A4A4"/>
<line x1="1358" y1="645.5" x2="2870" y2="645.5" stroke="#B2B2B2"/>
<rect x="1634" y="723" width="381" height="82" fill="#D9D9D9"/>
<rect x="1634" y="840" width="325" height="52" fill="#D9D9D9"/>
<rect x="1634" y="1180" width="325" height="52" fill="#D9D9D9"/>
<rect x="1982" y="1180" width="52" height="52" fill="#D9D9D9"/>
<rect x="2427" y="937" width="167" height="167" fill="#5F5F5F"/>
<path d="M2507.81 1001.61V1034.22" stroke="#B2B2B2" stroke-width="3" stroke-linecap="round"/>
<path d="M2494.53 1020.93C2502.43 1020.93 2514.18 1019.89 2521.1 1023.35" stroke="#B2B2B2" stroke-width="3" stroke-linecap="round"/>
<g filter="url(#filter0_d_312_2726)">
<rect x="1595" y="782" width="1038" height="710" fill="white"/>
<rect x="1595.5" y="782.5" width="1037" height="709" stroke="black"/>
</g>
<rect x="1634" y="814" width="487" height="46" fill="#D9D9D9"/>
<rect x="1782" y="893" width="320" height="46" fill="#D9D9D9"/>
<rect x="1782" y="1083" width="320" height="46" fill="#D9D9D9"/>
<rect x="1782" y="1273" width="320" height="46" fill="#D9D9D9"/>
<rect x="2531" y="935" width="46" height="46" fill="#D9D9D9"/>
<rect x="2531" y="1125" width="46" height="46" fill="#D9D9D9"/>
<rect x="2531" y="1315" width="46" height="46" fill="#D9D9D9"/>
<rect x="2282" y="1408" width="302" height="55" fill="#D9D9D9"/>
<rect x="2531" y="812" width="46" height="46" fill="#D9D9D9"/>
<rect x="1634" y="893" width="124" height="124" fill="#D9D9D9"/>
<rect x="1634" y="1083" width="124" height="124" fill="#D9D9D9"/>
<rect x="1634" y="1273" width="124" height="124" fill="#D9D9D9"/>
<line x1="1634" y1="1049.5" x2="2577" y2="1050.5" stroke="black"/>
<line x1="1634" y1="1239.5" x2="2577" y2="1240.5" stroke="black"/>
<line x1="1634" y1="1429.5" x2="2282" y2="1429.5" stroke="black"/>
<line x1="2622" y1="800" x2="2622" y2="1065" stroke="#393939" stroke-width="14"/>
<circle cx="2584" cy="958" r="7" fill="white"/>
<rect x="2584" y="1428" width="15" height="15" fill="white"/>
</g>
<rect x="1358.5" y="555.5" width="1511" height="981" stroke="black"/>
<path d="M3021.57 959.453H3023.57V955.453H3021.57V959.453ZM2582.09 956.039C2581.3 956.82 2581.3 958.086 2582.09 958.867L2594.81 971.595C2595.59 972.376 2596.86 972.376 2597.64 971.595C2598.42 970.814 2598.42 969.548 2597.64 968.767L2586.33 957.453L2597.64 946.139C2598.42 945.358 2598.42 944.092 2597.64 943.311C2596.86 942.53 2595.59 942.53 2594.81 943.311L2582.09 956.039ZM3021.57 955.453H2583.5V959.453H3021.57V955.453Z" fill="black"/>
<path d="M3022.01 1438.33H3024.01V1434.33H3022.01V1438.33ZM2589.09 1434.92C2588.3 1435.7 2588.3 1436.97 2589.09 1437.75L2601.81 1450.48C2602.59 1451.26 2603.86 1451.26 2604.64 1450.48C2605.42 1449.7 2605.42 1448.43 2604.64 1447.65L2593.33 1436.33L2604.64 1425.02C2605.42 1424.24 2605.42 1422.97 2604.64 1422.19C2603.86 1421.41 2602.59 1421.41 2601.81 1422.19L2589.09 1434.92ZM3022.01 1434.33H2590.5V1438.33H3022.01V1434.33Z" fill="black"/>
<path d="M1972.05 454.785H1979.8C1981.33 454.785 1982.56 455.219 1983.5 456.086C1984.44 456.945 1984.91 458.156 1984.91 459.719C1984.91 461.062 1984.49 462.234 1983.65 463.234C1982.82 464.227 1981.53 464.723 1979.8 464.723H1974.38V472H1972.05V454.785ZM1982.55 459.73C1982.55 458.465 1982.08 457.605 1981.14 457.152C1980.63 456.91 1979.92 456.789 1979.02 456.789H1974.38V462.754H1979.02C1980.07 462.754 1980.92 462.531 1981.57 462.086C1982.22 461.641 1982.55 460.855 1982.55 459.73ZM1995.27 454.316C1998.3 454.316 2000.55 455.293 2002.02 457.246C2003.16 458.77 2003.73 460.719 2003.73 463.094C2003.73 465.664 2003.07 467.801 2001.77 469.504C2000.24 471.504 1998.05 472.504 1995.22 472.504C1992.57 472.504 1990.49 471.629 1988.97 469.879C1987.62 468.191 1986.95 466.059 1986.95 463.48C1986.95 461.152 1987.52 459.16 1988.68 457.504C1990.16 455.379 1992.36 454.316 1995.27 454.316ZM1995.5 470.418C1997.55 470.418 1999.04 469.684 1999.95 468.215C2000.88 466.738 2001.34 465.043 2001.34 463.129C2001.34 461.105 2000.8 459.477 1999.74 458.242C1998.69 457.008 1997.24 456.391 1995.41 456.391C1993.62 456.391 1992.17 457.004 1991.05 458.23C1989.92 459.449 1989.36 461.25 1989.36 463.633C1989.36 465.539 1989.84 467.148 1990.8 468.461C1991.77 469.766 1993.34 470.418 1995.5 470.418ZM2008.04 466.445C2008.09 467.422 2008.32 468.215 2008.73 468.824C2009.5 469.965 2010.87 470.535 2012.82 470.535C2013.7 470.535 2014.49 470.41 2015.21 470.16C2016.6 469.676 2017.3 468.809 2017.3 467.559C2017.3 466.621 2017 465.953 2016.42 465.555C2015.82 465.164 2014.89 464.824 2013.63 464.535L2011.3 464.008C2009.77 463.664 2008.7 463.285 2008.06 462.871C2006.97 462.152 2006.42 461.078 2006.42 459.648C2006.42 458.102 2006.96 456.832 2008.03 455.84C2009.1 454.848 2010.61 454.352 2012.57 454.352C2014.38 454.352 2015.91 454.789 2017.17 455.664C2018.43 456.531 2019.07 457.922 2019.07 459.836H2016.88C2016.76 458.914 2016.51 458.207 2016.12 457.715C2015.41 456.816 2014.21 456.367 2012.5 456.367C2011.13 456.367 2010.14 456.656 2009.54 457.234C2008.94 457.812 2008.64 458.484 2008.64 459.25C2008.64 460.094 2008.99 460.711 2009.69 461.102C2010.15 461.352 2011.2 461.664 2012.82 462.039L2015.23 462.59C2016.4 462.855 2017.3 463.219 2017.93 463.68C2019.02 464.484 2019.57 465.652 2019.57 467.184C2019.57 469.09 2018.88 470.453 2017.48 471.273C2016.1 472.094 2014.49 472.504 2012.66 472.504C2010.52 472.504 2008.84 471.957 2007.63 470.863C2006.42 469.777 2005.82 468.305 2005.85 466.445H2008.04ZM2022.75 454.785H2035.3V456.895H2025.02V462.121H2034.52V464.113H2025.02V469.949H2035.47V472H2022.75V454.785ZM2045.15 454.785H2048.49L2053.44 469.34L2058.35 454.785H2061.65V472H2059.44V461.84C2059.44 461.488 2059.45 460.906 2059.46 460.094C2059.48 459.281 2059.48 458.41 2059.48 457.48L2054.57 472H2052.27L2047.32 457.48V458.008C2047.32 458.43 2047.33 459.074 2047.34 459.941C2047.37 460.801 2047.38 461.434 2047.38 461.84V472H2045.15V454.785ZM2074.04 464.945L2071.43 457.34L2068.65 464.945H2074.04ZM2070.21 454.785H2072.84L2079.09 472H2076.54L2074.79 466.844H2067.98L2066.12 472H2063.73L2070.21 454.785ZM2081.21 454.785H2083.96L2092.66 468.73V454.785H2094.88V472H2092.26L2083.44 458.066V472H2081.21V454.785ZM2107.39 464.945L2104.78 457.34L2102 464.945H2107.39ZM2103.56 454.785H2106.2L2112.44 472H2109.89L2108.14 466.844H2101.33L2099.47 472H2097.08L2103.56 454.785ZM2122 454.34C2123.62 454.34 2125.02 454.652 2126.2 455.277C2127.91 456.176 2128.96 457.75 2129.34 460H2127.03C2126.75 458.742 2126.17 457.828 2125.29 457.258C2124.4 456.68 2123.29 456.391 2121.95 456.391C2120.35 456.391 2119.01 456.988 2117.91 458.184C2116.83 459.379 2116.29 461.16 2116.29 463.527C2116.29 465.574 2116.73 467.242 2117.63 468.531C2118.53 469.812 2120 470.453 2122.03 470.453C2123.58 470.453 2124.87 470.004 2125.88 469.105C2126.91 468.199 2127.43 466.738 2127.45 464.723H2122.06V462.789H2129.62V472H2128.12L2127.56 469.785C2126.77 470.652 2126.07 471.254 2125.46 471.59C2124.44 472.168 2123.14 472.457 2121.56 472.457C2119.52 472.457 2117.77 471.797 2116.3 470.477C2114.7 468.82 2113.89 466.547 2113.89 463.656C2113.89 460.773 2114.68 458.48 2116.24 456.777C2117.72 455.152 2119.64 454.34 2122 454.34ZM2133.46 454.785H2146.02V456.895H2135.74V462.121H2145.24V464.113H2135.74V469.949H2146.19V472H2133.46V454.785ZM2157.25 462.672C2158.35 462.672 2159.21 462.453 2159.84 462.016C2160.48 461.578 2160.8 460.789 2160.8 459.648C2160.8 458.422 2160.36 457.586 2159.47 457.141C2158.99 456.906 2158.36 456.789 2157.56 456.789H2151.86V462.672H2157.25ZM2149.53 454.785H2157.5C2158.81 454.785 2159.89 454.977 2160.75 455.359C2162.36 456.094 2163.17 457.449 2163.17 459.426C2163.17 460.457 2162.96 461.301 2162.53 461.957C2162.11 462.613 2161.51 463.141 2160.75 463.539C2161.42 463.812 2161.92 464.172 2162.26 464.617C2162.6 465.062 2162.79 465.785 2162.83 466.785L2162.91 469.094C2162.94 469.75 2162.99 470.238 2163.08 470.559C2163.22 471.105 2163.47 471.457 2163.83 471.613V472H2160.97C2160.89 471.852 2160.83 471.66 2160.78 471.426C2160.73 471.191 2160.7 470.738 2160.66 470.066L2160.52 467.195C2160.47 466.07 2160.05 465.316 2159.27 464.934C2158.82 464.723 2158.12 464.617 2157.17 464.617H2151.86V472H2149.53V454.785ZM2173.21 454.785H2176.55L2181.5 469.34L2186.41 454.785H2189.71V472H2187.5V461.84C2187.5 461.488 2187.51 460.906 2187.52 460.094C2187.54 459.281 2187.55 458.41 2187.55 457.48L2182.64 472H2180.33L2175.38 457.48V458.008C2175.38 458.43 2175.39 459.074 2175.41 459.941C2175.43 460.801 2175.44 461.434 2175.44 461.84V472H2173.21V454.785ZM2200.7 454.316C2203.73 454.316 2205.98 455.293 2207.45 457.246C2208.59 458.77 2209.16 460.719 2209.16 463.094C2209.16 465.664 2208.5 467.801 2207.2 469.504C2205.67 471.504 2203.48 472.504 2200.65 472.504C2198 472.504 2195.92 471.629 2194.4 469.879C2193.05 468.191 2192.38 466.059 2192.38 463.48C2192.38 461.152 2192.95 459.16 2194.11 457.504C2195.59 455.379 2197.79 454.316 2200.7 454.316ZM2200.93 470.418C2202.98 470.418 2204.47 469.684 2205.38 468.215C2206.3 466.738 2206.77 465.043 2206.77 463.129C2206.77 461.105 2206.23 459.477 2205.17 458.242C2204.12 457.008 2202.67 456.391 2200.84 456.391C2199.05 456.391 2197.6 457.004 2196.48 458.23C2195.35 459.449 2194.79 461.25 2194.79 463.633C2194.79 465.539 2195.27 467.148 2196.23 468.461C2197.2 469.766 2198.77 470.418 2200.93 470.418ZM2218.55 470.008C2219.34 470.008 2219.99 469.926 2220.5 469.762C2221.41 469.457 2222.15 468.871 2222.73 468.004C2223.19 467.309 2223.52 466.418 2223.72 465.332C2223.84 464.684 2223.9 464.082 2223.9 463.527C2223.9 461.395 2223.47 459.738 2222.62 458.559C2221.78 457.379 2220.41 456.789 2218.53 456.789H2214.39V470.008H2218.55ZM2212.05 454.785H2219.02C2221.39 454.785 2223.23 455.625 2224.53 457.305C2225.7 458.82 2226.28 460.762 2226.28 463.129C2226.28 464.957 2225.93 466.609 2225.25 468.086C2224.04 470.695 2221.95 472 2219 472H2212.05V454.785ZM2238.12 464.945L2235.51 457.34L2232.73 464.945H2238.12ZM2234.29 454.785H2236.93L2243.18 472H2240.62L2238.88 466.844H2232.07L2230.2 472H2227.81L2234.29 454.785ZM2245.3 454.785H2247.63V469.949H2256.35V472H2245.3V454.785Z" fill="black"/>
<path d="M1035.05 825.785H1042.8C1044.33 825.785 1045.56 826.219 1046.5 827.086C1047.44 827.945 1047.91 829.156 1047.91 830.719C1047.91 832.062 1047.49 833.234 1046.65 834.234C1045.82 835.227 1044.53 835.723 1042.8 835.723H1037.38V843H1035.05V825.785ZM1045.55 830.73C1045.55 829.465 1045.08 828.605 1044.14 828.152C1043.63 827.91 1042.92 827.789 1042.02 827.789H1037.38V833.754H1042.02C1043.07 833.754 1043.92 833.531 1044.57 833.086C1045.22 832.641 1045.55 831.855 1045.55 830.73ZM1058.27 825.316C1061.3 825.316 1063.55 826.293 1065.02 828.246C1066.16 829.77 1066.73 831.719 1066.73 834.094C1066.73 836.664 1066.07 838.801 1064.77 840.504C1063.24 842.504 1061.05 843.504 1058.22 843.504C1055.57 843.504 1053.49 842.629 1051.97 840.879C1050.62 839.191 1049.95 837.059 1049.95 834.48C1049.95 832.152 1050.52 830.16 1051.68 828.504C1053.16 826.379 1055.36 825.316 1058.27 825.316ZM1058.5 841.418C1060.55 841.418 1062.04 840.684 1062.95 839.215C1063.88 837.738 1064.34 836.043 1064.34 834.129C1064.34 832.105 1063.8 830.477 1062.74 829.242C1061.69 828.008 1060.24 827.391 1058.41 827.391C1056.62 827.391 1055.17 828.004 1054.05 829.23C1052.92 830.449 1052.36 832.25 1052.36 834.633C1052.36 836.539 1052.84 838.148 1053.8 839.461C1054.77 840.766 1056.34 841.418 1058.5 841.418ZM1071.04 837.445C1071.09 838.422 1071.32 839.215 1071.73 839.824C1072.5 840.965 1073.87 841.535 1075.82 841.535C1076.7 841.535 1077.49 841.41 1078.21 841.16C1079.6 840.676 1080.3 839.809 1080.3 838.559C1080.3 837.621 1080 836.953 1079.42 836.555C1078.82 836.164 1077.89 835.824 1076.63 835.535L1074.3 835.008C1072.77 834.664 1071.7 834.285 1071.06 833.871C1069.97 833.152 1069.42 832.078 1069.42 830.648C1069.42 829.102 1069.96 827.832 1071.03 826.84C1072.1 825.848 1073.61 825.352 1075.57 825.352C1077.38 825.352 1078.91 825.789 1080.17 826.664C1081.43 827.531 1082.07 828.922 1082.07 830.836H1079.88C1079.76 829.914 1079.51 829.207 1079.12 828.715C1078.41 827.816 1077.21 827.367 1075.5 827.367C1074.13 827.367 1073.14 827.656 1072.54 828.234C1071.94 828.812 1071.64 829.484 1071.64 830.25C1071.64 831.094 1071.99 831.711 1072.69 832.102C1073.15 832.352 1074.2 832.664 1075.82 833.039L1078.23 833.59C1079.4 833.855 1080.3 834.219 1080.93 834.68C1082.02 835.484 1082.57 836.652 1082.57 838.184C1082.57 840.09 1081.88 841.453 1080.48 842.273C1079.1 843.094 1077.49 843.504 1075.66 843.504C1073.52 843.504 1071.84 842.957 1070.63 841.863C1069.42 840.777 1068.82 839.305 1068.85 837.445H1071.04ZM1085.75 825.785H1098.3V827.895H1088.02V833.121H1097.52V835.113H1088.02V840.949H1098.47V843H1085.75V825.785ZM1108.21 825.785H1110.54V840.949H1119.26V843H1108.21V825.785ZM1122.1 825.785H1124.45V843H1122.1V825.785ZM1129.77 837.445C1129.83 838.422 1130.06 839.215 1130.46 839.824C1131.24 840.965 1132.6 841.535 1134.55 841.535C1135.43 841.535 1136.23 841.41 1136.95 841.16C1138.34 840.676 1139.03 839.809 1139.03 838.559C1139.03 837.621 1138.74 836.953 1138.15 836.555C1137.56 836.164 1136.63 835.824 1135.36 835.535L1133.03 835.008C1131.51 834.664 1130.43 834.285 1129.8 833.871C1128.7 833.152 1128.16 832.078 1128.16 830.648C1128.16 829.102 1128.69 827.832 1129.76 826.84C1130.83 825.848 1132.35 825.352 1134.31 825.352C1136.11 825.352 1137.64 825.789 1138.9 826.664C1140.17 827.531 1140.8 828.922 1140.8 830.836H1138.61C1138.49 829.914 1138.24 829.207 1137.86 828.715C1137.15 827.816 1135.94 827.367 1134.24 827.367C1132.86 827.367 1131.88 827.656 1131.27 828.234C1130.67 828.812 1130.37 829.484 1130.37 830.25C1130.37 831.094 1130.72 831.711 1131.43 832.102C1131.89 832.352 1132.93 832.664 1134.55 833.039L1136.97 833.59C1138.13 833.855 1139.03 834.219 1139.66 834.68C1140.76 835.484 1141.3 836.652 1141.3 838.184C1141.3 840.09 1140.61 841.453 1139.22 842.273C1137.84 843.094 1136.23 843.504 1134.39 843.504C1132.25 843.504 1130.57 842.957 1129.36 841.863C1128.15 840.777 1127.56 839.305 1127.58 837.445H1129.77ZM1156.79 825.785V827.836H1150.98V843H1148.62V827.836H1142.82V825.785H1156.79Z" fill="black"/>
<path d="M1217.21 835.127H1215.21V839.127H1217.21V835.127ZM1628.91 838.541C1629.69 837.76 1629.69 836.494 1628.91 835.713L1616.18 822.985C1615.4 822.204 1614.14 822.204 1613.36 822.985C1612.57 823.766 1612.57 825.032 1613.36 825.813L1624.67 837.127L1613.36 848.441C1612.57 849.222 1612.57 850.488 1613.36 851.269C1614.14 852.05 1615.4 852.05 1616.18 851.269L1628.91 838.541ZM1217.21 839.127H1627.5V835.127H1217.21V839.127Z" fill="black"/>
<path d="M3079.08 948.316C3081.26 948.316 3082.95 948.891 3084.16 950.039C3085.36 951.188 3086.03 952.492 3086.16 953.953H3083.89C3083.63 952.844 3083.11 951.965 3082.34 951.316C3081.57 950.668 3080.5 950.344 3079.11 950.344C3077.41 950.344 3076.04 950.941 3074.99 952.137C3073.95 953.324 3073.43 955.148 3073.43 957.609C3073.43 959.625 3073.9 961.262 3074.84 962.52C3075.79 963.77 3077.19 964.395 3079.06 964.395C3080.78 964.395 3082.09 963.734 3082.98 962.414C3083.46 961.719 3083.82 960.805 3084.05 959.672H3086.32C3086.12 961.484 3085.45 963.004 3084.31 964.23C3082.94 965.707 3081.1 966.445 3078.78 966.445C3076.78 966.445 3075.1 965.84 3073.74 964.629C3071.95 963.027 3071.05 960.555 3071.05 957.211C3071.05 954.672 3071.73 952.59 3073.07 950.965C3074.52 949.199 3076.53 948.316 3079.08 948.316ZM3089.23 948.785H3091.59V955.898H3100.54V948.785H3102.89V966H3100.54V957.949H3091.59V966H3089.23V948.785ZM3106.74 948.785H3119.29V950.895H3109.01V956.121H3118.52V958.113H3109.01V963.949H3119.46V966H3106.74V948.785ZM3129.78 948.316C3131.96 948.316 3133.65 948.891 3134.85 950.039C3136.05 951.188 3136.72 952.492 3136.86 953.953H3134.58C3134.32 952.844 3133.81 951.965 3133.04 951.316C3132.27 950.668 3131.19 950.344 3129.8 950.344C3128.11 950.344 3126.73 950.941 3125.69 952.137C3124.65 953.324 3124.13 955.148 3124.13 957.609C3124.13 959.625 3124.6 961.262 3125.54 962.52C3126.48 963.77 3127.89 964.395 3129.75 964.395C3131.47 964.395 3132.78 963.734 3133.68 962.414C3134.16 961.719 3134.51 960.805 3134.75 959.672H3137.02C3136.82 961.484 3136.14 963.004 3135 964.23C3133.64 965.707 3131.79 966.445 3129.47 966.445C3127.47 966.445 3125.79 965.84 3124.43 964.629C3122.64 963.027 3121.75 960.555 3121.75 957.211C3121.75 954.672 3122.42 952.59 3123.77 950.965C3125.22 949.199 3127.22 948.316 3129.78 948.316ZM3139.87 948.785H3142.14V957.176L3150.53 948.785H3153.75L3146.59 955.723L3153.95 966H3150.92L3144.89 957.363L3142.14 960V966H3139.87V948.785ZM3174.66 948.785V950.836H3168.86V966H3166.49V950.836H3160.69V948.785H3174.66ZM3183.81 948.316C3186.85 948.316 3189.1 949.293 3190.56 951.246C3191.7 952.77 3192.27 954.719 3192.27 957.094C3192.27 959.664 3191.62 961.801 3190.32 963.504C3188.79 965.504 3186.6 966.504 3183.77 966.504C3181.12 966.504 3179.04 965.629 3177.52 963.879C3176.17 962.191 3175.49 960.059 3175.49 957.48C3175.49 955.152 3176.07 953.16 3177.23 951.504C3178.71 949.379 3180.91 948.316 3183.81 948.316ZM3184.05 964.418C3186.1 964.418 3187.59 963.684 3188.5 962.215C3189.42 960.738 3189.88 959.043 3189.88 957.129C3189.88 955.105 3189.35 953.477 3188.29 952.242C3187.23 951.008 3185.79 950.391 3183.95 950.391C3182.17 950.391 3180.72 951.004 3179.59 952.23C3178.47 953.449 3177.91 955.25 3177.91 957.633C3177.91 959.539 3178.39 961.148 3179.35 962.461C3180.32 963.766 3181.88 964.418 3184.05 964.418ZM3203.27 960.445C3203.32 961.422 3203.55 962.215 3203.96 962.824C3204.73 963.965 3206.09 964.535 3208.05 964.535C3208.92 964.535 3209.72 964.41 3210.44 964.16C3211.83 963.676 3212.52 962.809 3212.52 961.559C3212.52 960.621 3212.23 959.953 3211.64 959.555C3211.05 959.164 3210.12 958.824 3208.86 958.535L3206.52 958.008C3205 957.664 3203.92 957.285 3203.29 956.871C3202.2 956.152 3201.65 955.078 3201.65 953.648C3201.65 952.102 3202.18 950.832 3203.25 949.84C3204.32 948.848 3205.84 948.352 3207.8 948.352C3209.61 948.352 3211.14 948.789 3212.39 949.664C3213.66 950.531 3214.29 951.922 3214.29 953.836H3212.1C3211.98 952.914 3211.73 952.207 3211.35 951.715C3210.64 950.816 3209.43 950.367 3207.73 950.367C3206.36 950.367 3205.37 950.656 3204.77 951.234C3204.16 951.812 3203.86 952.484 3203.86 953.25C3203.86 954.094 3204.21 954.711 3204.92 955.102C3205.38 955.352 3206.42 955.664 3208.05 956.039L3210.46 956.59C3211.62 956.855 3212.52 957.219 3213.16 957.68C3214.25 958.484 3214.8 959.652 3214.8 961.184C3214.8 963.09 3214.1 964.453 3212.71 965.273C3211.33 966.094 3209.72 966.504 3207.88 966.504C3205.74 966.504 3204.07 965.957 3202.86 964.863C3201.64 963.777 3201.05 962.305 3201.07 960.445H3203.27ZM3217.97 948.785H3230.52V950.895H3220.25V956.121H3229.75V958.113H3220.25V963.949H3230.7V966H3217.97V948.785ZM3233.76 948.785H3236.09V963.949H3244.81V966H3233.76V948.785ZM3247.34 948.785H3259.89V950.895H3249.61V956.121H3259.12V958.113H3249.61V963.949H3260.07V966H3247.34V948.785ZM3270.38 948.316C3272.56 948.316 3274.25 948.891 3275.45 950.039C3276.66 951.188 3277.32 952.492 3277.46 953.953H3275.18C3274.93 952.844 3274.41 951.965 3273.64 951.316C3272.87 950.668 3271.79 950.344 3270.4 950.344C3268.71 950.344 3267.34 950.941 3266.29 952.137C3265.25 953.324 3264.73 955.148 3264.73 957.609C3264.73 959.625 3265.2 961.262 3266.14 962.52C3267.08 963.77 3268.49 964.395 3270.36 964.395C3272.07 964.395 3273.38 963.734 3274.28 962.414C3274.76 961.719 3275.11 960.805 3275.35 959.672H3277.62C3277.42 961.484 3276.75 963.004 3275.61 964.23C3274.24 965.707 3272.39 966.445 3270.07 966.445C3268.07 966.445 3266.39 965.84 3265.04 964.629C3263.25 963.027 3262.35 960.555 3262.35 957.211C3262.35 954.672 3263.02 952.59 3264.37 950.965C3265.82 949.199 3267.82 948.316 3270.38 948.316ZM3293 948.785V950.836H3287.2V966H3284.83V950.836H3279.03V948.785H3293Z" fill="black"/>
<path d="M3071.35 1438.45C3071.41 1439.42 3071.64 1440.21 3072.04 1440.82C3072.82 1441.96 3074.18 1442.54 3076.13 1442.54C3077.01 1442.54 3077.8 1442.41 3078.52 1442.16C3079.91 1441.68 3080.61 1440.81 3080.61 1439.56C3080.61 1438.62 3080.32 1437.95 3079.73 1437.55C3079.14 1437.16 3078.21 1436.82 3076.94 1436.54L3074.61 1436.01C3073.09 1435.66 3072.01 1435.29 3071.38 1434.87C3070.28 1434.15 3069.73 1433.08 3069.73 1431.65C3069.73 1430.1 3070.27 1428.83 3071.34 1427.84C3072.41 1426.85 3073.93 1426.35 3075.89 1426.35C3077.69 1426.35 3079.22 1426.79 3080.48 1427.66C3081.75 1428.53 3082.38 1429.92 3082.38 1431.84H3080.19C3080.07 1430.91 3079.82 1430.21 3079.44 1429.71C3078.73 1428.82 3077.52 1428.37 3075.82 1428.37C3074.44 1428.37 3073.45 1428.66 3072.85 1429.23C3072.25 1429.81 3071.95 1430.48 3071.95 1431.25C3071.95 1432.09 3072.3 1432.71 3073 1433.1C3073.46 1433.35 3074.51 1433.66 3076.13 1434.04L3078.55 1434.59C3079.71 1434.86 3080.61 1435.22 3081.24 1435.68C3082.34 1436.48 3082.88 1437.65 3082.88 1439.18C3082.88 1441.09 3082.19 1442.45 3080.8 1443.27C3079.41 1444.09 3077.8 1444.5 3075.97 1444.5C3073.83 1444.5 3072.15 1443.96 3070.94 1442.86C3069.73 1441.78 3069.14 1440.3 3069.16 1438.45H3071.35ZM3086.06 1426.79H3098.61V1428.89H3088.33V1434.12H3097.84V1436.11H3088.33V1441.95H3098.79V1444H3086.06V1426.79ZM3101.84 1426.79H3104.18V1441.95H3112.89V1444H3101.84V1426.79ZM3115.43 1426.79H3127.98V1428.89H3117.7V1434.12H3127.2V1436.11H3117.7V1441.95H3128.15V1444H3115.43V1426.79ZM3138.46 1426.32C3140.64 1426.32 3142.34 1426.89 3143.54 1428.04C3144.74 1429.19 3145.41 1430.49 3145.54 1431.95H3143.27C3143.01 1430.84 3142.5 1429.96 3141.72 1429.32C3140.96 1428.67 3139.88 1428.34 3138.49 1428.34C3136.79 1428.34 3135.42 1428.94 3134.38 1430.14C3133.34 1431.32 3132.82 1433.15 3132.82 1435.61C3132.82 1437.62 3133.29 1439.26 3134.22 1440.52C3135.17 1441.77 3136.57 1442.39 3138.44 1442.39C3140.16 1442.39 3141.47 1441.73 3142.37 1440.41C3142.84 1439.72 3143.2 1438.8 3143.43 1437.67H3145.71C3145.5 1439.48 3144.83 1441 3143.69 1442.23C3142.32 1443.71 3140.48 1444.45 3138.16 1444.45C3136.16 1444.45 3134.48 1443.84 3133.12 1442.63C3131.33 1441.03 3130.44 1438.55 3130.44 1435.21C3130.44 1432.67 3131.11 1430.59 3132.45 1428.96C3133.91 1427.2 3135.91 1426.32 3138.46 1426.32ZM3161.08 1426.79V1428.84H3155.28V1444H3152.91V1428.84H3147.11V1426.79H3161.08ZM3177.01 1436.95L3174.39 1429.34L3171.62 1436.95H3177.01ZM3173.18 1426.79H3175.81L3182.06 1444H3179.5L3177.76 1438.84H3170.95L3169.09 1444H3166.7L3173.18 1426.79ZM3184.18 1426.79H3186.51V1441.95H3195.23V1444H3184.18V1426.79ZM3197.54 1426.79H3199.87V1441.95H3208.59V1444H3197.54V1426.79ZM3220.32 1426.79H3222.1L3216.64 1444H3214.86L3220.32 1426.79ZM3231.41 1426.79L3236.35 1441.45L3241.24 1426.79H3243.85L3237.57 1444H3235.1L3228.83 1426.79H3231.41ZM3253.11 1436.95L3250.5 1429.34L3247.72 1436.95H3253.11ZM3249.28 1426.79H3251.91L3258.16 1444H3255.61L3253.86 1438.84H3247.05L3245.19 1444H3242.8L3249.28 1426.79ZM3260.28 1426.79H3262.61V1441.95H3271.33V1444H3260.28V1426.79ZM3274.17 1426.79H3276.52V1444H3274.17V1426.79ZM3286.93 1442.01C3287.72 1442.01 3288.37 1441.93 3288.88 1441.76C3289.78 1441.46 3290.52 1440.87 3291.1 1440C3291.56 1439.31 3291.89 1438.42 3292.1 1437.33C3292.21 1436.68 3292.27 1436.08 3292.27 1435.53C3292.27 1433.39 3291.85 1431.74 3291 1430.56C3290.15 1429.38 3288.79 1428.79 3286.91 1428.79H3282.77V1442.01H3286.93ZM3280.43 1426.79H3287.4C3289.77 1426.79 3291.6 1427.62 3292.91 1429.3C3294.07 1430.82 3294.65 1432.76 3294.65 1435.13C3294.65 1436.96 3294.31 1438.61 3293.62 1440.09C3292.41 1442.7 3290.33 1444 3287.38 1444H3280.43V1426.79ZM3306.5 1436.95L3303.89 1429.34L3301.11 1436.95H3306.5ZM3302.67 1426.79H3305.3L3311.55 1444H3309L3307.25 1438.84H3300.44L3298.58 1444H3296.19L3302.67 1426.79ZM3324.42 1426.79V1428.84H3318.62V1444H3316.25V1428.84H3310.45V1426.79H3324.42ZM3326.79 1426.79H3339.34V1428.89H3329.06V1434.12H3338.56V1436.11H3329.06V1441.95H3339.51V1444H3326.79V1426.79Z" fill="black"/>
<path d="M1359.83 1621.79H1362.16V1636.95H1370.88V1639H1359.83V1621.79ZM1373.41 1621.79H1385.96V1623.89H1375.68V1629.12H1385.19V1631.11H1375.68V1636.95H1386.14V1639H1373.41V1621.79ZM1401.72 1621.79V1623.84H1395.92V1639H1393.55V1623.84H1387.75V1621.79H1401.72ZM1412.66 1621.79V1632.43C1412.66 1633.68 1412.89 1634.71 1413.36 1635.54C1414.05 1636.79 1415.23 1637.42 1416.88 1637.42C1418.85 1637.42 1420.2 1636.74 1420.91 1635.39C1421.29 1634.66 1421.48 1633.67 1421.48 1632.43V1621.79H1423.85V1631.45C1423.85 1633.57 1423.56 1635.2 1422.99 1636.34C1421.95 1638.42 1419.97 1639.46 1417.06 1639.46C1414.16 1639.46 1412.18 1638.42 1411.14 1636.34C1410.57 1635.2 1410.29 1633.57 1410.29 1631.45V1621.79H1412.66ZM1428.99 1633.45C1429.05 1634.42 1429.28 1635.21 1429.68 1635.82C1430.46 1636.96 1431.82 1637.54 1433.77 1637.54C1434.65 1637.54 1435.45 1637.41 1436.16 1637.16C1437.55 1636.68 1438.25 1635.81 1438.25 1634.56C1438.25 1633.62 1437.96 1632.95 1437.37 1632.55C1436.78 1632.16 1435.85 1631.82 1434.58 1631.54L1432.25 1631.01C1430.73 1630.66 1429.65 1630.29 1429.02 1629.87C1427.92 1629.15 1427.38 1628.08 1427.38 1626.65C1427.38 1625.1 1427.91 1623.83 1428.98 1622.84C1430.05 1621.85 1431.57 1621.35 1433.53 1621.35C1435.33 1621.35 1436.86 1621.79 1438.12 1622.66C1439.39 1623.53 1440.02 1624.92 1440.02 1626.84H1437.83C1437.71 1625.91 1437.46 1625.21 1437.08 1624.71C1436.37 1623.82 1435.16 1623.37 1433.46 1623.37C1432.08 1623.37 1431.09 1623.66 1430.49 1624.23C1429.89 1624.81 1429.59 1625.48 1429.59 1626.25C1429.59 1627.09 1429.94 1627.71 1430.64 1628.1C1431.11 1628.35 1432.15 1628.66 1433.77 1629.04L1436.19 1629.59C1437.35 1629.86 1438.25 1630.22 1438.88 1630.68C1439.98 1631.48 1440.52 1632.65 1440.52 1634.18C1440.52 1636.09 1439.83 1637.45 1438.44 1638.27C1437.05 1639.09 1435.45 1639.5 1433.61 1639.5C1431.47 1639.5 1429.79 1638.96 1428.58 1637.86C1427.37 1636.78 1426.78 1635.3 1426.8 1633.45H1428.99ZM1443.7 1621.79H1456.25V1623.89H1445.97V1629.12H1455.48V1631.11H1445.97V1636.95H1456.43V1639H1443.7V1621.79ZM1467.49 1629.67C1468.58 1629.67 1469.45 1629.45 1470.08 1629.02C1470.72 1628.58 1471.04 1627.79 1471.04 1626.65C1471.04 1625.42 1470.59 1624.59 1469.7 1624.14C1469.23 1623.91 1468.59 1623.79 1467.79 1623.79H1462.1V1629.67H1467.49ZM1459.77 1621.79H1467.73C1469.05 1621.79 1470.13 1621.98 1470.98 1622.36C1472.6 1623.09 1473.41 1624.45 1473.41 1626.43C1473.41 1627.46 1473.19 1628.3 1472.76 1628.96C1472.34 1629.61 1471.75 1630.14 1470.98 1630.54C1471.65 1630.81 1472.16 1631.17 1472.49 1631.62C1472.84 1632.06 1473.03 1632.79 1473.07 1633.79L1473.15 1636.09C1473.17 1636.75 1473.23 1637.24 1473.31 1637.56C1473.45 1638.11 1473.7 1638.46 1474.06 1638.61V1639H1471.2C1471.12 1638.85 1471.06 1638.66 1471.02 1638.43C1470.97 1638.19 1470.93 1637.74 1470.9 1637.07L1470.76 1634.2C1470.7 1633.07 1470.29 1632.32 1469.5 1631.93C1469.06 1631.72 1468.36 1631.62 1467.41 1631.62H1462.1V1639H1459.77V1621.79ZM1483.45 1621.79H1486.79L1491.73 1636.34L1496.64 1621.79H1499.95V1639H1497.73V1628.84C1497.73 1628.49 1497.74 1627.91 1497.76 1627.09C1497.77 1626.28 1497.78 1625.41 1497.78 1624.48L1492.87 1639H1490.56L1485.62 1624.48V1625.01C1485.62 1625.43 1485.62 1626.07 1485.64 1626.94C1485.66 1627.8 1485.68 1628.43 1485.68 1628.84V1639H1483.45V1621.79ZM1512.34 1631.95L1509.72 1624.34L1506.95 1631.95H1512.34ZM1508.5 1621.79H1511.14L1517.39 1639H1514.83L1513.09 1633.84H1506.28L1504.41 1639H1502.02L1508.5 1621.79ZM1519.51 1621.79H1522.26L1530.96 1635.73V1621.79H1533.17V1639H1530.56L1521.73 1625.07V1639H1519.51V1621.79ZM1545.69 1631.95L1543.07 1624.34L1540.3 1631.95H1545.69ZM1541.86 1621.79H1544.49L1550.74 1639H1548.18L1546.44 1633.84H1539.63L1537.77 1639H1535.38L1541.86 1621.79ZM1560.3 1621.34C1561.92 1621.34 1563.32 1621.65 1564.5 1622.28C1566.21 1623.18 1567.25 1624.75 1567.64 1627H1565.33C1565.05 1625.74 1564.46 1624.83 1563.58 1624.26C1562.7 1623.68 1561.59 1623.39 1560.24 1623.39C1558.65 1623.39 1557.3 1623.99 1556.21 1625.18C1555.12 1626.38 1554.58 1628.16 1554.58 1630.53C1554.58 1632.57 1555.03 1634.24 1555.93 1635.53C1556.83 1636.81 1558.29 1637.45 1560.32 1637.45C1561.88 1637.45 1563.16 1637 1564.18 1636.11C1565.2 1635.2 1565.73 1633.74 1565.75 1631.72H1560.36V1629.79H1567.92V1639H1566.42L1565.86 1636.79C1565.07 1637.65 1564.37 1638.25 1563.76 1638.59C1562.73 1639.17 1561.43 1639.46 1559.86 1639.46C1557.82 1639.46 1556.06 1638.8 1554.59 1637.48C1552.99 1635.82 1552.19 1633.55 1552.19 1630.66C1552.19 1627.77 1552.97 1625.48 1554.54 1623.78C1556.02 1622.15 1557.94 1621.34 1560.3 1621.34ZM1571.76 1621.79H1584.31V1623.89H1574.04V1629.12H1583.54V1631.11H1574.04V1636.95H1584.49V1639H1571.76V1621.79ZM1594.45 1621.79H1602.2C1603.73 1621.79 1604.96 1622.22 1605.9 1623.09C1606.84 1623.95 1607.3 1625.16 1607.3 1626.72C1607.3 1628.06 1606.89 1629.23 1606.05 1630.23C1605.21 1631.23 1603.93 1631.72 1602.2 1631.72H1596.78V1639H1594.45V1621.79ZM1604.95 1626.73C1604.95 1625.46 1604.48 1624.61 1603.54 1624.15C1603.03 1623.91 1602.32 1623.79 1601.42 1623.79H1596.78V1629.75H1601.42C1602.47 1629.75 1603.32 1629.53 1603.96 1629.09C1604.62 1628.64 1604.95 1627.86 1604.95 1626.73ZM1617.66 1621.32C1620.7 1621.32 1622.95 1622.29 1624.41 1624.25C1625.55 1625.77 1626.12 1627.72 1626.12 1630.09C1626.12 1632.66 1625.47 1634.8 1624.17 1636.5C1622.64 1638.5 1620.45 1639.5 1617.62 1639.5C1614.97 1639.5 1612.89 1638.63 1611.37 1636.88C1610.02 1635.19 1609.34 1633.06 1609.34 1630.48C1609.34 1628.15 1609.92 1626.16 1611.08 1624.5C1612.56 1622.38 1614.76 1621.32 1617.66 1621.32ZM1617.9 1637.42C1619.95 1637.42 1621.44 1636.68 1622.35 1635.21C1623.27 1633.74 1623.73 1632.04 1623.73 1630.13C1623.73 1628.11 1623.2 1626.48 1622.14 1625.24C1621.09 1624.01 1619.64 1623.39 1617.8 1623.39C1616.02 1623.39 1614.57 1624 1613.45 1625.23C1612.32 1626.45 1611.76 1628.25 1611.76 1630.63C1611.76 1632.54 1612.24 1634.15 1613.2 1635.46C1614.17 1636.77 1615.73 1637.42 1617.9 1637.42ZM1630.44 1633.45C1630.49 1634.42 1630.72 1635.21 1631.13 1635.82C1631.9 1636.96 1633.27 1637.54 1635.22 1637.54C1636.09 1637.54 1636.89 1637.41 1637.61 1637.16C1639 1636.68 1639.7 1635.81 1639.7 1634.56C1639.7 1633.62 1639.4 1632.95 1638.82 1632.55C1638.22 1632.16 1637.29 1631.82 1636.03 1631.54L1633.7 1631.01C1632.17 1630.66 1631.09 1630.29 1630.46 1629.87C1629.37 1629.15 1628.82 1628.08 1628.82 1626.65C1628.82 1625.1 1629.36 1623.83 1630.43 1622.84C1631.5 1621.85 1633.01 1621.35 1634.97 1621.35C1636.78 1621.35 1638.31 1621.79 1639.57 1622.66C1640.83 1623.53 1641.46 1624.92 1641.46 1626.84H1639.27C1639.16 1625.91 1638.91 1625.21 1638.52 1624.71C1637.81 1623.82 1636.61 1623.37 1634.9 1623.37C1633.53 1623.37 1632.54 1623.66 1631.94 1624.23C1631.34 1624.81 1631.04 1625.48 1631.04 1626.25C1631.04 1627.09 1631.39 1627.71 1632.09 1628.1C1632.55 1628.35 1633.59 1628.66 1635.22 1629.04L1637.63 1629.59C1638.8 1629.86 1639.7 1630.22 1640.33 1630.68C1641.42 1631.48 1641.97 1632.65 1641.97 1634.18C1641.97 1636.09 1641.27 1637.45 1639.88 1638.27C1638.5 1639.09 1636.89 1639.5 1635.05 1639.5C1632.91 1639.5 1631.24 1638.96 1630.03 1637.86C1628.82 1636.78 1628.22 1635.3 1628.25 1633.45H1630.44ZM1645.14 1621.79H1657.7V1623.89H1647.42V1629.12H1656.92V1631.11H1647.42V1636.95H1657.87V1639H1645.14V1621.79ZM1662.45 1633.45C1662.51 1634.42 1662.74 1635.21 1663.14 1635.82C1663.92 1636.96 1665.28 1637.54 1667.23 1637.54C1668.11 1637.54 1668.91 1637.41 1669.62 1637.16C1671.02 1636.68 1671.71 1635.81 1671.71 1634.56C1671.71 1633.62 1671.42 1632.95 1670.83 1632.55C1670.24 1632.16 1669.31 1631.82 1668.04 1631.54L1665.71 1631.01C1664.19 1630.66 1663.11 1630.29 1662.48 1629.87C1661.38 1629.15 1660.84 1628.08 1660.84 1626.65C1660.84 1625.1 1661.37 1623.83 1662.44 1622.84C1663.51 1621.85 1665.03 1621.35 1666.99 1621.35C1668.79 1621.35 1670.32 1621.79 1671.58 1622.66C1672.85 1623.53 1673.48 1624.92 1673.48 1626.84H1671.29C1671.17 1625.91 1670.92 1625.21 1670.54 1624.71C1669.83 1623.82 1668.62 1623.37 1666.92 1623.37C1665.54 1623.37 1664.55 1623.66 1663.95 1624.23C1663.35 1624.81 1663.05 1625.48 1663.05 1626.25C1663.05 1627.09 1663.4 1627.71 1664.11 1628.1C1664.57 1628.35 1665.61 1628.66 1667.23 1629.04L1669.65 1629.59C1670.81 1629.86 1671.71 1630.22 1672.34 1630.68C1673.44 1631.48 1673.98 1632.65 1673.98 1634.18C1673.98 1636.09 1673.29 1637.45 1671.9 1638.27C1670.52 1639.09 1668.91 1639.5 1667.07 1639.5C1664.93 1639.5 1663.25 1638.96 1662.04 1637.86C1660.83 1636.78 1660.24 1635.3 1660.26 1633.45H1662.45ZM1695.72 1621.79V1623.84H1689.92V1639H1687.55V1623.84H1681.75V1621.79H1695.72ZM1697.93 1621.79H1700.28V1628.9H1709.23V1621.79H1711.59V1639H1709.23V1630.95H1700.28V1639H1697.93V1621.79ZM1724.05 1631.95L1721.43 1624.34L1718.66 1631.95H1724.05ZM1720.21 1621.79H1722.85L1729.1 1639H1726.54L1724.8 1633.84H1717.99L1716.12 1639H1713.73L1720.21 1621.79ZM1741.96 1621.79V1623.84H1736.16V1639H1733.8V1623.84H1728V1621.79H1741.96ZM1757.89 1631.95L1755.28 1624.34L1752.5 1631.95H1757.89ZM1754.06 1621.79H1756.7L1762.94 1639H1760.39L1758.64 1633.84H1751.83L1749.97 1639H1747.58L1754.06 1621.79ZM1773.07 1629.67C1774.16 1629.67 1775.02 1629.45 1775.66 1629.02C1776.3 1628.58 1776.62 1627.79 1776.62 1626.65C1776.62 1625.42 1776.17 1624.59 1775.28 1624.14C1774.8 1623.91 1774.17 1623.79 1773.37 1623.79H1767.68V1629.67H1773.07ZM1765.34 1621.79H1773.31C1774.62 1621.79 1775.71 1621.98 1776.56 1622.36C1778.18 1623.09 1778.98 1624.45 1778.98 1626.43C1778.98 1627.46 1778.77 1628.3 1778.34 1628.96C1777.92 1629.61 1777.32 1630.14 1776.56 1630.54C1777.23 1630.81 1777.73 1631.17 1778.07 1631.62C1778.41 1632.06 1778.61 1632.79 1778.64 1633.79L1778.73 1636.09C1778.75 1636.75 1778.8 1637.24 1778.89 1637.56C1779.03 1638.11 1779.28 1638.46 1779.64 1638.61V1639H1776.78C1776.7 1638.85 1776.64 1638.66 1776.59 1638.43C1776.55 1638.19 1776.51 1637.74 1776.48 1637.07L1776.34 1634.2C1776.28 1633.07 1775.86 1632.32 1775.08 1631.93C1774.64 1631.72 1773.94 1631.62 1772.98 1631.62H1767.68V1639H1765.34V1621.79ZM1782.63 1621.79H1795.18V1623.89H1784.9V1629.12H1794.41V1631.11H1784.9V1636.95H1795.36V1639H1782.63V1621.79ZM1805.32 1621.79H1817.87V1623.89H1807.59V1629.12H1817.09V1631.11H1807.59V1636.95H1818.04V1639H1805.32V1621.79ZM1821.1 1621.79H1823.86L1832.55 1635.73V1621.79H1834.77V1639H1832.15L1823.33 1625.07V1639H1821.1V1621.79ZM1847.28 1631.95L1844.67 1624.34L1841.89 1631.95H1847.28ZM1843.45 1621.79H1846.09L1852.33 1639H1849.78L1848.03 1633.84H1841.22L1839.36 1639H1836.97L1843.45 1621.79ZM1860.92 1629.06C1861.91 1629.06 1862.67 1628.93 1863.22 1628.65C1864.08 1628.22 1864.51 1627.45 1864.51 1626.33C1864.51 1625.21 1864.05 1624.45 1863.14 1624.06C1862.62 1623.84 1861.86 1623.73 1860.84 1623.73H1856.68V1629.06H1860.92ZM1861.71 1637.01C1863.14 1637.01 1864.16 1636.59 1864.77 1635.77C1865.15 1635.24 1865.34 1634.61 1865.34 1633.87C1865.34 1632.62 1864.78 1631.77 1863.66 1631.31C1863.07 1631.07 1862.29 1630.95 1861.31 1630.95H1856.68V1637.01H1861.71ZM1854.39 1621.79H1861.79C1863.8 1621.79 1865.24 1622.39 1866.09 1623.59C1866.59 1624.3 1866.84 1625.12 1866.84 1626.05C1866.84 1627.14 1866.53 1628.03 1865.91 1628.72C1865.59 1629.09 1865.13 1629.43 1864.53 1629.73C1865.41 1630.07 1866.07 1630.45 1866.51 1630.87C1867.29 1631.62 1867.67 1632.65 1867.67 1633.97C1867.67 1635.08 1867.32 1636.09 1866.63 1636.98C1865.59 1638.33 1863.94 1639 1861.67 1639H1854.39V1621.79ZM1870.46 1621.79H1872.79V1636.95H1881.51V1639H1870.46V1621.79ZM1884.04 1621.79H1896.59V1623.89H1886.32V1629.12H1895.82V1631.11H1886.32V1636.95H1896.77V1639H1884.04V1621.79ZM1907.04 1621.79H1909.39V1639H1907.04V1621.79ZM1913.19 1621.79H1915.94L1924.64 1635.73V1621.79H1926.85V1639H1924.24L1915.41 1625.07V1639H1913.19V1621.79ZM1932.05 1633.45C1932.11 1634.42 1932.34 1635.21 1932.75 1635.82C1933.52 1636.96 1934.88 1637.54 1936.84 1637.54C1937.71 1637.54 1938.51 1637.41 1939.23 1637.16C1940.62 1636.68 1941.31 1635.81 1941.31 1634.56C1941.31 1633.62 1941.02 1632.95 1940.43 1632.55C1939.84 1632.16 1938.91 1631.82 1937.64 1631.54L1935.31 1631.01C1933.79 1630.66 1932.71 1630.29 1932.08 1629.87C1930.98 1629.15 1930.44 1628.08 1930.44 1626.65C1930.44 1625.1 1930.97 1623.83 1932.04 1622.84C1933.11 1621.85 1934.63 1621.35 1936.59 1621.35C1938.39 1621.35 1939.93 1621.79 1941.18 1622.66C1942.45 1623.53 1943.08 1624.92 1943.08 1626.84H1940.89C1940.77 1625.91 1940.52 1625.21 1940.14 1624.71C1939.43 1623.82 1938.22 1623.37 1936.52 1623.37C1935.14 1623.37 1934.16 1623.66 1933.55 1624.23C1932.95 1624.81 1932.65 1625.48 1932.65 1626.25C1932.65 1627.09 1933 1627.71 1933.71 1628.1C1934.17 1628.35 1935.21 1628.66 1936.84 1629.04L1939.25 1629.59C1940.41 1629.86 1941.31 1630.22 1941.95 1630.68C1943.04 1631.48 1943.59 1632.65 1943.59 1634.18C1943.59 1636.09 1942.89 1637.45 1941.5 1638.27C1940.12 1639.09 1938.51 1639.5 1936.67 1639.5C1934.53 1639.5 1932.86 1638.96 1931.64 1637.86C1930.43 1636.78 1929.84 1635.3 1929.86 1633.45H1932.05ZM1947.07 1621.79H1949.42V1639H1947.07V1621.79ZM1959.83 1637.01C1960.62 1637.01 1961.27 1636.93 1961.77 1636.76C1962.68 1636.46 1963.42 1635.87 1964 1635C1964.46 1634.31 1964.79 1633.42 1965 1632.33C1965.11 1631.68 1965.17 1631.08 1965.17 1630.53C1965.17 1628.39 1964.75 1626.74 1963.89 1625.56C1963.05 1624.38 1961.69 1623.79 1959.8 1623.79H1955.67V1637.01H1959.83ZM1953.32 1621.79H1960.3C1962.66 1621.79 1964.5 1622.62 1965.8 1624.3C1966.97 1625.82 1967.55 1627.76 1967.55 1630.13C1967.55 1631.96 1967.21 1633.61 1966.52 1635.09C1965.31 1637.7 1963.23 1639 1960.27 1639H1953.32V1621.79ZM1970.79 1621.79H1983.34V1623.89H1973.06V1629.12H1982.56V1631.11H1973.06V1636.95H1983.51V1639H1970.79V1621.79ZM2005.36 1621.79V1623.84H1999.55V1639H1997.19V1623.84H1991.39V1621.79H2005.36ZM2007.56 1621.79H2009.91V1628.9H2018.87V1621.79H2021.22V1639H2018.87V1630.95H2009.91V1639H2007.56V1621.79ZM2025.37 1621.79H2027.73V1639H2025.37V1621.79ZM2033.05 1633.45C2033.1 1634.42 2033.33 1635.21 2033.74 1635.82C2034.51 1636.96 2035.88 1637.54 2037.83 1637.54C2038.7 1637.54 2039.5 1637.41 2040.22 1637.16C2041.61 1636.68 2042.3 1635.81 2042.3 1634.56C2042.3 1633.62 2042.01 1632.95 2041.43 1632.55C2040.83 1632.16 2039.9 1631.82 2038.64 1631.54L2036.3 1631.01C2034.78 1630.66 2033.7 1630.29 2033.07 1629.87C2031.98 1629.15 2031.43 1628.08 2031.43 1626.65C2031.43 1625.1 2031.96 1623.83 2033.04 1622.84C2034.11 1621.85 2035.62 1621.35 2037.58 1621.35C2039.39 1621.35 2040.92 1621.79 2042.18 1622.66C2043.44 1623.53 2044.07 1624.92 2044.07 1626.84H2041.88C2041.77 1625.91 2041.52 1625.21 2041.13 1624.71C2040.42 1623.82 2039.21 1623.37 2037.51 1623.37C2036.14 1623.37 2035.15 1623.66 2034.55 1624.23C2033.95 1624.81 2033.64 1625.48 2033.64 1626.25C2033.64 1627.09 2034 1627.71 2034.7 1628.1C2035.16 1628.35 2036.2 1628.66 2037.83 1629.04L2040.24 1629.59C2041.41 1629.86 2042.3 1630.22 2042.94 1630.68C2044.03 1631.48 2044.58 1632.65 2044.58 1634.18C2044.58 1636.09 2043.88 1637.45 2042.49 1638.27C2041.11 1639.09 2039.5 1639.5 2037.66 1639.5C2035.52 1639.5 2033.85 1638.96 2032.64 1637.86C2031.43 1636.78 2030.83 1635.3 2030.86 1633.45H2033.05ZM2054.43 1621.79H2062.18C2063.71 1621.79 2064.95 1622.22 2065.88 1623.09C2066.82 1623.95 2067.29 1625.16 2067.29 1626.72C2067.29 1628.06 2066.87 1629.23 2066.04 1630.23C2065.2 1631.23 2063.91 1631.72 2062.18 1631.72H2056.77V1639H2054.43V1621.79ZM2064.93 1626.73C2064.93 1625.46 2064.46 1624.61 2063.53 1624.15C2063.01 1623.91 2062.3 1623.79 2061.41 1623.79H2056.77V1629.75H2061.41C2062.45 1629.75 2063.3 1629.53 2063.95 1629.09C2064.61 1628.64 2064.93 1627.86 2064.93 1626.73ZM2078.22 1629.67C2079.32 1629.67 2080.18 1629.45 2080.81 1629.02C2081.45 1628.58 2081.77 1627.79 2081.77 1626.65C2081.77 1625.42 2081.33 1624.59 2080.44 1624.14C2079.96 1623.91 2079.32 1623.79 2078.53 1623.79H2072.83V1629.67H2078.22ZM2070.5 1621.79H2078.47C2079.78 1621.79 2080.86 1621.98 2081.71 1622.36C2083.33 1623.09 2084.14 1624.45 2084.14 1626.43C2084.14 1627.46 2083.93 1628.3 2083.5 1628.96C2083.07 1629.61 2082.48 1630.14 2081.71 1630.54C2082.39 1630.81 2082.89 1631.17 2083.23 1631.62C2083.57 1632.06 2083.76 1632.79 2083.8 1633.79L2083.88 1636.09C2083.91 1636.75 2083.96 1637.24 2084.05 1637.56C2084.19 1638.11 2084.44 1638.46 2084.8 1638.61V1639H2081.94C2081.86 1638.85 2081.8 1638.66 2081.75 1638.43C2081.7 1638.19 2081.66 1637.74 2081.63 1637.07L2081.49 1634.2C2081.44 1633.07 2081.02 1632.32 2080.24 1631.93C2079.79 1631.72 2079.09 1631.62 2078.14 1631.62H2072.83V1639H2070.5V1621.79ZM2094.99 1621.32C2098.03 1621.32 2100.28 1622.29 2101.74 1624.25C2102.88 1625.77 2103.45 1627.72 2103.45 1630.09C2103.45 1632.66 2102.8 1634.8 2101.5 1636.5C2099.96 1638.5 2097.78 1639.5 2094.95 1639.5C2092.3 1639.5 2090.21 1638.63 2088.7 1636.88C2087.35 1635.19 2086.67 1633.06 2086.67 1630.48C2086.67 1628.15 2087.25 1626.16 2088.41 1624.5C2089.89 1622.38 2092.09 1621.32 2094.99 1621.32ZM2095.23 1637.42C2097.28 1637.42 2098.77 1636.68 2099.68 1635.21C2100.6 1633.74 2101.06 1632.04 2101.06 1630.13C2101.06 1628.11 2100.53 1626.48 2099.47 1625.24C2098.41 1624.01 2096.97 1623.39 2095.13 1623.39C2093.35 1623.39 2091.9 1624 2090.77 1625.23C2089.65 1626.45 2089.09 1628.25 2089.09 1630.63C2089.09 1632.54 2089.57 1634.15 2090.53 1635.46C2091.5 1636.77 2093.06 1637.42 2095.23 1637.42ZM2114.69 1633.87C2114.69 1635.32 2114.48 1636.45 2114.05 1637.25C2113.25 1638.72 2111.73 1639.46 2109.5 1639.46C2108.21 1639.46 2107.11 1639.11 2106.2 1638.41C2105.28 1637.71 2104.82 1636.46 2104.82 1634.68V1633.45H2107.02V1634.68C2107.02 1635.61 2107.22 1636.32 2107.64 1636.8C2108.06 1637.27 2108.71 1637.5 2109.59 1637.5C2110.84 1637.5 2111.65 1637.07 2112.03 1636.22C2112.27 1635.7 2112.38 1634.71 2112.38 1633.26V1621.79H2114.69V1633.87ZM2118.46 1621.79H2131.02V1623.89H2120.74V1629.12H2130.24V1631.11H2120.74V1636.95H2131.19V1639H2118.46V1621.79ZM2141.5 1621.32C2143.68 1621.32 2145.38 1621.89 2146.58 1623.04C2147.78 1624.19 2148.45 1625.49 2148.58 1626.95H2146.31C2146.05 1625.84 2145.54 1624.96 2144.76 1624.32C2144 1623.67 2142.92 1623.34 2141.53 1623.34C2139.83 1623.34 2138.46 1623.94 2137.41 1625.14C2136.38 1626.32 2135.86 1628.15 2135.86 1630.61C2135.86 1632.62 2136.32 1634.26 2137.26 1635.52C2138.21 1636.77 2139.61 1637.39 2141.48 1637.39C2143.2 1637.39 2144.51 1636.73 2145.41 1635.41C2145.88 1634.72 2146.24 1633.8 2146.47 1632.67H2148.75C2148.54 1634.48 2147.87 1636 2146.73 1637.23C2145.36 1638.71 2143.52 1639.45 2141.2 1639.45C2139.2 1639.45 2137.52 1638.84 2136.16 1637.63C2134.37 1636.03 2133.48 1633.55 2133.48 1630.21C2133.48 1627.67 2134.15 1625.59 2135.49 1623.96C2136.95 1622.2 2138.95 1621.32 2141.5 1621.32ZM2164.12 1621.79V1623.84H2158.32V1639H2155.95V1623.84H2150.15V1621.79H2164.12Z" fill="black"/>
<defs>
<filter id="filter0_d_312_2726" x="1591" y="782" width="1046" height="718" filterUnits="userSpaceOnUse" color-interpolation-filters="sRGB">
<feFlood flood-opacity="0" result="BackgroundImageFix"/>
<feColorMatrix in="SourceAlpha" type="matrix" values="0 0 0 0 0 0 0 0 0 0 0 0 0 0 0 0 0 0 127 0" result="hardAlpha"/>
<feOffset dy="4"/>
<feGaussianBlur stdDeviation="2"/>
<feComposite in2="hardAlpha" operator="out"/>
<feColorMatrix type="matrix" values="0 0 0 0 0 0 0 0 0 0 0 0 0 0 0 0 0 0 0.25 0"/>
<feBlend mode="normal" in2="BackgroundImageFix" result="effect1_dropShadow_312_2726"/>
<feBlend mode="normal" in="SourceGraphic" in2="effect1_dropShadow_312_2726" result="shape"/>
</filter>
<clipPath id="clip0_312_2726">
<rect x="1358" y="555" width="1512" height="982" fill="white"/>
</clipPath>
</defs>
</svg>
