<svg width="3696" height="2136" viewBox="0 0 3696 2136" fill="none" xmlns="http://www.w3.org/2000/svg">
<rect width="3696" height="2136" fill="white"/>
<rect x="1092.5" y="577.5" width="1511" height="981" fill="white"/>
<rect x="1092.5" y="577.5" width="1511" height="981" stroke="black"/>
<rect x="1092" y="577" width="756" height="982" fill="#D9D9D9"/>
<rect x="1234" y="819" width="414" height="76" fill="#5F5F5F"/>
<rect x="1234" y="1303" width="504" height="76" rx="16" fill="#5F5F5F"/>
<rect x="1234" y="722" width="319" height="76" fill="#5F5F5F"/>
<rect x="1234" y="947" width="504" height="76" rx="16" fill="#929292"/>
<rect x="1234" y="1411" width="270" height="25" rx="12.5" fill="#929292"/>
<rect x="1234" y="1457" width="504" height="25" rx="12.5" fill="#929292"/>
<rect x="1533" y="1411" width="205" height="25" rx="12.5" fill="#929292"/>
<rect x="1234.5" y="1087.5" width="503" height="75" rx="15.5" stroke="#929292"/>
<rect x="1234.5" y="1195.5" width="503" height="75" rx="15.5" stroke="#929292"/>
<line x1="1234" y1="1054.5" x2="1738" y2="1054.5" stroke="black"/>
<path d="M1704.11 466.422C1707.02 466.422 1709.27 467.188 1710.88 468.719C1712.48 470.25 1713.37 471.99 1713.55 473.938H1710.52C1710.17 472.458 1709.48 471.286 1708.45 470.422C1707.43 469.557 1705.99 469.125 1704.14 469.125C1701.88 469.125 1700.05 469.922 1698.66 471.516C1697.27 473.099 1696.58 475.531 1696.58 478.812C1696.58 481.5 1697.2 483.682 1698.45 485.359C1699.71 487.026 1701.59 487.859 1704.08 487.859C1706.37 487.859 1708.11 486.979 1709.31 485.219C1709.95 484.292 1710.42 483.073 1710.73 481.562H1713.77C1713.49 483.979 1712.6 486.005 1711.08 487.641C1709.26 489.609 1706.8 490.594 1703.7 490.594C1701.04 490.594 1698.8 489.786 1696.98 488.172C1694.6 486.036 1693.41 482.74 1693.41 478.281C1693.41 474.896 1694.3 472.12 1696.09 469.953C1698.03 467.599 1700.7 466.422 1704.11 466.422ZM1727.47 466.422C1731.52 466.422 1734.52 467.724 1736.47 470.328C1737.99 472.359 1738.75 474.958 1738.75 478.125C1738.75 481.552 1737.88 484.401 1736.14 486.672C1734.1 489.339 1731.19 490.672 1727.41 490.672C1723.88 490.672 1721.1 489.505 1719.08 487.172C1717.28 484.922 1716.38 482.078 1716.38 478.641C1716.38 475.536 1717.15 472.88 1718.69 470.672C1720.67 467.839 1723.59 466.422 1727.47 466.422ZM1727.78 487.891C1730.52 487.891 1732.5 486.911 1733.72 484.953C1734.95 482.984 1735.56 480.724 1735.56 478.172C1735.56 475.474 1734.85 473.302 1733.44 471.656C1732.03 470.01 1730.1 469.188 1727.66 469.188C1725.28 469.188 1723.34 470.005 1721.84 471.641C1720.34 473.266 1719.59 475.667 1719.59 478.844C1719.59 481.385 1720.23 483.531 1721.52 485.281C1722.81 487.021 1724.9 487.891 1727.78 487.891ZM1742.47 467.047H1746.14L1757.73 485.641V467.047H1760.69V490H1757.2L1745.44 471.422V490H1742.47V467.047ZM1765.59 467.047H1769.27L1780.86 485.641V467.047H1783.81V490H1780.33L1768.56 471.422V490H1765.59V467.047ZM1789.02 467.047H1805.75V469.859H1792.05V476.828H1804.72V479.484H1792.05V487.266H1805.98V490H1789.02V467.047ZM1819.73 466.422C1822.64 466.422 1824.9 467.188 1826.5 468.719C1828.1 470.25 1828.99 471.99 1829.17 473.938H1826.14C1825.8 472.458 1825.11 471.286 1824.08 470.422C1823.06 469.557 1821.62 469.125 1819.77 469.125C1817.51 469.125 1815.68 469.922 1814.28 471.516C1812.9 473.099 1812.2 475.531 1812.2 478.812C1812.2 481.5 1812.83 483.682 1814.08 485.359C1815.34 487.026 1817.21 487.859 1819.7 487.859C1821.99 487.859 1823.74 486.979 1824.94 485.219C1825.57 484.292 1826.05 483.073 1826.36 481.562H1829.39C1829.12 483.979 1828.22 486.005 1826.7 487.641C1824.88 489.609 1822.42 490.594 1819.33 490.594C1816.66 490.594 1814.42 489.786 1812.61 488.172C1810.22 486.036 1809.03 482.74 1809.03 478.281C1809.03 474.896 1809.93 472.12 1811.72 469.953C1813.66 467.599 1816.33 466.422 1819.73 466.422ZM1849.89 467.047V469.781H1842.16V490H1839V469.781H1831.27V467.047H1849.89ZM1853.45 467.047H1856.59V490H1853.45V467.047ZM1871.56 466.422C1875.61 466.422 1878.61 467.724 1880.56 470.328C1882.08 472.359 1882.84 474.958 1882.84 478.125C1882.84 481.552 1881.97 484.401 1880.23 486.672C1878.19 489.339 1875.28 490.672 1871.5 490.672C1867.97 490.672 1865.19 489.505 1863.17 487.172C1861.37 484.922 1860.47 482.078 1860.47 478.641C1860.47 475.536 1861.24 472.88 1862.78 470.672C1864.76 467.839 1867.69 466.422 1871.56 466.422ZM1871.88 487.891C1874.61 487.891 1876.59 486.911 1877.81 484.953C1879.04 482.984 1879.66 480.724 1879.66 478.172C1879.66 475.474 1878.95 473.302 1877.53 471.656C1876.12 470.01 1874.2 469.188 1871.75 469.188C1869.38 469.188 1867.44 470.005 1865.94 471.641C1864.44 473.266 1863.69 475.667 1863.69 478.844C1863.69 481.385 1864.33 483.531 1865.61 485.281C1866.9 487.021 1868.99 487.891 1871.88 487.891ZM1886.56 467.047H1890.23L1901.83 485.641V467.047H1904.78V490H1901.3L1889.53 471.422V490H1886.56V467.047ZM1918.89 467.047H1929.22C1931.26 467.047 1932.91 467.625 1934.16 468.781C1935.41 469.927 1936.03 471.542 1936.03 473.625C1936.03 475.417 1935.47 476.979 1934.36 478.312C1933.24 479.635 1931.53 480.297 1929.22 480.297H1922V490H1918.89V467.047ZM1932.89 473.641C1932.89 471.953 1932.27 470.807 1931.02 470.203C1930.33 469.88 1929.39 469.719 1928.19 469.719H1922V477.672H1928.19C1929.58 477.672 1930.71 477.375 1931.58 476.781C1932.45 476.188 1932.89 475.141 1932.89 473.641ZM1949.34 480.594L1945.86 470.453L1942.16 480.594H1949.34ZM1944.23 467.047H1947.75L1956.08 490H1952.67L1950.34 483.125H1941.27L1938.78 490H1935.59L1944.23 467.047ZM1968.83 466.453C1970.98 466.453 1972.85 466.87 1974.42 467.703C1976.7 468.901 1978.1 471 1978.61 474H1975.53C1975.16 472.323 1974.38 471.104 1973.2 470.344C1972.03 469.573 1970.54 469.188 1968.75 469.188C1966.62 469.188 1964.83 469.984 1963.38 471.578C1961.93 473.172 1961.2 475.547 1961.2 478.703C1961.2 481.432 1961.8 483.656 1963 485.375C1964.2 487.083 1966.15 487.938 1968.86 487.938C1970.93 487.938 1972.65 487.339 1974 486.141C1975.36 484.932 1976.06 482.984 1976.09 480.297H1968.91V477.719H1978.98V490H1976.98L1976.23 487.047C1975.18 488.203 1974.25 489.005 1973.44 489.453C1972.07 490.224 1970.34 490.609 1968.23 490.609C1965.52 490.609 1963.18 489.729 1961.22 487.969C1959.08 485.76 1958.02 482.729 1958.02 478.875C1958.02 475.031 1959.06 471.974 1961.14 469.703C1963.12 467.536 1965.68 466.453 1968.83 466.453ZM1984.11 467.047H2000.84V469.859H1987.14V476.828H1999.81V479.484H1987.14V487.266H2001.08V490H1984.11V467.047Z" fill="black"/>
<path d="M714.082 847.316C716.262 847.316 717.953 847.891 719.156 849.039C720.359 850.188 721.027 851.492 721.16 852.953H718.887C718.629 851.844 718.113 850.965 717.34 850.316C716.574 849.668 715.496 849.344 714.105 849.344C712.41 849.344 711.039 849.941 709.992 851.137C708.953 852.324 708.434 854.148 708.434 856.609C708.434 858.625 708.902 860.262 709.84 861.52C710.785 862.77 712.191 863.395 714.059 863.395C715.777 863.395 717.086 862.734 717.984 861.414C718.461 860.719 718.816 859.805 719.051 858.672H721.324C721.121 860.484 720.449 862.004 719.309 863.23C717.941 864.707 716.098 865.445 713.777 865.445C711.777 865.445 710.098 864.84 708.738 863.629C706.949 862.027 706.055 859.555 706.055 856.211C706.055 853.672 706.727 851.59 708.07 849.965C709.523 848.199 711.527 847.316 714.082 847.316ZM731.602 847.316C734.641 847.316 736.891 848.293 738.352 850.246C739.492 851.77 740.062 853.719 740.062 856.094C740.062 858.664 739.41 860.801 738.105 862.504C736.574 864.504 734.391 865.504 731.555 865.504C728.906 865.504 726.824 864.629 725.309 862.879C723.957 861.191 723.281 859.059 723.281 856.48C723.281 854.152 723.859 852.16 725.016 850.504C726.5 848.379 728.695 847.316 731.602 847.316ZM731.836 863.418C733.891 863.418 735.375 862.684 736.289 861.215C737.211 859.738 737.672 858.043 737.672 856.129C737.672 854.105 737.141 852.477 736.078 851.242C735.023 850.008 733.578 849.391 731.742 849.391C729.961 849.391 728.508 850.004 727.383 851.23C726.258 852.449 725.695 854.25 725.695 856.633C725.695 858.539 726.176 860.148 727.137 861.461C728.105 862.766 729.672 863.418 731.836 863.418ZM742.852 847.785H745.605L754.301 861.73V847.785H756.516V865H753.902L745.078 851.066V865H742.852V847.785ZM760.195 847.785H762.949L771.645 861.73V847.785H773.859V865H771.246L762.422 851.066V865H760.195V847.785ZM777.762 847.785H790.312V849.895H780.035V855.121H789.539V857.113H780.035V862.949H790.488V865H777.762V847.785ZM800.801 847.316C802.98 847.316 804.672 847.891 805.875 849.039C807.078 850.188 807.746 851.492 807.879 852.953H805.605C805.348 851.844 804.832 850.965 804.059 850.316C803.293 849.668 802.215 849.344 800.824 849.344C799.129 849.344 797.758 849.941 796.711 851.137C795.672 852.324 795.152 854.148 795.152 856.609C795.152 858.625 795.621 860.262 796.559 861.52C797.504 862.77 798.91 863.395 800.777 863.395C802.496 863.395 803.805 862.734 804.703 861.414C805.18 860.719 805.535 859.805 805.77 858.672H808.043C807.84 860.484 807.168 862.004 806.027 863.23C804.66 864.707 802.816 865.445 800.496 865.445C798.496 865.445 796.816 864.84 795.457 863.629C793.668 862.027 792.773 859.555 792.773 856.211C792.773 853.672 793.445 851.59 794.789 849.965C796.242 848.199 798.246 847.316 800.801 847.316ZM823.418 847.785V849.836H817.617V865H815.25V849.836H809.449V847.785H823.418ZM832.957 847.785L836.203 861.789L840.094 847.785H842.625L846.516 861.789L849.762 847.785H852.316L847.793 865H845.344L841.371 850.727L837.375 865H834.926L830.426 847.785H832.957ZM855.012 847.785H857.367V865H855.012V847.785ZM873.691 847.785V849.836H867.891V865H865.523V849.836H859.723V847.785H873.691ZM875.895 847.785H878.25V854.898H887.203V847.785H889.559V865H887.203V856.949H878.25V865H875.895V847.785Z" fill="black"/>
<path d="M929.888 854.703L927.888 854.702L927.886 858.702L929.886 858.703L929.888 854.703ZM1228.91 858.291C1229.7 857.511 1229.7 856.244 1228.92 855.463L1216.2 842.728C1215.41 841.946 1214.15 841.945 1213.37 842.726C1212.59 843.507 1212.58 844.773 1213.37 845.554L1224.67 856.875L1213.35 868.182C1212.57 868.962 1212.57 870.229 1213.35 871.01C1214.13 871.792 1215.4 871.793 1216.18 871.012L1228.91 858.291ZM929.886 858.703L1227.5 858.876L1227.5 854.876L929.888 854.703L929.886 858.703Z" fill="black"/>
<path d="M934 1123H932V1127H934V1123ZM1228.91 1126.41C1229.69 1125.63 1229.69 1124.37 1228.91 1123.59L1216.19 1110.86C1215.4 1110.08 1214.14 1110.08 1213.36 1110.86C1212.58 1111.64 1212.58 1112.91 1213.36 1113.69L1224.67 1125L1213.36 1136.31C1212.58 1137.09 1212.58 1138.36 1213.36 1139.14C1214.14 1139.92 1215.4 1139.92 1216.19 1139.14L1228.91 1126.41ZM934 1127H1227.5V1123H934V1127Z" fill="black"/>
<path d="M932.773 1339.65H930.773V1343.65H932.773V1339.65ZM1228.91 1343.06C1229.69 1342.28 1229.69 1341.02 1228.91 1340.24L1216.19 1327.51C1215.4 1326.73 1214.14 1326.73 1213.36 1327.51C1212.58 1328.29 1212.58 1329.56 1213.36 1330.34L1224.67 1341.65L1213.36 1352.96C1212.58 1353.75 1212.58 1355.01 1213.36 1355.79C1214.14 1356.57 1215.4 1356.57 1216.19 1355.79L1228.91 1343.06ZM932.773 1343.65H1227.5V1339.65H932.773V1343.65Z" fill="black"/>
<path d="M933.652 1422.12H931.652V1426.12H933.652V1422.12ZM1228.91 1425.53C1229.69 1424.75 1229.69 1423.48 1228.91 1422.7L1216.18 1409.97C1215.4 1409.19 1214.14 1409.19 1213.36 1409.97C1212.58 1410.75 1212.58 1412.02 1213.36 1412.8L1224.67 1424.12L1213.36 1435.43C1212.58 1436.21 1212.58 1437.48 1213.36 1438.26C1214.14 1439.04 1215.4 1439.04 1216.18 1438.26L1228.91 1425.53ZM933.652 1426.12H1227.5V1422.12H933.652V1426.12Z" fill="black"/>
<path d="M801.355 1115.79H803.711V1133H801.355V1115.79ZM807.508 1115.79H810.262L818.957 1129.73V1115.79H821.172V1133H818.559L809.734 1119.07V1133H807.508V1115.79ZM825.074 1115.79H832.82C834.352 1115.79 835.586 1116.22 836.523 1117.09C837.461 1117.95 837.93 1119.16 837.93 1120.72C837.93 1122.06 837.512 1123.23 836.676 1124.23C835.84 1125.23 834.555 1125.72 832.82 1125.72H827.406V1133H825.074V1115.79ZM835.574 1120.73C835.574 1119.46 835.105 1118.61 834.168 1118.15C833.652 1117.91 832.945 1117.79 832.047 1117.79H827.406V1123.75H832.047C833.094 1123.75 833.941 1123.53 834.59 1123.09C835.246 1122.64 835.574 1121.86 835.574 1120.73ZM843.391 1115.79V1126.43C843.391 1127.68 843.625 1128.71 844.094 1129.54C844.789 1130.79 845.961 1131.42 847.609 1131.42C849.586 1131.42 850.93 1130.74 851.641 1129.39C852.023 1128.66 852.215 1127.67 852.215 1126.43V1115.79H854.582V1125.45C854.582 1127.57 854.297 1129.2 853.727 1130.34C852.68 1132.42 850.703 1133.46 847.797 1133.46C844.891 1133.46 842.918 1132.42 841.879 1130.34C841.309 1129.2 841.023 1127.57 841.023 1125.45V1115.79H843.391ZM870.73 1115.79V1117.84H864.93V1133H862.562V1117.84H856.762V1115.79H870.73ZM874.398 1127.45C874.453 1128.42 874.684 1129.21 875.09 1129.82C875.863 1130.96 877.227 1131.54 879.18 1131.54C880.055 1131.54 880.852 1131.41 881.57 1131.16C882.961 1130.68 883.656 1129.81 883.656 1128.56C883.656 1127.62 883.363 1126.95 882.777 1126.55C882.184 1126.16 881.254 1125.82 879.988 1125.54L877.656 1125.01C876.133 1124.66 875.055 1124.29 874.422 1123.87C873.328 1123.15 872.781 1122.08 872.781 1120.65C872.781 1119.1 873.316 1117.83 874.387 1116.84C875.457 1115.85 876.973 1115.35 878.934 1115.35C880.738 1115.35 882.27 1115.79 883.527 1116.66C884.793 1117.53 885.426 1118.92 885.426 1120.84H883.234C883.117 1119.91 882.867 1119.21 882.484 1118.71C881.773 1117.82 880.566 1117.37 878.863 1117.37C877.488 1117.37 876.5 1117.66 875.898 1118.23C875.297 1118.81 874.996 1119.48 874.996 1120.25C874.996 1121.09 875.348 1121.71 876.051 1122.1C876.512 1122.35 877.555 1122.66 879.18 1123.04L881.594 1123.59C882.758 1123.86 883.656 1124.22 884.289 1124.68C885.383 1125.48 885.93 1126.65 885.93 1128.18C885.93 1130.09 885.234 1131.45 883.844 1132.27C882.461 1133.09 880.852 1133.5 879.016 1133.5C876.875 1133.5 875.199 1132.96 873.988 1131.86C872.777 1130.78 872.184 1129.3 872.207 1127.45H874.398Z" fill="black"/>
<path d="M1093.83 1643.79H1096.16V1658.95H1104.88V1661H1093.83V1643.79ZM1107.41 1643.79H1119.96V1645.89H1109.68V1651.12H1119.19V1653.11H1109.68V1658.95H1120.14V1661H1107.41V1643.79ZM1135.72 1643.79V1645.84H1129.92V1661H1127.55V1645.84H1121.75V1643.79H1135.72ZM1146.66 1643.79V1654.43C1146.66 1655.68 1146.89 1656.71 1147.36 1657.54C1148.05 1658.79 1149.23 1659.42 1150.88 1659.42C1152.85 1659.42 1154.2 1658.74 1154.91 1657.39C1155.29 1656.66 1155.48 1655.67 1155.48 1654.43V1643.79H1157.85V1653.45C1157.85 1655.57 1157.56 1657.2 1156.99 1658.34C1155.95 1660.42 1153.97 1661.46 1151.06 1661.46C1148.16 1661.46 1146.18 1660.42 1145.14 1658.34C1144.57 1657.2 1144.29 1655.57 1144.29 1653.45V1643.79H1146.66ZM1162.99 1655.45C1163.05 1656.42 1163.28 1657.21 1163.68 1657.82C1164.46 1658.96 1165.82 1659.54 1167.77 1659.54C1168.65 1659.54 1169.45 1659.41 1170.16 1659.16C1171.55 1658.68 1172.25 1657.81 1172.25 1656.56C1172.25 1655.62 1171.96 1654.95 1171.37 1654.55C1170.78 1654.16 1169.85 1653.82 1168.58 1653.54L1166.25 1653.01C1164.73 1652.66 1163.65 1652.29 1163.02 1651.87C1161.92 1651.15 1161.38 1650.08 1161.38 1648.65C1161.38 1647.1 1161.91 1645.83 1162.98 1644.84C1164.05 1643.85 1165.57 1643.35 1167.53 1643.35C1169.33 1643.35 1170.86 1643.79 1172.12 1644.66C1173.39 1645.53 1174.02 1646.92 1174.02 1648.84H1171.83C1171.71 1647.91 1171.46 1647.21 1171.08 1646.71C1170.37 1645.82 1169.16 1645.37 1167.46 1645.37C1166.08 1645.37 1165.09 1645.66 1164.49 1646.23C1163.89 1646.81 1163.59 1647.48 1163.59 1648.25C1163.59 1649.09 1163.94 1649.71 1164.64 1650.1C1165.11 1650.35 1166.15 1650.66 1167.77 1651.04L1170.19 1651.59C1171.35 1651.86 1172.25 1652.22 1172.88 1652.68C1173.98 1653.48 1174.52 1654.65 1174.52 1656.18C1174.52 1658.09 1173.83 1659.45 1172.44 1660.27C1171.05 1661.09 1169.45 1661.5 1167.61 1661.5C1165.47 1661.5 1163.79 1660.96 1162.58 1659.86C1161.37 1658.78 1160.78 1657.3 1160.8 1655.45H1162.99ZM1177.7 1643.79H1190.25V1645.89H1179.97V1651.12H1189.48V1653.11H1179.97V1658.95H1190.43V1661H1177.7V1643.79ZM1201.49 1651.67C1202.58 1651.67 1203.45 1651.45 1204.08 1651.02C1204.72 1650.58 1205.04 1649.79 1205.04 1648.65C1205.04 1647.42 1204.59 1646.59 1203.7 1646.14C1203.23 1645.91 1202.59 1645.79 1201.79 1645.79H1196.1V1651.67H1201.49ZM1193.77 1643.79H1201.73C1203.05 1643.79 1204.13 1643.98 1204.98 1644.36C1206.6 1645.09 1207.41 1646.45 1207.41 1648.43C1207.41 1649.46 1207.19 1650.3 1206.76 1650.96C1206.34 1651.61 1205.75 1652.14 1204.98 1652.54C1205.65 1652.81 1206.16 1653.17 1206.49 1653.62C1206.84 1654.06 1207.03 1654.79 1207.07 1655.79L1207.15 1658.09C1207.17 1658.75 1207.23 1659.24 1207.31 1659.56C1207.45 1660.11 1207.7 1660.46 1208.06 1660.61V1661H1205.2C1205.12 1660.85 1205.06 1660.66 1205.02 1660.43C1204.97 1660.19 1204.93 1659.74 1204.9 1659.07L1204.76 1656.2C1204.7 1655.07 1204.29 1654.32 1203.5 1653.93C1203.06 1653.72 1202.36 1653.62 1201.41 1653.62H1196.1V1661H1193.77V1643.79ZM1224.76 1643.32C1226.94 1643.32 1228.63 1643.89 1229.84 1645.04C1231.04 1646.19 1231.71 1647.49 1231.84 1648.95H1229.57C1229.31 1647.84 1228.79 1646.96 1228.02 1646.32C1227.25 1645.67 1226.18 1645.34 1224.79 1645.34C1223.09 1645.34 1221.72 1645.94 1220.67 1647.14C1219.63 1648.32 1219.11 1650.15 1219.11 1652.61C1219.11 1654.62 1219.58 1656.26 1220.52 1657.52C1221.46 1658.77 1222.87 1659.39 1224.74 1659.39C1226.46 1659.39 1227.77 1658.73 1228.66 1657.41C1229.14 1656.72 1229.5 1655.8 1229.73 1654.67H1232C1231.8 1656.48 1231.13 1658 1229.99 1659.23C1228.62 1660.71 1226.78 1661.45 1224.46 1661.45C1222.46 1661.45 1220.78 1660.84 1219.42 1659.63C1217.63 1658.03 1216.73 1655.55 1216.73 1652.21C1216.73 1649.67 1217.41 1647.59 1218.75 1645.96C1220.2 1644.2 1222.21 1643.32 1224.76 1643.32ZM1242.28 1643.32C1245.32 1643.32 1247.57 1644.29 1249.03 1646.25C1250.17 1647.77 1250.74 1649.72 1250.74 1652.09C1250.74 1654.66 1250.09 1656.8 1248.79 1658.5C1247.25 1660.5 1245.07 1661.5 1242.23 1661.5C1239.59 1661.5 1237.5 1660.63 1235.99 1658.88C1234.64 1657.19 1233.96 1655.06 1233.96 1652.48C1233.96 1650.15 1234.54 1648.16 1235.7 1646.5C1237.18 1644.38 1239.38 1643.32 1242.28 1643.32ZM1242.52 1659.42C1244.57 1659.42 1246.05 1658.68 1246.97 1657.21C1247.89 1655.74 1248.35 1654.04 1248.35 1652.13C1248.35 1650.11 1247.82 1648.48 1246.76 1647.24C1245.7 1646.01 1244.26 1645.39 1242.42 1645.39C1240.64 1645.39 1239.19 1646 1238.06 1647.23C1236.94 1648.45 1236.38 1650.25 1236.38 1652.63C1236.38 1654.54 1236.86 1656.15 1237.82 1657.46C1238.79 1658.77 1240.35 1659.42 1242.52 1659.42ZM1253.53 1643.79H1256.29L1264.98 1657.73V1643.79H1267.2V1661H1264.58L1255.76 1647.07V1661H1253.53V1643.79ZM1270.88 1643.79H1273.63L1282.32 1657.73V1643.79H1284.54V1661H1281.93L1273.1 1647.07V1661H1270.88V1643.79ZM1288.44 1643.79H1300.99V1645.89H1290.71V1651.12H1300.22V1653.11H1290.71V1658.95H1301.17V1661H1288.44V1643.79ZM1311.48 1643.32C1313.66 1643.32 1315.35 1643.89 1316.55 1645.04C1317.76 1646.19 1318.43 1647.49 1318.56 1648.95H1316.29C1316.03 1647.84 1315.51 1646.96 1314.74 1646.32C1313.97 1645.67 1312.89 1645.34 1311.5 1645.34C1309.81 1645.34 1308.44 1645.94 1307.39 1647.14C1306.35 1648.32 1305.83 1650.15 1305.83 1652.61C1305.83 1654.62 1306.3 1656.26 1307.24 1657.52C1308.18 1658.77 1309.59 1659.39 1311.46 1659.39C1313.18 1659.39 1314.48 1658.73 1315.38 1657.41C1315.86 1656.72 1316.21 1655.8 1316.45 1654.67H1318.72C1318.52 1656.48 1317.85 1658 1316.71 1659.23C1315.34 1660.71 1313.5 1661.45 1311.18 1661.45C1309.18 1661.45 1307.5 1660.84 1306.14 1659.63C1304.35 1658.03 1303.45 1655.55 1303.45 1652.21C1303.45 1649.67 1304.12 1647.59 1305.47 1645.96C1306.92 1644.2 1308.93 1643.32 1311.48 1643.32ZM1334.1 1643.79V1645.84H1328.3V1661H1325.93V1645.84H1320.13V1643.79H1334.1ZM1354.61 1643.79V1645.84H1348.8V1661H1346.44V1645.84H1340.64V1643.79H1354.61ZM1363.76 1643.32C1366.8 1643.32 1369.05 1644.29 1370.51 1646.25C1371.65 1647.77 1372.22 1649.72 1372.22 1652.09C1372.22 1654.66 1371.57 1656.8 1370.26 1658.5C1368.73 1660.5 1366.55 1661.5 1363.71 1661.5C1361.06 1661.5 1358.98 1660.63 1357.46 1658.88C1356.11 1657.19 1355.44 1655.06 1355.44 1652.48C1355.44 1650.15 1356.02 1648.16 1357.17 1646.5C1358.66 1644.38 1360.85 1643.32 1363.76 1643.32ZM1363.99 1659.42C1366.05 1659.42 1367.53 1658.68 1368.45 1657.21C1369.37 1655.74 1369.83 1654.04 1369.83 1652.13C1369.83 1650.11 1369.3 1648.48 1368.23 1647.24C1367.18 1646.01 1365.73 1645.39 1363.9 1645.39C1362.12 1645.39 1360.66 1646 1359.54 1647.23C1358.41 1648.45 1357.85 1650.25 1357.85 1652.63C1357.85 1654.54 1358.33 1656.15 1359.29 1657.46C1360.26 1658.77 1361.83 1659.42 1363.99 1659.42ZM1393.79 1643.79V1645.84H1387.99V1661H1385.62V1645.84H1379.82V1643.79H1393.79ZM1396 1643.79H1398.35V1650.9H1407.3V1643.79H1409.66V1661H1407.3V1652.95H1398.35V1661H1396V1643.79ZM1413.5 1643.79H1426.05V1645.89H1415.78V1651.12H1425.28V1653.11H1415.78V1658.95H1426.23V1661H1413.5V1643.79ZM1443.49 1653.95L1440.88 1646.34L1438.1 1653.95H1443.49ZM1439.66 1643.79H1442.3L1448.54 1661H1445.99L1444.24 1655.84H1437.43L1435.57 1661H1433.18L1439.66 1643.79ZM1450.89 1643.79H1458.63C1460.16 1643.79 1461.4 1644.22 1462.34 1645.09C1463.27 1645.95 1463.74 1647.16 1463.74 1648.72C1463.74 1650.06 1463.32 1651.23 1462.49 1652.23C1461.65 1653.23 1460.37 1653.72 1458.63 1653.72H1453.22V1661H1450.89V1643.79ZM1461.39 1648.73C1461.39 1647.46 1460.92 1646.61 1459.98 1646.15C1459.46 1645.91 1458.76 1645.79 1457.86 1645.79H1453.22V1651.75H1457.86C1458.91 1651.75 1459.75 1651.53 1460.4 1651.09C1461.06 1650.64 1461.39 1649.86 1461.39 1648.73ZM1466.89 1643.79H1474.64C1476.17 1643.79 1477.41 1644.22 1478.34 1645.09C1479.28 1645.95 1479.75 1647.16 1479.75 1648.72C1479.75 1650.06 1479.33 1651.23 1478.5 1652.23C1477.66 1653.23 1476.38 1653.72 1474.64 1653.72H1469.23V1661H1466.89V1643.79ZM1477.39 1648.73C1477.39 1647.46 1476.93 1646.61 1475.99 1646.15C1475.47 1645.91 1474.77 1645.79 1473.87 1645.79H1469.23V1651.75H1473.87C1474.91 1651.75 1475.76 1651.53 1476.41 1651.09C1477.07 1650.64 1477.39 1649.86 1477.39 1648.73ZM1479.75 1663.45C1480.29 1663.36 1480.67 1662.98 1480.89 1662.31C1481 1661.96 1481.06 1661.62 1481.06 1661.29C1481.06 1661.24 1481.06 1661.19 1481.05 1661.14C1481.05 1661.1 1481.04 1661.05 1481.03 1661H1479.75V1658.45H1482.26V1660.81C1482.26 1661.74 1482.07 1662.56 1481.7 1663.26C1481.32 1663.96 1480.67 1664.4 1479.75 1664.56V1663.45ZM1500.95 1651.67C1502.04 1651.67 1502.91 1651.45 1503.54 1651.02C1504.18 1650.58 1504.5 1649.79 1504.5 1648.65C1504.5 1647.42 1504.05 1646.59 1503.16 1646.14C1502.69 1645.91 1502.05 1645.79 1501.25 1645.79H1495.56V1651.67H1500.95ZM1493.23 1643.79H1501.2C1502.51 1643.79 1503.59 1643.98 1504.44 1644.36C1506.06 1645.09 1506.87 1646.45 1506.87 1648.43C1506.87 1649.46 1506.65 1650.3 1506.22 1650.96C1505.8 1651.61 1505.21 1652.14 1504.44 1652.54C1505.11 1652.81 1505.62 1653.17 1505.95 1653.62C1506.3 1654.06 1506.49 1654.79 1506.53 1655.79L1506.61 1658.09C1506.63 1658.75 1506.69 1659.24 1506.77 1659.56C1506.91 1660.11 1507.16 1660.46 1507.52 1660.61V1661H1504.66C1504.59 1660.85 1504.52 1660.66 1504.48 1660.43C1504.43 1660.19 1504.39 1659.74 1504.36 1659.07L1504.22 1656.2C1504.16 1655.07 1503.75 1654.32 1502.96 1653.93C1502.52 1653.72 1501.82 1653.62 1500.87 1653.62H1495.56V1661H1493.23V1643.79ZM1510.51 1643.79H1523.06V1645.89H1512.79V1651.12H1522.29V1653.11H1512.79V1658.95H1523.24V1661H1510.51V1643.79ZM1538.82 1643.79V1645.84H1533.02V1661H1530.66V1645.84H1524.86V1643.79H1538.82ZM1548.97 1651.67C1550.07 1651.67 1550.93 1651.45 1551.56 1651.02C1552.2 1650.58 1552.52 1649.79 1552.52 1648.65C1552.52 1647.42 1552.08 1646.59 1551.19 1646.14C1550.71 1645.91 1550.07 1645.79 1549.28 1645.79H1543.58V1651.67H1548.97ZM1541.25 1643.79H1549.22C1550.53 1643.79 1551.61 1643.98 1552.46 1644.36C1554.08 1645.09 1554.89 1646.45 1554.89 1648.43C1554.89 1649.46 1554.68 1650.3 1554.25 1650.96C1553.82 1651.61 1553.23 1652.14 1552.46 1652.54C1553.14 1652.81 1553.64 1653.17 1553.98 1653.62C1554.32 1654.06 1554.51 1654.79 1554.55 1655.79L1554.63 1658.09C1554.66 1658.75 1554.71 1659.24 1554.8 1659.56C1554.94 1660.11 1555.19 1660.46 1555.55 1660.61V1661H1552.69C1552.61 1660.85 1552.55 1660.66 1552.5 1660.43C1552.45 1660.19 1552.41 1659.74 1552.38 1659.07L1552.24 1656.2C1552.19 1655.07 1551.77 1654.32 1550.99 1653.93C1550.54 1653.72 1549.84 1653.62 1548.89 1653.62H1543.58V1661H1541.25V1643.79ZM1558.84 1643.79H1561.2V1661H1558.84V1643.79ZM1565.21 1643.79H1577.77V1645.89H1567.49V1651.12H1576.99V1653.11H1567.49V1658.95H1577.94V1661H1565.21V1643.79ZM1582.36 1643.79L1587.3 1658.45L1592.19 1643.79H1594.8L1588.52 1661H1586.05L1579.78 1643.79H1582.36ZM1597.23 1643.79H1609.78V1645.89H1599.5V1651.12H1609.01V1653.11H1599.5V1658.95H1609.96V1661H1597.23V1643.79ZM1626.3 1659.01C1627.09 1659.01 1627.74 1658.93 1628.25 1658.76C1629.16 1658.46 1629.9 1657.87 1630.48 1657C1630.94 1656.31 1631.27 1655.42 1631.47 1654.33C1631.59 1653.68 1631.65 1653.08 1631.65 1652.53C1631.65 1650.39 1631.22 1648.74 1630.37 1647.56C1629.53 1646.38 1628.16 1645.79 1626.28 1645.79H1622.14V1659.01H1626.3ZM1619.8 1643.79H1626.77C1629.14 1643.79 1630.98 1644.62 1632.28 1646.3C1633.45 1647.82 1634.03 1649.76 1634.03 1652.13C1634.03 1653.96 1633.68 1655.61 1633 1657.09C1631.79 1659.7 1629.7 1661 1626.75 1661H1619.8V1643.79ZM1645.88 1653.95L1643.26 1646.34L1640.48 1653.95H1645.88ZM1642.04 1643.79H1644.68L1650.93 1661H1648.37L1646.62 1655.84H1639.82L1637.95 1661H1635.56L1642.04 1643.79ZM1663.79 1643.79V1645.84H1657.99V1661H1655.62V1645.84H1649.82V1643.79H1663.79ZM1672.99 1653.95L1670.38 1646.34L1667.6 1653.95H1672.99ZM1669.16 1643.79H1671.8L1678.04 1661H1675.49L1673.74 1655.84H1666.93L1665.07 1661H1662.68L1669.16 1643.79ZM1680.33 1663.45C1680.87 1663.36 1681.25 1662.98 1681.46 1662.31C1681.58 1661.96 1681.64 1661.62 1681.64 1661.29C1681.64 1661.24 1681.64 1661.19 1681.63 1661.14C1681.63 1661.1 1681.62 1661.05 1681.61 1661H1680.33V1658.45H1682.84V1660.81C1682.84 1661.74 1682.65 1662.56 1682.27 1663.26C1681.9 1663.96 1681.25 1664.4 1680.33 1664.56V1663.45ZM1693.46 1643.79H1696.8L1701.75 1658.34L1706.66 1643.79H1709.96V1661H1707.75V1650.84C1707.75 1650.49 1707.76 1649.91 1707.77 1649.09C1707.79 1648.28 1707.8 1647.41 1707.8 1646.48L1702.89 1661H1700.58L1695.63 1646.48V1647.01C1695.63 1647.43 1695.64 1648.07 1695.66 1648.94C1695.68 1649.8 1695.69 1650.43 1695.69 1650.84V1661H1693.46V1643.79ZM1722.35 1653.95L1719.74 1646.34L1716.96 1653.95H1722.35ZM1718.52 1643.79H1721.16L1727.4 1661H1724.85L1723.1 1655.84H1716.29L1714.43 1661H1712.04L1718.52 1643.79ZM1729.52 1643.79H1732.28L1740.97 1657.73V1643.79H1743.19V1661H1740.57L1731.75 1647.07V1661H1729.52V1643.79ZM1755.7 1653.95L1753.09 1646.34L1750.31 1653.95H1755.7ZM1751.87 1643.79H1754.51L1760.75 1661H1758.2L1756.45 1655.84H1749.64L1747.78 1661H1745.39L1751.87 1643.79ZM1770.32 1643.34C1771.93 1643.34 1773.33 1643.65 1774.51 1644.28C1776.22 1645.18 1777.27 1646.75 1777.65 1649H1775.34C1775.06 1647.74 1774.48 1646.83 1773.6 1646.26C1772.71 1645.68 1771.6 1645.39 1770.26 1645.39C1768.66 1645.39 1767.32 1645.99 1766.23 1647.18C1765.14 1648.38 1764.6 1650.16 1764.6 1652.53C1764.6 1654.57 1765.05 1656.24 1765.95 1657.53C1766.84 1658.81 1768.31 1659.45 1770.34 1659.45C1771.89 1659.45 1773.18 1659 1774.2 1658.11C1775.22 1657.2 1775.74 1655.74 1775.77 1653.72H1770.38V1651.79H1777.93V1661H1776.43L1775.87 1658.79C1775.08 1659.65 1774.38 1660.25 1773.77 1660.59C1772.75 1661.17 1771.45 1661.46 1769.87 1661.46C1767.83 1661.46 1766.08 1660.8 1764.61 1659.48C1763.01 1657.82 1762.21 1655.55 1762.21 1652.66C1762.21 1649.77 1762.99 1647.48 1764.55 1645.78C1766.04 1644.15 1767.96 1643.34 1770.32 1643.34ZM1781.78 1643.79H1794.33V1645.89H1784.05V1651.12H1793.55V1653.11H1784.05V1658.95H1794.5V1661H1781.78V1643.79ZM1811.5 1643.32C1813.68 1643.32 1815.37 1643.89 1816.57 1645.04C1817.77 1646.19 1818.44 1647.49 1818.57 1648.95H1816.3C1816.04 1647.84 1815.53 1646.96 1814.75 1646.32C1813.99 1645.67 1812.91 1645.34 1811.52 1645.34C1809.82 1645.34 1808.45 1645.94 1807.41 1647.14C1806.37 1648.32 1805.85 1650.15 1805.85 1652.61C1805.85 1654.62 1806.32 1656.26 1807.25 1657.52C1808.2 1658.77 1809.61 1659.39 1811.47 1659.39C1813.19 1659.39 1814.5 1658.73 1815.4 1657.41C1815.88 1656.72 1816.23 1655.8 1816.46 1654.67H1818.74C1818.54 1656.48 1817.86 1658 1816.72 1659.23C1815.36 1660.71 1813.51 1661.45 1811.19 1661.45C1809.19 1661.45 1807.51 1660.84 1806.15 1659.63C1804.36 1658.03 1803.47 1655.55 1803.47 1652.21C1803.47 1649.67 1804.14 1647.59 1805.48 1645.96C1806.94 1644.2 1808.94 1643.32 1811.5 1643.32ZM1829.02 1643.32C1832.05 1643.32 1834.3 1644.29 1835.77 1646.25C1836.91 1647.77 1837.48 1649.72 1837.48 1652.09C1837.48 1654.66 1836.82 1656.8 1835.52 1658.5C1833.99 1660.5 1831.8 1661.5 1828.97 1661.5C1826.32 1661.5 1824.24 1660.63 1822.72 1658.88C1821.37 1657.19 1820.7 1655.06 1820.7 1652.48C1820.7 1650.15 1821.27 1648.16 1822.43 1646.5C1823.91 1644.38 1826.11 1643.32 1829.02 1643.32ZM1829.25 1659.42C1831.3 1659.42 1832.79 1658.68 1833.7 1657.21C1834.62 1655.74 1835.09 1654.04 1835.09 1652.13C1835.09 1650.11 1834.55 1648.48 1833.49 1647.24C1832.44 1646.01 1830.99 1645.39 1829.16 1645.39C1827.38 1645.39 1825.92 1646 1824.8 1647.23C1823.67 1648.45 1823.11 1650.25 1823.11 1652.63C1823.11 1654.54 1823.59 1656.15 1824.55 1657.46C1825.52 1658.77 1827.09 1659.42 1829.25 1659.42ZM1840.27 1643.79H1843.02L1851.71 1657.73V1643.79H1853.93V1661H1851.32L1842.49 1647.07V1661H1840.27V1643.79ZM1870.14 1643.79V1645.84H1864.34V1661H1861.97V1645.84H1856.17V1643.79H1870.14ZM1872.5 1643.79H1885.05V1645.89H1874.78V1651.12H1884.28V1653.11H1874.78V1658.95H1885.23V1661H1872.5V1643.79ZM1888.29 1643.79H1891.04L1899.74 1657.73V1643.79H1901.95V1661H1899.34L1890.52 1647.07V1661H1888.29V1643.79ZM1918.16 1643.79V1645.84H1912.36V1661H1909.99V1645.84H1904.19V1643.79H1918.16Z" fill="black"/>
<path d="M782.188 1331.79L787.133 1346.45L792.02 1331.79H794.633L788.352 1349H785.879L779.609 1331.79H782.188ZM803.891 1341.95L801.277 1334.34L798.5 1341.95H803.891ZM800.059 1331.79H802.695L808.941 1349H806.387L804.641 1343.84H797.832L795.969 1349H793.578L800.059 1331.79ZM811.062 1331.79H813.395V1346.95H822.113V1349H811.062V1331.79ZM824.949 1331.79H827.305V1349H824.949V1331.79ZM837.711 1347.01C838.5 1347.01 839.148 1346.93 839.656 1346.76C840.562 1346.46 841.305 1345.87 841.883 1345C842.344 1344.31 842.676 1343.42 842.879 1342.33C842.996 1341.68 843.055 1341.08 843.055 1340.53C843.055 1338.39 842.629 1336.74 841.777 1335.56C840.934 1334.38 839.57 1333.79 837.688 1333.79H833.551V1347.01H837.711ZM831.207 1331.79H838.18C840.547 1331.79 842.383 1332.62 843.688 1334.3C844.852 1335.82 845.434 1337.76 845.434 1340.13C845.434 1341.96 845.09 1343.61 844.402 1345.09C843.191 1347.7 841.109 1349 838.156 1349H831.207V1331.79ZM857.281 1341.95L854.668 1334.34L851.891 1341.95H857.281ZM853.449 1331.79H856.086L862.332 1349H859.777L858.031 1343.84H851.223L849.359 1349H846.969L853.449 1331.79ZM875.199 1331.79V1333.84H869.398V1349H867.031V1333.84H861.23V1331.79H875.199ZM877.566 1331.79H890.117V1333.89H879.84V1339.12H889.344V1341.11H879.84V1346.95H890.293V1349H877.566V1331.79Z" fill="black"/>
<path d="M681.082 1414.32C683.262 1414.32 684.953 1414.89 686.156 1416.04C687.359 1417.19 688.027 1418.49 688.16 1419.95H685.887C685.629 1418.84 685.113 1417.96 684.34 1417.32C683.574 1416.67 682.496 1416.34 681.105 1416.34C679.41 1416.34 678.039 1416.94 676.992 1418.14C675.953 1419.32 675.434 1421.15 675.434 1423.61C675.434 1425.62 675.902 1427.26 676.84 1428.52C677.785 1429.77 679.191 1430.39 681.059 1430.39C682.777 1430.39 684.086 1429.73 684.984 1428.41C685.461 1427.72 685.816 1426.8 686.051 1425.67H688.324C688.121 1427.48 687.449 1429 686.309 1430.23C684.941 1431.71 683.098 1432.45 680.777 1432.45C678.777 1432.45 677.098 1431.84 675.738 1430.63C673.949 1429.03 673.055 1426.55 673.055 1423.21C673.055 1420.67 673.727 1418.59 675.07 1416.96C676.523 1415.2 678.527 1414.32 681.082 1414.32ZM699.176 1422.67C700.27 1422.67 701.133 1422.45 701.766 1422.02C702.406 1421.58 702.727 1420.79 702.727 1419.65C702.727 1418.42 702.281 1417.59 701.391 1417.14C700.914 1416.91 700.277 1416.79 699.48 1416.79H693.785V1422.67H699.176ZM691.453 1414.79H699.422C700.734 1414.79 701.816 1414.98 702.668 1415.36C704.285 1416.09 705.094 1417.45 705.094 1419.43C705.094 1420.46 704.879 1421.3 704.449 1421.96C704.027 1422.61 703.434 1423.14 702.668 1423.54C703.34 1423.81 703.844 1424.17 704.18 1424.62C704.523 1425.06 704.715 1425.79 704.754 1426.79L704.836 1429.09C704.859 1429.75 704.914 1430.24 705 1430.56C705.141 1431.11 705.391 1431.46 705.75 1431.61V1432H702.891C702.812 1431.85 702.75 1431.66 702.703 1431.43C702.656 1431.19 702.617 1430.74 702.586 1430.07L702.445 1427.2C702.391 1426.07 701.973 1425.32 701.191 1424.93C700.746 1424.72 700.047 1424.62 699.094 1424.62H693.785V1432H691.453V1414.79ZM708.738 1414.79H721.289V1416.89H711.012V1422.12H720.516V1424.11H711.012V1429.95H721.465V1432H708.738V1414.79ZM733.359 1424.95L730.746 1417.34L727.969 1424.95H733.359ZM729.527 1414.79H732.164L738.41 1432H735.855L734.109 1426.84H727.301L725.438 1432H723.047L729.527 1414.79ZM751.277 1414.79V1416.84H745.477V1432H743.109V1416.84H737.309V1414.79H751.277ZM753.645 1414.79H766.195V1416.89H755.918V1422.12H765.422V1424.11H755.918V1429.95H766.371V1432H753.645V1414.79ZM783.633 1424.95L781.02 1417.34L778.242 1424.95H783.633ZM779.801 1414.79H782.438L788.684 1432H786.129L784.383 1426.84H777.574L775.711 1432H773.32L779.801 1414.79ZM798.059 1414.32C800.238 1414.32 801.93 1414.89 803.133 1416.04C804.336 1417.19 805.004 1418.49 805.137 1419.95H802.863C802.605 1418.84 802.09 1417.96 801.316 1417.32C800.551 1416.67 799.473 1416.34 798.082 1416.34C796.387 1416.34 795.016 1416.94 793.969 1418.14C792.93 1419.32 792.41 1421.15 792.41 1423.61C792.41 1425.62 792.879 1427.26 793.816 1428.52C794.762 1429.77 796.168 1430.39 798.035 1430.39C799.754 1430.39 801.062 1429.73 801.961 1428.41C802.438 1427.72 802.793 1426.8 803.027 1425.67H805.301C805.098 1427.48 804.426 1429 803.285 1430.23C801.918 1431.71 800.074 1432.45 797.754 1432.45C795.754 1432.45 794.074 1431.84 792.715 1430.63C790.926 1429.03 790.031 1426.55 790.031 1423.21C790.031 1420.67 790.703 1418.59 792.047 1416.96C793.5 1415.2 795.504 1414.32 798.059 1414.32ZM815.402 1414.32C817.582 1414.32 819.273 1414.89 820.477 1416.04C821.68 1417.19 822.348 1418.49 822.48 1419.95H820.207C819.949 1418.84 819.434 1417.96 818.66 1417.32C817.895 1416.67 816.816 1416.34 815.426 1416.34C813.73 1416.34 812.359 1416.94 811.312 1418.14C810.273 1419.32 809.754 1421.15 809.754 1423.61C809.754 1425.62 810.223 1427.26 811.16 1428.52C812.105 1429.77 813.512 1430.39 815.379 1430.39C817.098 1430.39 818.406 1429.73 819.305 1428.41C819.781 1427.72 820.137 1426.8 820.371 1425.67H822.645C822.441 1427.48 821.77 1429 820.629 1430.23C819.262 1431.71 817.418 1432.45 815.098 1432.45C813.098 1432.45 811.418 1431.84 810.059 1430.63C808.27 1429.03 807.375 1426.55 807.375 1423.21C807.375 1420.67 808.047 1418.59 809.391 1416.96C810.844 1415.2 812.848 1414.32 815.402 1414.32ZM832.922 1414.32C835.961 1414.32 838.211 1415.29 839.672 1417.25C840.812 1418.77 841.383 1420.72 841.383 1423.09C841.383 1425.66 840.73 1427.8 839.426 1429.5C837.895 1431.5 835.711 1432.5 832.875 1432.5C830.227 1432.5 828.145 1431.63 826.629 1429.88C825.277 1428.19 824.602 1426.06 824.602 1423.48C824.602 1421.15 825.18 1419.16 826.336 1417.5C827.82 1415.38 830.016 1414.32 832.922 1414.32ZM833.156 1430.42C835.211 1430.42 836.695 1429.68 837.609 1428.21C838.531 1426.74 838.992 1425.04 838.992 1423.13C838.992 1421.11 838.461 1419.48 837.398 1418.24C836.344 1417.01 834.898 1416.39 833.062 1416.39C831.281 1416.39 829.828 1417 828.703 1418.23C827.578 1419.45 827.016 1421.25 827.016 1423.63C827.016 1425.54 827.496 1427.15 828.457 1428.46C829.426 1429.77 830.992 1430.42 833.156 1430.42ZM846.703 1414.79V1425.43C846.703 1426.68 846.938 1427.71 847.406 1428.54C848.102 1429.79 849.273 1430.42 850.922 1430.42C852.898 1430.42 854.242 1429.74 854.953 1428.39C855.336 1427.66 855.527 1426.67 855.527 1425.43V1414.79H857.895V1424.45C857.895 1426.57 857.609 1428.2 857.039 1429.34C855.992 1431.42 854.016 1432.46 851.109 1432.46C848.203 1432.46 846.23 1431.42 845.191 1429.34C844.621 1428.2 844.336 1426.57 844.336 1424.45V1414.79H846.703ZM861.516 1414.79H864.27L872.965 1428.73V1414.79H875.18V1432H872.566L863.742 1418.07V1432H861.516V1414.79ZM891.387 1414.79V1416.84H885.586V1432H883.219V1416.84H877.418V1414.79H891.387Z" fill="black"/>
<path d="M2831.36 1059.79H2833.71V1077H2831.36V1059.79ZM2837.51 1059.79H2839.84V1074.95H2848.56V1077H2837.51V1059.79ZM2850.87 1059.79H2853.2V1074.95H2861.92V1077H2850.87V1059.79ZM2866.76 1059.79V1070.43C2866.76 1071.68 2866.99 1072.71 2867.46 1073.54C2868.16 1074.79 2869.33 1075.42 2870.98 1075.42C2872.95 1075.42 2874.3 1074.74 2875.01 1073.39C2875.39 1072.66 2875.58 1071.67 2875.58 1070.43V1059.79H2877.95V1069.45C2877.95 1071.57 2877.66 1073.2 2877.09 1074.34C2876.05 1076.42 2874.07 1077.46 2871.16 1077.46C2868.26 1077.46 2866.29 1076.42 2865.25 1074.34C2864.68 1073.2 2864.39 1071.57 2864.39 1069.45V1059.79H2866.76ZM2883.09 1071.45C2883.15 1072.42 2883.38 1073.21 2883.79 1073.82C2884.56 1074.96 2885.92 1075.54 2887.88 1075.54C2888.75 1075.54 2889.55 1075.41 2890.27 1075.16C2891.66 1074.68 2892.35 1073.81 2892.35 1072.56C2892.35 1071.62 2892.06 1070.95 2891.47 1070.55C2890.88 1070.16 2889.95 1069.82 2888.68 1069.54L2886.35 1069.01C2884.83 1068.66 2883.75 1068.29 2883.12 1067.87C2882.02 1067.15 2881.48 1066.08 2881.48 1064.65C2881.48 1063.1 2882.01 1061.83 2883.08 1060.84C2884.15 1059.85 2885.67 1059.35 2887.63 1059.35C2889.43 1059.35 2890.96 1059.79 2892.22 1060.66C2893.49 1061.53 2894.12 1062.92 2894.12 1064.84H2891.93C2891.81 1063.91 2891.56 1063.21 2891.18 1062.71C2890.47 1061.82 2889.26 1061.37 2887.56 1061.37C2886.18 1061.37 2885.2 1061.66 2884.59 1062.23C2883.99 1062.81 2883.69 1063.48 2883.69 1064.25C2883.69 1065.09 2884.04 1065.71 2884.75 1066.1C2885.21 1066.35 2886.25 1066.66 2887.88 1067.04L2890.29 1067.59C2891.45 1067.86 2892.35 1068.22 2892.98 1068.68C2894.08 1069.48 2894.62 1070.65 2894.62 1072.18C2894.62 1074.09 2893.93 1075.45 2892.54 1076.27C2891.16 1077.09 2889.55 1077.5 2887.71 1077.5C2885.57 1077.5 2883.89 1076.96 2882.68 1075.86C2881.47 1074.78 2880.88 1073.3 2880.9 1071.45H2883.09ZM2910.11 1059.79V1061.84H2904.3V1077H2901.94V1061.84H2896.14V1059.79H2910.11ZM2920.25 1067.67C2921.35 1067.67 2922.21 1067.45 2922.84 1067.02C2923.48 1066.58 2923.8 1065.79 2923.8 1064.65C2923.8 1063.42 2923.36 1062.59 2922.47 1062.14C2921.99 1061.91 2921.36 1061.79 2920.56 1061.79H2914.86V1067.67H2920.25ZM2912.53 1059.79H2920.5C2921.81 1059.79 2922.89 1059.98 2923.75 1060.36C2925.36 1061.09 2926.17 1062.45 2926.17 1064.43C2926.17 1065.46 2925.96 1066.3 2925.53 1066.96C2925.11 1067.61 2924.51 1068.14 2923.75 1068.54C2924.42 1068.81 2924.92 1069.17 2925.26 1069.62C2925.6 1070.06 2925.79 1070.79 2925.83 1071.79L2925.91 1074.09C2925.94 1074.75 2925.99 1075.24 2926.08 1075.56C2926.22 1076.11 2926.47 1076.46 2926.83 1076.61V1077H2923.97C2923.89 1076.85 2923.83 1076.66 2923.78 1076.43C2923.73 1076.19 2923.7 1075.74 2923.66 1075.07L2923.52 1072.2C2923.47 1071.07 2923.05 1070.32 2922.27 1069.93C2921.82 1069.72 2921.12 1069.62 2920.17 1069.62H2914.86V1077H2912.53V1059.79ZM2938.43 1069.95L2935.82 1062.34L2933.04 1069.95H2938.43ZM2934.6 1059.79H2937.23L2943.48 1077H2940.93L2939.18 1071.84H2932.37L2930.51 1077H2928.12L2934.6 1059.79ZM2956.35 1059.79V1061.84H2950.55V1077H2948.18V1061.84H2942.38V1059.79H2956.35ZM2959.02 1059.79H2961.38V1077H2959.02V1059.79ZM2972.6 1059.32C2975.64 1059.32 2977.89 1060.29 2979.35 1062.25C2980.49 1063.77 2981.06 1065.72 2981.06 1068.09C2981.06 1070.66 2980.41 1072.8 2979.11 1074.5C2977.57 1076.5 2975.39 1077.5 2972.55 1077.5C2969.91 1077.5 2967.82 1076.63 2966.31 1074.88C2964.96 1073.19 2964.28 1071.06 2964.28 1068.48C2964.28 1066.15 2964.86 1064.16 2966.02 1062.5C2967.5 1060.38 2969.7 1059.32 2972.6 1059.32ZM2972.84 1075.42C2974.89 1075.42 2976.38 1074.68 2977.29 1073.21C2978.21 1071.74 2978.67 1070.04 2978.67 1068.13C2978.67 1066.11 2978.14 1064.48 2977.08 1063.24C2976.02 1062.01 2974.58 1061.39 2972.74 1061.39C2970.96 1061.39 2969.51 1062 2968.38 1063.23C2967.26 1064.45 2966.7 1066.25 2966.7 1068.63C2966.7 1070.54 2967.18 1072.15 2968.14 1073.46C2969.11 1074.77 2970.67 1075.42 2972.84 1075.42ZM2983.85 1059.79H2986.61L2995.3 1073.73V1059.79H2997.52V1077H2994.9L2986.08 1063.07V1077H2983.85V1059.79Z" fill="black"/>
<path d="M2791.57 1069.58H2793.57V1065.58H2791.57V1069.58ZM2609.09 1066.17C2608.3 1066.95 2608.3 1068.22 2609.09 1069L2621.81 1081.73C2622.59 1082.51 2623.86 1082.51 2624.64 1081.73C2625.42 1080.95 2625.42 1079.68 2624.64 1078.9L2613.33 1067.58L2624.64 1056.27C2625.42 1055.49 2625.42 1054.22 2624.64 1053.44C2623.86 1052.66 2622.59 1052.66 2621.81 1053.44L2609.09 1066.17ZM2791.57 1065.58H2610.5V1069.58H2791.57V1065.58Z" fill="black"/>
</svg>
