<svg width="3682" height="2083" viewBox="0 0 3682 2083" fill="none" xmlns="http://www.w3.org/2000/svg">
<rect width="3682" height="2083" fill="white"/>
<rect x="1085.5" y="299.5" width="1511" height="1602" fill="white"/>
<rect x="1085.5" y="299.5" width="1511" height="1602" stroke="black"/>
<rect x="2394" y="323" width="89" height="52" fill="#5F5F5F"/>
<rect x="1124" y="323" width="154" height="52" fill="#5F5F5F"/>
<rect x="2505" y="323" width="52" height="52" fill="#5F5F5F"/>
<rect x="1761" y="497" width="52" height="52" fill="#5F5F5F"/>
<rect x="1361" y="681" width="226" height="167" fill="#A4A4A4"/>
<rect x="1361" y="1010" width="222" height="226" fill="#A4A4A4"/>
<rect x="1361" y="1485" width="761" height="226" fill="#A4A4A4"/>
<rect x="1361" y="1263" width="222" height="67" fill="#A4A4A4"/>
<rect x="1607" y="1263" width="222" height="67" fill="#A4A4A4"/>
<rect x="1853" y="1263" width="222" height="67" fill="#A4A4A4"/>
<rect x="2099" y="1263" width="222" height="67" fill="#A4A4A4"/>
<rect x="1607" y="1010" width="222" height="226" fill="#A4A4A4"/>
<rect x="1853" y="1010" width="222" height="226" fill="#A4A4A4"/>
<rect x="2099" y="1010" width="222" height="226" fill="#A4A4A4"/>
<rect x="1622" y="681" width="226" height="167" fill="#A4A4A4"/>
<rect x="1883" y="681" width="226" height="167" fill="#A4A4A4"/>
<line x1="1085" y1="389.5" x2="2597" y2="389.5" stroke="#B2B2B2"/>
<rect x="1361" y="467" width="381" height="82" fill="#D9D9D9"/>
<rect x="1361" y="584" width="325" height="52" fill="#D9D9D9"/>
<rect x="1361" y="924" width="325" height="52" fill="#D9D9D9"/>
<rect x="1361" y="1406" width="325" height="52" fill="#D9D9D9"/>
<rect x="1361" y="1787" width="246" height="52" fill="#5F5F5F"/>
<rect x="2075" y="1787" width="246" height="52" fill="#5F5F5F"/>
<rect x="1709" y="924" width="52" height="52" fill="#D9D9D9"/>
<rect x="2154" y="681" width="167" height="167" fill="#5F5F5F"/>
<path d="M2234.81 745.607V778.22" stroke="#B2B2B2" stroke-width="3" stroke-linecap="round"/>
<path d="M2221.53 764.934C2229.43 764.934 2241.18 763.887 2248.1 767.349" stroke="#B2B2B2" stroke-width="3" stroke-linecap="round"/>
<circle cx="2333.5" cy="766.5" r="12.5" fill="white"/>
<circle cx="2333.5" cy="1812.5" r="12.5" fill="white"/>
<path d="M1086.83 1986.79H1089.16V2001.95H1097.88V2004H1086.83V1986.79ZM1100.41 1986.79H1112.96V1988.89H1102.68V1994.12H1112.19V1996.11H1102.68V2001.95H1113.14V2004H1100.41V1986.79ZM1128.72 1986.79V1988.84H1122.92V2004H1120.55V1988.84H1114.75V1986.79H1128.72ZM1139.66 1986.79V1997.43C1139.66 1998.68 1139.89 1999.71 1140.36 2000.54C1141.05 2001.79 1142.23 2002.42 1143.88 2002.42C1145.85 2002.42 1147.2 2001.74 1147.91 2000.39C1148.29 1999.66 1148.48 1998.67 1148.48 1997.43V1986.79H1150.85V1996.45C1150.85 1998.57 1150.56 2000.2 1149.99 2001.34C1148.95 2003.42 1146.97 2004.46 1144.06 2004.46C1141.16 2004.46 1139.18 2003.42 1138.14 2001.34C1137.57 2000.2 1137.29 1998.57 1137.29 1996.45V1986.79H1139.66ZM1155.99 1998.45C1156.05 1999.42 1156.28 2000.21 1156.68 2000.82C1157.46 2001.96 1158.82 2002.54 1160.77 2002.54C1161.65 2002.54 1162.45 2002.41 1163.16 2002.16C1164.55 2001.68 1165.25 2000.81 1165.25 1999.56C1165.25 1998.62 1164.96 1997.95 1164.37 1997.55C1163.78 1997.16 1162.85 1996.82 1161.58 1996.54L1159.25 1996.01C1157.73 1995.66 1156.65 1995.29 1156.02 1994.87C1154.92 1994.15 1154.38 1993.08 1154.38 1991.65C1154.38 1990.1 1154.91 1988.83 1155.98 1987.84C1157.05 1986.85 1158.57 1986.35 1160.53 1986.35C1162.33 1986.35 1163.86 1986.79 1165.12 1987.66C1166.39 1988.53 1167.02 1989.92 1167.02 1991.84H1164.83C1164.71 1990.91 1164.46 1990.21 1164.08 1989.71C1163.37 1988.82 1162.16 1988.37 1160.46 1988.37C1159.08 1988.37 1158.09 1988.66 1157.49 1989.23C1156.89 1989.81 1156.59 1990.48 1156.59 1991.25C1156.59 1992.09 1156.94 1992.71 1157.64 1993.1C1158.11 1993.35 1159.15 1993.66 1160.77 1994.04L1163.19 1994.59C1164.35 1994.86 1165.25 1995.22 1165.88 1995.68C1166.98 1996.48 1167.52 1997.65 1167.52 1999.18C1167.52 2001.09 1166.83 2002.45 1165.44 2003.27C1164.05 2004.09 1162.45 2004.5 1160.61 2004.5C1158.47 2004.5 1156.79 2003.96 1155.58 2002.86C1154.37 2001.78 1153.78 2000.3 1153.8 1998.45H1155.99ZM1170.7 1986.79H1183.25V1988.89H1172.97V1994.12H1182.48V1996.11H1172.97V2001.95H1183.43V2004H1170.7V1986.79ZM1194.49 1994.67C1195.58 1994.67 1196.45 1994.45 1197.08 1994.02C1197.72 1993.58 1198.04 1992.79 1198.04 1991.65C1198.04 1990.42 1197.59 1989.59 1196.7 1989.14C1196.23 1988.91 1195.59 1988.79 1194.79 1988.79H1189.1V1994.67H1194.49ZM1186.77 1986.79H1194.73C1196.05 1986.79 1197.13 1986.98 1197.98 1987.36C1199.6 1988.09 1200.41 1989.45 1200.41 1991.43C1200.41 1992.46 1200.19 1993.3 1199.76 1993.96C1199.34 1994.61 1198.75 1995.14 1197.98 1995.54C1198.65 1995.81 1199.16 1996.17 1199.49 1996.62C1199.84 1997.06 1200.03 1997.79 1200.07 1998.79L1200.15 2001.09C1200.17 2001.75 1200.23 2002.24 1200.31 2002.56C1200.45 2003.11 1200.7 2003.46 1201.06 2003.61V2004H1198.2C1198.12 2003.85 1198.06 2003.66 1198.02 2003.43C1197.97 2003.19 1197.93 2002.74 1197.9 2002.07L1197.76 1999.2C1197.7 1998.07 1197.29 1997.32 1196.5 1996.93C1196.06 1996.72 1195.36 1996.62 1194.41 1996.62H1189.1V2004H1186.77V1986.79ZM1210.45 1986.79H1213.79L1218.73 2001.34L1223.64 1986.79H1226.95V2004H1224.73V1993.84C1224.73 1993.49 1224.74 1992.91 1224.76 1992.09C1224.77 1991.28 1224.78 1990.41 1224.78 1989.48L1219.87 2004H1217.56L1212.62 1989.48V1990.01C1212.62 1990.43 1212.62 1991.07 1212.64 1991.94C1212.66 1992.8 1212.68 1993.43 1212.68 1993.84V2004H1210.45V1986.79ZM1239.34 1996.95L1236.72 1989.34L1233.95 1996.95H1239.34ZM1235.5 1986.79H1238.14L1244.39 2004H1241.83L1240.09 1998.84H1233.28L1231.41 2004H1229.02L1235.5 1986.79ZM1246.51 1986.79H1249.26L1257.96 2000.73V1986.79H1260.17V2004H1257.56L1248.73 1990.07V2004H1246.51V1986.79ZM1272.69 1996.95L1270.07 1989.34L1267.3 1996.95H1272.69ZM1268.86 1986.79H1271.49L1277.74 2004H1275.18L1273.44 1998.84H1266.63L1264.77 2004H1262.38L1268.86 1986.79ZM1287.3 1986.34C1288.92 1986.34 1290.32 1986.65 1291.5 1987.28C1293.21 1988.18 1294.25 1989.75 1294.64 1992H1292.33C1292.05 1990.74 1291.46 1989.83 1290.58 1989.26C1289.7 1988.68 1288.59 1988.39 1287.24 1988.39C1285.65 1988.39 1284.3 1988.99 1283.21 1990.18C1282.12 1991.38 1281.58 1993.16 1281.58 1995.53C1281.58 1997.57 1282.03 1999.24 1282.93 2000.53C1283.83 2001.81 1285.29 2002.45 1287.32 2002.45C1288.88 2002.45 1290.16 2002 1291.18 2001.11C1292.2 2000.2 1292.73 1998.74 1292.75 1996.72H1287.36V1994.79H1294.92V2004H1293.42L1292.86 2001.79C1292.07 2002.65 1291.37 2003.25 1290.76 2003.59C1289.73 2004.17 1288.43 2004.46 1286.86 2004.46C1284.82 2004.46 1283.06 2003.8 1281.59 2002.48C1279.99 2000.82 1279.19 1998.55 1279.19 1995.66C1279.19 1992.77 1279.97 1990.48 1281.54 1988.78C1283.02 1987.15 1284.94 1986.34 1287.3 1986.34ZM1298.76 1986.79H1311.31V1988.89H1301.04V1994.12H1310.54V1996.11H1301.04V2001.95H1311.49V2004H1298.76V1986.79ZM1321.45 1986.79H1334V1988.89H1323.72V1994.12H1333.23V1996.11H1323.72V2001.95H1334.18V2004H1321.45V1986.79ZM1338.71 2004H1335.9L1342.06 1995.18L1336.29 1986.79H1339.2L1343.6 1993.37L1347.96 1986.79H1350.73L1344.96 1995.18L1351.02 2004H1348.12L1343.48 1996.92L1338.71 2004ZM1353.77 1986.79H1356.12V2004H1353.77V1986.79ZM1361.45 1998.45C1361.5 1999.42 1361.73 2000.21 1362.14 2000.82C1362.91 2001.96 1364.27 2002.54 1366.23 2002.54C1367.1 2002.54 1367.9 2002.41 1368.62 2002.16C1370.01 2001.68 1370.7 2000.81 1370.7 1999.56C1370.7 1998.62 1370.41 1997.95 1369.82 1997.55C1369.23 1997.16 1368.3 1996.82 1367.04 1996.54L1364.7 1996.01C1363.18 1995.66 1362.1 1995.29 1361.47 1994.87C1360.38 1994.15 1359.83 1993.08 1359.83 1991.65C1359.83 1990.1 1360.36 1988.83 1361.43 1987.84C1362.5 1986.85 1364.02 1986.35 1365.98 1986.35C1367.79 1986.35 1369.32 1986.79 1370.57 1987.66C1371.84 1988.53 1372.47 1989.92 1372.47 1991.84H1370.28C1370.16 1990.91 1369.91 1990.21 1369.53 1989.71C1368.82 1988.82 1367.61 1988.37 1365.91 1988.37C1364.54 1988.37 1363.55 1988.66 1362.95 1989.23C1362.34 1989.81 1362.04 1990.48 1362.04 1991.25C1362.04 1992.09 1362.39 1992.71 1363.1 1993.1C1363.56 1993.35 1364.6 1993.66 1366.23 1994.04L1368.64 1994.59C1369.8 1994.86 1370.7 1995.22 1371.34 1995.68C1372.43 1996.48 1372.98 1997.65 1372.98 1999.18C1372.98 2001.09 1372.28 2002.45 1370.89 2003.27C1369.51 2004.09 1367.9 2004.5 1366.06 2004.5C1363.92 2004.5 1362.25 2003.96 1361.04 2002.86C1359.82 2001.78 1359.23 2000.3 1359.25 1998.45H1361.45ZM1388.46 1986.79V1988.84H1382.66V2004H1380.29V1988.84H1374.49V1986.79H1388.46ZM1391.13 1986.79H1393.48V2004H1391.13V1986.79ZM1397.28 1986.79H1400.04L1408.73 2000.73V1986.79H1410.95V2004H1408.33L1399.51 1990.07V2004H1397.28V1986.79ZM1422.07 1986.34C1423.68 1986.34 1425.08 1986.65 1426.26 1987.28C1427.97 1988.18 1429.02 1989.75 1429.4 1992H1427.09C1426.81 1990.74 1426.23 1989.83 1425.35 1989.26C1424.46 1988.68 1423.35 1988.39 1422.01 1988.39C1420.41 1988.39 1419.07 1988.99 1417.98 1990.18C1416.89 1991.38 1416.35 1993.16 1416.35 1995.53C1416.35 1997.57 1416.8 1999.24 1417.7 2000.53C1418.59 2001.81 1420.06 2002.45 1422.09 2002.45C1423.64 2002.45 1424.93 2002 1425.95 2001.11C1426.97 2000.2 1427.49 1998.74 1427.52 1996.72H1422.12V1994.79H1429.68V2004H1428.18L1427.62 2001.79C1426.83 2002.65 1426.13 2003.25 1425.52 2003.59C1424.5 2004.17 1423.2 2004.46 1421.62 2004.46C1419.58 2004.46 1417.83 2003.8 1416.36 2002.48C1414.76 2000.82 1413.96 1998.55 1413.96 1995.66C1413.96 1992.77 1414.74 1990.48 1416.3 1988.78C1417.79 1987.15 1419.71 1986.34 1422.07 1986.34ZM1440.21 1986.79H1447.95C1449.48 1986.79 1450.72 1987.22 1451.66 1988.09C1452.59 1988.95 1453.06 1990.16 1453.06 1991.72C1453.06 1993.06 1452.64 1994.23 1451.81 1995.23C1450.97 1996.23 1449.69 1996.72 1447.95 1996.72H1442.54V2004H1440.21V1986.79ZM1450.71 1991.73C1450.71 1990.46 1450.24 1989.61 1449.3 1989.15C1448.79 1988.91 1448.08 1988.79 1447.18 1988.79H1442.54V1994.75H1447.18C1448.23 1994.75 1449.07 1994.53 1449.72 1994.09C1450.38 1993.64 1450.71 1992.86 1450.71 1991.73ZM1463.05 1996.95L1460.43 1989.34L1457.66 1996.95H1463.05ZM1459.21 1986.79H1461.85L1468.1 2004H1465.54L1463.8 1998.84H1456.99L1455.12 2004H1452.73L1459.21 1986.79ZM1480.96 1986.79V1988.84H1475.16V2004H1472.8V1988.84H1467V1986.79H1480.96ZM1495.64 1986.79V1988.84H1489.84V2004H1487.47V1988.84H1481.67V1986.79H1495.64ZM1498 1986.79H1510.55V1988.89H1500.28V1994.12H1509.78V1996.11H1500.28V2001.95H1510.73V2004H1498V1986.79ZM1521.79 1994.67C1522.89 1994.67 1523.75 1994.45 1524.38 1994.02C1525.02 1993.58 1525.34 1992.79 1525.34 1991.65C1525.34 1990.42 1524.9 1989.59 1524.01 1989.14C1523.53 1988.91 1522.89 1988.79 1522.1 1988.79H1516.4V1994.67H1521.79ZM1514.07 1986.79H1522.04C1523.35 1986.79 1524.43 1986.98 1525.29 1987.36C1526.9 1988.09 1527.71 1989.45 1527.71 1991.43C1527.71 1992.46 1527.5 1993.3 1527.07 1993.96C1526.64 1994.61 1526.05 1995.14 1525.29 1995.54C1525.96 1995.81 1526.46 1996.17 1526.8 1996.62C1527.14 1997.06 1527.33 1997.79 1527.37 1998.79L1527.45 2001.09C1527.48 2001.75 1527.53 2002.24 1527.62 2002.56C1527.76 2003.11 1528.01 2003.46 1528.37 2003.61V2004H1525.51C1525.43 2003.85 1525.37 2003.66 1525.32 2003.43C1525.27 2003.19 1525.23 2002.74 1525.2 2002.07L1525.06 1999.2C1525.01 1998.07 1524.59 1997.32 1523.81 1996.93C1523.36 1996.72 1522.66 1996.62 1521.71 1996.62H1516.4V2004H1514.07V1986.79ZM1531.13 1986.79H1533.89L1542.58 2000.73V1986.79H1544.8V2004H1542.18L1533.36 1990.07V2004H1531.13V1986.79ZM1550 1998.45C1550.05 1999.42 1550.29 2000.21 1550.69 2000.82C1551.46 2001.96 1552.83 2002.54 1554.78 2002.54C1555.66 2002.54 1556.45 2002.41 1557.17 2002.16C1558.56 2001.68 1559.26 2000.81 1559.26 1999.56C1559.26 1998.62 1558.96 1997.95 1558.38 1997.55C1557.79 1997.16 1556.86 1996.82 1555.59 1996.54L1553.26 1996.01C1551.73 1995.66 1550.66 1995.29 1550.02 1994.87C1548.93 1994.15 1548.38 1993.08 1548.38 1991.65C1548.38 1990.1 1548.92 1988.83 1549.99 1987.84C1551.06 1986.85 1552.57 1986.35 1554.54 1986.35C1556.34 1986.35 1557.87 1986.79 1559.13 1987.66C1560.39 1988.53 1561.03 1989.92 1561.03 1991.84H1558.84C1558.72 1990.91 1558.47 1990.21 1558.09 1989.71C1557.38 1988.82 1556.17 1988.37 1554.46 1988.37C1553.09 1988.37 1552.1 1988.66 1551.5 1989.23C1550.9 1989.81 1550.6 1990.48 1550.6 1991.25C1550.6 1992.09 1550.95 1992.71 1551.65 1993.1C1552.11 1993.35 1553.16 1993.66 1554.78 1994.04L1557.2 1994.59C1558.36 1994.86 1559.26 1995.22 1559.89 1995.68C1560.98 1996.48 1561.53 1997.65 1561.53 1999.18C1561.53 2001.09 1560.84 2002.45 1559.45 2003.27C1558.06 2004.09 1556.45 2004.5 1554.62 2004.5C1552.48 2004.5 1550.8 2003.96 1549.59 2002.86C1548.38 2001.78 1547.79 2000.3 1547.81 1998.45H1550ZM1578.59 1986.32C1581.63 1986.32 1583.88 1987.29 1585.34 1989.25C1586.48 1990.77 1587.05 1992.72 1587.05 1995.09C1587.05 1997.66 1586.4 1999.8 1585.1 2001.5C1583.57 2003.5 1581.38 2004.5 1578.55 2004.5C1575.9 2004.5 1573.82 2003.63 1572.3 2001.88C1570.95 2000.19 1570.27 1998.06 1570.27 1995.48C1570.27 1993.15 1570.85 1991.16 1572.01 1989.5C1573.49 1987.38 1575.69 1986.32 1578.59 1986.32ZM1578.83 2002.42C1580.88 2002.42 1582.37 2001.68 1583.28 2000.21C1584.2 1998.74 1584.66 1997.04 1584.66 1995.13C1584.66 1993.11 1584.13 1991.48 1583.07 1990.24C1582.02 1989.01 1580.57 1988.39 1578.73 1988.39C1576.95 1988.39 1575.5 1989 1574.38 1990.23C1573.25 1991.45 1572.69 1993.25 1572.69 1995.63C1572.69 1997.54 1573.17 1999.15 1574.13 2000.46C1575.1 2001.77 1576.66 2002.42 1578.83 2002.42ZM1597.85 1994.67C1598.94 1994.67 1599.8 1994.45 1600.44 1994.02C1601.08 1993.58 1601.4 1992.79 1601.4 1991.65C1601.4 1990.42 1600.95 1989.59 1600.06 1989.14C1599.59 1988.91 1598.95 1988.79 1598.15 1988.79H1592.46V1994.67H1597.85ZM1590.12 1986.79H1598.09C1599.41 1986.79 1600.49 1986.98 1601.34 1987.36C1602.96 1988.09 1603.77 1989.45 1603.77 1991.43C1603.77 1992.46 1603.55 1993.3 1603.12 1993.96C1602.7 1994.61 1602.11 1995.14 1601.34 1995.54C1602.01 1995.81 1602.52 1996.17 1602.85 1996.62C1603.2 1997.06 1603.39 1997.79 1603.43 1998.79L1603.51 2001.09C1603.53 2001.75 1603.59 2002.24 1603.67 2002.56C1603.81 2003.11 1604.06 2003.46 1604.42 2003.61V2004H1601.56C1601.48 2003.85 1601.42 2003.66 1601.38 2003.43C1601.33 2003.19 1601.29 2002.74 1601.26 2002.07L1601.12 1999.2C1601.06 1998.07 1600.64 1997.32 1599.86 1996.93C1599.42 1996.72 1598.72 1996.62 1597.77 1996.62H1592.46V2004H1590.12V1986.79ZM1621.12 1986.32C1623.3 1986.32 1624.99 1986.89 1626.2 1988.04C1627.4 1989.19 1628.07 1990.49 1628.2 1991.95H1625.93C1625.67 1990.84 1625.15 1989.96 1624.38 1989.32C1623.61 1988.67 1622.54 1988.34 1621.14 1988.34C1619.45 1988.34 1618.08 1988.94 1617.03 1990.14C1615.99 1991.32 1615.47 1993.15 1615.47 1995.61C1615.47 1997.62 1615.94 1999.26 1616.88 2000.52C1617.82 2001.77 1619.23 2002.39 1621.1 2002.39C1622.82 2002.39 1624.12 2001.73 1625.02 2000.41C1625.5 1999.72 1625.86 1998.8 1626.09 1997.67H1628.36C1628.16 1999.48 1627.49 2001 1626.35 2002.23C1624.98 2003.71 1623.14 2004.45 1620.82 2004.45C1618.82 2004.45 1617.14 2003.84 1615.78 2002.63C1613.99 2001.03 1613.09 1998.55 1613.09 1995.21C1613.09 1992.67 1613.77 1990.59 1615.11 1988.96C1616.56 1987.2 1618.57 1986.32 1621.12 1986.32ZM1639.21 1994.67C1640.31 1994.67 1641.17 1994.45 1641.8 1994.02C1642.45 1993.58 1642.77 1992.79 1642.77 1991.65C1642.77 1990.42 1642.32 1989.59 1641.43 1989.14C1640.95 1988.91 1640.32 1988.79 1639.52 1988.79H1633.82V1994.67H1639.21ZM1631.49 1986.79H1639.46C1640.77 1986.79 1641.86 1986.98 1642.71 1987.36C1644.32 1988.09 1645.13 1989.45 1645.13 1991.43C1645.13 1992.46 1644.92 1993.3 1644.49 1993.96C1644.07 1994.61 1643.47 1995.14 1642.71 1995.54C1643.38 1995.81 1643.88 1996.17 1644.22 1996.62C1644.56 1997.06 1644.75 1997.79 1644.79 1998.79L1644.88 2001.09C1644.9 2001.75 1644.95 2002.24 1645.04 2002.56C1645.18 2003.11 1645.43 2003.46 1645.79 2003.61V2004H1642.93C1642.85 2003.85 1642.79 2003.66 1642.74 2003.43C1642.7 2003.19 1642.66 2002.74 1642.62 2002.07L1642.48 1999.2C1642.43 1998.07 1642.01 1997.32 1641.23 1996.93C1640.79 1996.72 1640.09 1996.62 1639.13 1996.62H1633.82V2004H1631.49V1986.79ZM1648.78 1986.79H1661.33V1988.89H1651.05V1994.12H1660.55V1996.11H1651.05V2001.95H1661.5V2004H1648.78V1986.79ZM1673.4 1996.95L1670.79 1989.34L1668.01 1996.95H1673.4ZM1669.57 1986.79H1672.2L1678.45 2004H1675.89L1674.15 1998.84H1667.34L1665.48 2004H1663.09L1669.57 1986.79ZM1691.32 1986.79V1988.84H1685.52V2004H1683.15V1988.84H1677.35V1986.79H1691.32ZM1693.68 1986.79H1706.23V1988.89H1695.96V1994.12H1705.46V1996.11H1695.96V2001.95H1706.41V2004H1693.68V1986.79ZM1716.15 1986.79H1718.9L1727.6 2000.73V1986.79H1729.81V2004H1727.2L1718.38 1990.07V2004H1716.15V1986.79ZM1733.71 1986.79H1746.27V1988.89H1735.99V1994.12H1745.49V1996.11H1735.99V2001.95H1746.44V2004H1733.71V1986.79ZM1750.64 1986.79L1753.88 2000.79L1757.77 1986.79H1760.3L1764.2 2000.79L1767.44 1986.79H1770L1765.47 2004H1763.02L1759.05 1989.73L1755.05 2004H1752.61L1748.11 1986.79H1750.64ZM1786.27 1986.32C1789.31 1986.32 1791.56 1987.29 1793.02 1989.25C1794.16 1990.77 1794.73 1992.72 1794.73 1995.09C1794.73 1997.66 1794.08 1999.8 1792.78 2001.5C1791.25 2003.5 1789.06 2004.5 1786.23 2004.5C1783.58 2004.5 1781.5 2003.63 1779.98 2001.88C1778.63 2000.19 1777.95 1998.06 1777.95 1995.48C1777.95 1993.15 1778.53 1991.16 1779.69 1989.5C1781.17 1987.38 1783.37 1986.32 1786.27 1986.32ZM1786.51 2002.42C1788.56 2002.42 1790.05 2001.68 1790.96 2000.21C1791.88 1998.74 1792.34 1997.04 1792.34 1995.13C1792.34 1993.11 1791.81 1991.48 1790.75 1990.24C1789.7 1989.01 1788.25 1988.39 1786.41 1988.39C1784.63 1988.39 1783.18 1989 1782.05 1990.23C1780.93 1991.45 1780.37 1993.25 1780.37 1995.63C1780.37 1997.54 1780.85 1999.15 1781.81 2000.46C1782.78 2001.77 1784.34 2002.42 1786.51 2002.42ZM1797.52 1986.79H1800.28L1808.97 2000.73V1986.79H1811.19V2004H1808.57L1799.75 1990.07V2004H1797.52V1986.79ZM1815.09 1986.79H1827.64V1988.89H1817.36V1994.12H1826.87V1996.11H1817.36V2001.95H1827.82V2004H1815.09V1986.79ZM1832.4 1998.45C1832.45 1999.42 1832.68 2000.21 1833.09 2000.82C1833.86 2001.96 1835.23 2002.54 1837.18 2002.54C1838.05 2002.54 1838.85 2002.41 1839.57 2002.16C1840.96 2001.68 1841.66 2000.81 1841.66 1999.56C1841.66 1998.62 1841.36 1997.95 1840.78 1997.55C1840.18 1997.16 1839.25 1996.82 1837.99 1996.54L1835.66 1996.01C1834.13 1995.66 1833.05 1995.29 1832.42 1994.87C1831.33 1994.15 1830.78 1993.08 1830.78 1991.65C1830.78 1990.1 1831.32 1988.83 1832.39 1987.84C1833.46 1986.85 1834.97 1986.35 1836.93 1986.35C1838.74 1986.35 1840.27 1986.79 1841.53 1987.66C1842.79 1988.53 1843.43 1989.92 1843.43 1991.84H1841.23C1841.12 1990.91 1840.87 1990.21 1840.48 1989.71C1839.77 1988.82 1838.57 1988.37 1836.86 1988.37C1835.49 1988.37 1834.5 1988.66 1833.9 1989.23C1833.3 1989.81 1833 1990.48 1833 1991.25C1833 1992.09 1833.35 1992.71 1834.05 1993.1C1834.51 1993.35 1835.55 1993.66 1837.18 1994.04L1839.59 1994.59C1840.76 1994.86 1841.66 1995.22 1842.29 1995.68C1843.38 1996.48 1843.93 1997.65 1843.93 1999.18C1843.93 2001.09 1843.23 2002.45 1841.84 2003.27C1840.46 2004.09 1838.85 2004.5 1837.02 2004.5C1834.88 2004.5 1833.2 2003.96 1831.99 2002.86C1830.78 2001.78 1830.18 2000.3 1830.21 1998.45H1832.4ZM1847.05 2006.45C1847.59 2006.36 1847.96 2005.98 1848.18 2005.31C1848.3 2004.96 1848.36 2004.62 1848.36 2004.29C1848.36 2004.24 1848.36 2004.19 1848.35 2004.14C1848.35 2004.1 1848.34 2004.05 1848.32 2004H1847.05V2001.45H1849.55V2003.81C1849.55 2004.74 1849.37 2005.56 1848.99 2006.26C1848.62 2006.96 1847.97 2007.4 1847.05 2007.56V2006.45ZM1860.24 1986.79H1863L1871.69 2000.73V1986.79H1873.91V2004H1871.29L1862.47 1990.07V2004H1860.24V1986.79ZM1886.42 1996.95L1883.81 1989.34L1881.03 1996.95H1886.42ZM1882.59 1986.79H1885.23L1891.47 2004H1888.92L1887.17 1998.84H1880.36L1878.5 2004H1876.11L1882.59 1986.79ZM1893.54 1986.79H1896.88L1901.82 2001.34L1906.73 1986.79H1910.04V2004H1907.82V1993.84C1907.82 1993.49 1907.83 1992.91 1907.84 1992.09C1907.86 1991.28 1907.87 1990.41 1907.87 1989.48L1902.96 2004H1900.65L1895.7 1989.48V1990.01C1895.7 1990.43 1895.71 1991.07 1895.73 1991.94C1895.75 1992.8 1895.76 1993.43 1895.76 1993.84V2004H1893.54V1986.79ZM1913.81 1986.79H1926.36V1988.89H1916.08V1994.12H1925.59V1996.11H1916.08V2001.95H1926.54V2004H1913.81V1986.79ZM1936.5 1986.79H1944.24C1945.77 1986.79 1947.01 1987.22 1947.95 1988.09C1948.88 1988.95 1949.35 1990.16 1949.35 1991.72C1949.35 1993.06 1948.93 1994.23 1948.1 1995.23C1947.26 1996.23 1945.98 1996.72 1944.24 1996.72H1938.83V2004H1936.5V1986.79ZM1947 1991.73C1947 1990.46 1946.53 1989.61 1945.59 1989.15C1945.07 1988.91 1944.37 1988.79 1943.47 1988.79H1938.83V1994.75H1943.47C1944.52 1994.75 1945.36 1994.53 1946.01 1994.09C1946.67 1993.64 1947 1992.86 1947 1991.73ZM1959.71 1986.32C1962.75 1986.32 1965 1987.29 1966.46 1989.25C1967.6 1990.77 1968.17 1992.72 1968.17 1995.09C1968.17 1997.66 1967.52 1999.8 1966.21 2001.5C1964.68 2003.5 1962.5 2004.5 1959.66 2004.5C1957.02 2004.5 1954.93 2003.63 1953.42 2001.88C1952.07 2000.19 1951.39 1998.06 1951.39 1995.48C1951.39 1993.15 1951.97 1991.16 1953.12 1989.5C1954.61 1987.38 1956.8 1986.32 1959.71 1986.32ZM1959.95 2002.42C1962 2002.42 1963.48 2001.68 1964.4 2000.21C1965.32 1998.74 1965.78 1997.04 1965.78 1995.13C1965.78 1993.11 1965.25 1991.48 1964.19 1990.24C1963.13 1989.01 1961.69 1988.39 1959.85 1988.39C1958.07 1988.39 1956.62 1989 1955.49 1990.23C1954.37 1991.45 1953.8 1993.25 1953.8 1995.63C1953.8 1997.54 1954.29 1999.15 1955.25 2000.46C1956.21 2001.77 1957.78 2002.42 1959.95 2002.42ZM1972.48 1998.45C1972.54 1999.42 1972.77 2000.21 1973.18 2000.82C1973.95 2001.96 1975.31 2002.54 1977.27 2002.54C1978.14 2002.54 1978.94 2002.41 1979.66 2002.16C1981.05 2001.68 1981.74 2000.81 1981.74 1999.56C1981.74 1998.62 1981.45 1997.95 1980.86 1997.55C1980.27 1997.16 1979.34 1996.82 1978.07 1996.54L1975.74 1996.01C1974.22 1995.66 1973.14 1995.29 1972.51 1994.87C1971.41 1994.15 1970.87 1993.08 1970.87 1991.65C1970.87 1990.1 1971.4 1988.83 1972.47 1987.84C1973.54 1986.85 1975.06 1986.35 1977.02 1986.35C1978.82 1986.35 1980.36 1986.79 1981.61 1987.66C1982.88 1988.53 1983.51 1989.92 1983.51 1991.84H1981.32C1981.2 1990.91 1980.95 1990.21 1980.57 1989.71C1979.86 1988.82 1978.65 1988.37 1976.95 1988.37C1975.57 1988.37 1974.59 1988.66 1973.98 1989.23C1973.38 1989.81 1973.08 1990.48 1973.08 1991.25C1973.08 1992.09 1973.43 1992.71 1974.14 1993.1C1974.6 1993.35 1975.64 1993.66 1977.27 1994.04L1979.68 1994.59C1980.84 1994.86 1981.74 1995.22 1982.38 1995.68C1983.47 1996.48 1984.02 1997.65 1984.02 1999.18C1984.02 2001.09 1983.32 2002.45 1981.93 2003.27C1980.55 2004.09 1978.94 2004.5 1977.1 2004.5C1974.96 2004.5 1973.29 2003.96 1972.07 2002.86C1970.86 2001.78 1970.27 2000.3 1970.29 1998.45H1972.48ZM1987.19 1986.79H1999.74V1988.89H1989.46V1994.12H1998.97V1996.11H1989.46V2001.95H1999.92V2004H1987.19V1986.79ZM2004.5 1998.45C2004.55 1999.42 2004.79 2000.21 2005.19 2000.82C2005.96 2001.96 2007.33 2002.54 2009.28 2002.54C2010.16 2002.54 2010.95 2002.41 2011.67 2002.16C2013.06 2001.68 2013.76 2000.81 2013.76 1999.56C2013.76 1998.62 2013.46 1997.95 2012.88 1997.55C2012.29 1997.16 2011.36 1996.82 2010.09 1996.54L2007.76 1996.01C2006.23 1995.66 2005.16 1995.29 2004.52 1994.87C2003.43 1994.15 2002.88 1993.08 2002.88 1991.65C2002.88 1990.1 2003.42 1988.83 2004.49 1987.84C2005.56 1986.85 2007.07 1986.35 2009.04 1986.35C2010.84 1986.35 2012.37 1986.79 2013.63 1987.66C2014.89 1988.53 2015.53 1989.92 2015.53 1991.84H2013.34C2013.22 1990.91 2012.97 1990.21 2012.59 1989.71C2011.88 1988.82 2010.67 1988.37 2008.96 1988.37C2007.59 1988.37 2006.6 1988.66 2006 1989.23C2005.4 1989.81 2005.1 1990.48 2005.1 1991.25C2005.1 1992.09 2005.45 1992.71 2006.15 1993.1C2006.61 1993.35 2007.66 1993.66 2009.28 1994.04L2011.7 1994.59C2012.86 1994.86 2013.76 1995.22 2014.39 1995.68C2015.48 1996.48 2016.03 1997.65 2016.03 1999.18C2016.03 2001.09 2015.34 2002.45 2013.95 2003.27C2012.56 2004.09 2010.95 2004.5 2009.12 2004.5C2006.98 2004.5 2005.3 2003.96 2004.09 2002.86C2002.88 2001.78 2002.29 2000.3 2002.31 1998.45H2004.5ZM2019.15 2006.45C2019.69 2006.36 2020.07 2005.98 2020.29 2005.31C2020.4 2004.96 2020.46 2004.62 2020.46 2004.29C2020.46 2004.24 2020.46 2004.19 2020.45 2004.14C2020.45 2004.1 2020.44 2004.05 2020.43 2004H2019.15V2001.45H2021.66V2003.81C2021.66 2004.74 2021.47 2005.56 2021.09 2006.26C2020.72 2006.96 2020.07 2007.4 2019.15 2007.56V2006.45ZM2039.87 1996.95L2037.25 1989.34L2034.48 1996.95H2039.87ZM2036.04 1986.79H2038.67L2044.92 2004H2042.36L2040.62 1998.84H2033.81L2031.95 2004H2029.55L2036.04 1986.79ZM2053.65 2002.01C2054.44 2002.01 2055.09 2001.93 2055.59 2001.76C2056.5 2001.46 2057.24 2000.87 2057.82 2000C2058.28 1999.31 2058.61 1998.42 2058.82 1997.33C2058.93 1996.68 2058.99 1996.08 2058.99 1995.53C2058.99 1993.39 2058.57 1991.74 2057.71 1990.56C2056.87 1989.38 2055.51 1988.79 2053.62 1988.79H2049.49V2002.01H2053.65ZM2047.14 1986.79H2054.12C2056.48 1986.79 2058.32 1987.62 2059.62 1989.3C2060.79 1990.82 2061.37 1992.76 2061.37 1995.13C2061.37 1996.96 2061.03 1998.61 2060.34 2000.09C2059.13 2002.7 2057.05 2004 2054.09 2004H2047.14V1986.79ZM2070.99 2002.01C2071.78 2002.01 2072.43 2001.93 2072.94 2001.76C2073.84 2001.46 2074.59 2000.87 2075.16 2000C2075.62 1999.31 2075.96 1998.42 2076.16 1997.33C2076.28 1996.68 2076.34 1996.08 2076.34 1995.53C2076.34 1993.39 2075.91 1991.74 2075.06 1990.56C2074.21 1989.38 2072.85 1988.79 2070.97 1988.79H2066.83V2002.01H2070.99ZM2064.49 1986.79H2071.46C2073.83 1986.79 2075.66 1987.62 2076.97 1989.3C2078.13 1990.82 2078.71 1992.76 2078.71 1995.13C2078.71 1996.96 2078.37 1998.61 2077.68 2000.09C2076.47 2002.7 2074.39 2004 2071.44 2004H2064.49V1986.79ZM2088.63 1986.79H2100.57V1988.89H2090.96V1994.12H2099.41V1996.17H2090.96V2004H2088.63V1986.79ZM2103.61 1986.79H2105.96V2004H2103.61V1986.79ZM2109.76 1986.79H2112.09V2001.95H2120.81V2004H2109.76V1986.79ZM2123.34 1986.79H2135.89V1988.89H2125.61V1994.12H2135.12V1996.11H2125.61V2001.95H2136.07V2004H2123.34V1986.79ZM2140.65 1998.45C2140.7 1999.42 2140.93 2000.21 2141.34 2000.82C2142.11 2001.96 2143.48 2002.54 2145.43 2002.54C2146.3 2002.54 2147.1 2002.41 2147.82 2002.16C2149.21 2001.68 2149.91 2000.81 2149.91 1999.56C2149.91 1998.62 2149.61 1997.95 2149.03 1997.55C2148.43 1997.16 2147.5 1996.82 2146.24 1996.54L2143.91 1996.01C2142.38 1995.66 2141.3 1995.29 2140.67 1994.87C2139.58 1994.15 2139.03 1993.08 2139.03 1991.65C2139.03 1990.1 2139.57 1988.83 2140.64 1987.84C2141.71 1986.85 2143.22 1986.35 2145.18 1986.35C2146.99 1986.35 2148.52 1986.79 2149.78 1987.66C2151.04 1988.53 2151.68 1989.92 2151.68 1991.84H2149.48C2149.37 1990.91 2149.12 1990.21 2148.73 1989.71C2148.02 1988.82 2146.82 1988.37 2145.11 1988.37C2143.74 1988.37 2142.75 1988.66 2142.15 1989.23C2141.55 1989.81 2141.25 1990.48 2141.25 1991.25C2141.25 1992.09 2141.6 1992.71 2142.3 1993.1C2142.76 1993.35 2143.8 1993.66 2145.43 1994.04L2147.84 1994.59C2149.01 1994.86 2149.91 1995.22 2150.54 1995.68C2151.63 1996.48 2152.18 1997.65 2152.18 1999.18C2152.18 2001.09 2151.48 2002.45 2150.09 2003.27C2148.71 2004.09 2147.1 2004.5 2145.27 2004.5C2143.12 2004.5 2141.45 2003.96 2140.24 2002.86C2139.03 2001.78 2138.43 2000.3 2138.46 1998.45H2140.65ZM2173.92 1986.79V1988.84H2168.12V2004H2165.75V1988.84H2159.95V1986.79H2173.92ZM2183.07 1986.32C2186.11 1986.32 2188.36 1987.29 2189.82 1989.25C2190.96 1990.77 2191.53 1992.72 2191.53 1995.09C2191.53 1997.66 2190.88 1999.8 2189.57 2001.5C2188.04 2003.5 2185.86 2004.5 2183.02 2004.5C2180.38 2004.5 2178.29 2003.63 2176.78 2001.88C2175.43 2000.19 2174.75 1998.06 2174.75 1995.48C2174.75 1993.15 2175.33 1991.16 2176.48 1989.5C2177.97 1987.38 2180.16 1986.32 2183.07 1986.32ZM2183.3 2002.42C2185.36 2002.42 2186.84 2001.68 2187.76 2000.21C2188.68 1998.74 2189.14 1997.04 2189.14 1995.13C2189.14 1993.11 2188.61 1991.48 2187.55 1990.24C2186.49 1989.01 2185.05 1988.39 2183.21 1988.39C2181.43 1988.39 2179.98 1989 2178.85 1990.23C2177.73 1991.45 2177.16 1993.25 2177.16 1995.63C2177.16 1997.54 2177.64 1999.15 2178.61 2000.46C2179.57 2001.77 2181.14 2002.42 2183.3 2002.42ZM2201 1986.79H2203.75L2212.45 2000.73V1986.79H2214.66V2004H2212.05L2203.23 1990.07V2004H2201V1986.79ZM2227.18 1996.95L2224.57 1989.34L2221.79 1996.95H2227.18ZM2223.35 1986.79H2225.98L2232.23 2004H2229.68L2227.93 1998.84H2221.12L2219.26 2004H2216.87L2223.35 1986.79ZM2234.29 1986.79H2237.63L2242.58 2001.34L2247.49 1986.79H2250.79V2004H2248.58V1993.84C2248.58 1993.49 2248.59 1992.91 2248.6 1992.09C2248.62 1991.28 2248.62 1990.41 2248.62 1989.48L2243.71 2004H2241.41L2236.46 1989.48V1990.01C2236.46 1990.43 2236.47 1991.07 2236.48 1991.94C2236.51 1992.8 2236.52 1993.43 2236.52 1993.84V2004H2234.29V1986.79ZM2254.57 1986.79H2267.12V1988.89H2256.84V1994.12H2266.34V1996.11H2256.84V2001.95H2267.29V2004H2254.57V1986.79Z" fill="black"/>
<path d="M947.105 506.197H945.105V510.197H947.105V506.197ZM1355.91 509.611C1356.69 508.83 1356.69 507.564 1355.91 506.783L1343.18 494.055C1342.4 493.274 1341.14 493.274 1340.36 494.055C1339.58 494.836 1339.58 496.103 1340.36 496.884L1351.67 508.197L1340.36 519.511C1339.58 520.292 1339.58 521.558 1340.36 522.339C1341.14 523.12 1342.4 523.12 1343.18 522.339L1355.91 509.611ZM947.105 510.197H1354.5V506.197H947.105V510.197Z" fill="black"/>
<path d="M946.562 763.111H944.562V767.111H946.562V763.111ZM1355.91 766.526C1356.7 765.744 1356.7 764.478 1355.91 763.697L1343.19 750.969C1342.41 750.188 1341.14 750.188 1340.36 750.969C1339.58 751.75 1339.58 753.017 1340.36 753.798L1351.67 765.111L1340.36 776.425C1339.58 777.206 1339.58 778.472 1340.36 779.253C1341.14 780.035 1342.41 780.035 1343.19 779.253L1355.91 766.526ZM946.562 767.111H1354.5V763.111H946.562V767.111Z" fill="black"/>
<path d="M1751.05 197.785H1758.8C1760.33 197.785 1761.56 198.219 1762.5 199.086C1763.44 199.945 1763.91 201.156 1763.91 202.719C1763.91 204.062 1763.49 205.234 1762.65 206.234C1761.82 207.227 1760.53 207.723 1758.8 207.723H1753.38V215H1751.05V197.785ZM1761.55 202.73C1761.55 201.465 1761.08 200.605 1760.14 200.152C1759.63 199.91 1758.92 199.789 1758.02 199.789H1753.38V205.754H1758.02C1759.07 205.754 1759.92 205.531 1760.57 205.086C1761.22 204.641 1761.55 203.855 1761.55 202.73ZM1774.84 205.672C1775.93 205.672 1776.8 205.453 1777.43 205.016C1778.07 204.578 1778.39 203.789 1778.39 202.648C1778.39 201.422 1777.95 200.586 1777.05 200.141C1776.58 199.906 1775.94 199.789 1775.14 199.789H1769.45V205.672H1774.84ZM1767.12 197.785H1775.09C1776.4 197.785 1777.48 197.977 1778.33 198.359C1779.95 199.094 1780.76 200.449 1780.76 202.426C1780.76 203.457 1780.54 204.301 1780.11 204.957C1779.69 205.613 1779.1 206.141 1778.33 206.539C1779 206.812 1779.51 207.172 1779.84 207.617C1780.19 208.062 1780.38 208.785 1780.42 209.785L1780.5 212.094C1780.52 212.75 1780.58 213.238 1780.66 213.559C1780.8 214.105 1781.05 214.457 1781.41 214.613V215H1778.55C1778.48 214.852 1778.41 214.66 1778.37 214.426C1778.32 214.191 1778.28 213.738 1778.25 213.066L1778.11 210.195C1778.05 209.07 1777.64 208.316 1776.86 207.934C1776.41 207.723 1775.71 207.617 1774.76 207.617H1769.45V215H1767.12V197.785ZM1791.61 197.316C1794.65 197.316 1796.9 198.293 1798.36 200.246C1799.5 201.77 1800.07 203.719 1800.07 206.094C1800.07 208.664 1799.42 210.801 1798.11 212.504C1796.58 214.504 1794.4 215.504 1791.56 215.504C1788.91 215.504 1786.83 214.629 1785.32 212.879C1783.96 211.191 1783.29 209.059 1783.29 206.48C1783.29 204.152 1783.87 202.16 1785.02 200.504C1786.51 198.379 1788.7 197.316 1791.61 197.316ZM1791.84 213.418C1793.9 213.418 1795.38 212.684 1796.3 211.215C1797.22 209.738 1797.68 208.043 1797.68 206.129C1797.68 204.105 1797.15 202.477 1796.09 201.242C1795.03 200.008 1793.59 199.391 1791.75 199.391C1789.97 199.391 1788.52 200.004 1787.39 201.23C1786.27 202.449 1785.7 204.25 1785.7 206.633C1785.7 208.539 1786.18 210.148 1787.14 211.461C1788.11 212.766 1789.68 213.418 1791.84 213.418ZM1811.31 209.867C1811.31 211.32 1811.09 212.449 1810.66 213.254C1809.87 214.723 1808.35 215.457 1806.12 215.457C1804.83 215.457 1803.73 215.109 1802.81 214.414C1801.9 213.711 1801.44 212.465 1801.44 210.676V209.445H1803.63V210.676C1803.63 211.613 1803.84 212.32 1804.25 212.797C1804.68 213.266 1805.33 213.5 1806.21 213.5C1807.45 213.5 1808.27 213.074 1808.65 212.223C1808.88 211.699 1809 210.711 1809 209.258V197.785H1811.31V209.867ZM1815.08 197.785H1827.63V199.895H1817.36V205.121H1826.86V207.113H1817.36V212.949H1827.81V215H1815.08V197.785ZM1838.12 197.316C1840.3 197.316 1841.99 197.891 1843.2 199.039C1844.4 200.188 1845.07 201.492 1845.2 202.953H1842.93C1842.67 201.844 1842.15 200.965 1841.38 200.316C1840.61 199.668 1839.54 199.344 1838.14 199.344C1836.45 199.344 1835.08 199.941 1834.03 201.137C1832.99 202.324 1832.47 204.148 1832.47 206.609C1832.47 208.625 1832.94 210.262 1833.88 211.52C1834.82 212.77 1836.23 213.395 1838.1 213.395C1839.82 213.395 1841.12 212.734 1842.02 211.414C1842.5 210.719 1842.86 209.805 1843.09 208.672H1845.36C1845.16 210.484 1844.49 212.004 1843.35 213.23C1841.98 214.707 1840.14 215.445 1837.82 215.445C1835.82 215.445 1834.14 214.84 1832.78 213.629C1830.99 212.027 1830.09 209.555 1830.09 206.211C1830.09 203.672 1830.77 201.59 1832.11 199.965C1833.56 198.199 1835.57 197.316 1838.12 197.316ZM1860.74 197.785V199.836H1854.94V215H1852.57V199.836H1846.77V197.785H1860.74ZM1869.36 197.785H1877.11C1878.64 197.785 1879.88 198.219 1880.81 199.086C1881.75 199.945 1882.22 201.156 1882.22 202.719C1882.22 204.062 1881.8 205.234 1880.96 206.234C1880.13 207.227 1878.84 207.723 1877.11 207.723H1871.7V215H1869.36V197.785ZM1879.86 202.73C1879.86 201.465 1879.39 200.605 1878.46 200.152C1877.94 199.91 1877.23 199.789 1876.34 199.789H1871.7V205.754H1876.34C1877.38 205.754 1878.23 205.531 1878.88 205.086C1879.54 204.641 1879.86 203.855 1879.86 202.73ZM1892.2 207.945L1889.59 200.34L1886.81 207.945H1892.2ZM1888.37 197.785H1891.01L1897.25 215H1894.7L1892.95 209.844H1886.14L1884.28 215H1881.89L1888.37 197.785ZM1906.82 197.34C1908.43 197.34 1909.83 197.652 1911.01 198.277C1912.72 199.176 1913.77 200.75 1914.15 203H1911.84C1911.56 201.742 1910.98 200.828 1910.1 200.258C1909.21 199.68 1908.1 199.391 1906.76 199.391C1905.16 199.391 1903.82 199.988 1902.73 201.184C1901.64 202.379 1901.1 204.16 1901.1 206.527C1901.1 208.574 1901.55 210.242 1902.45 211.531C1903.34 212.812 1904.81 213.453 1906.84 213.453C1908.39 213.453 1909.68 213.004 1910.7 212.105C1911.72 211.199 1912.24 209.738 1912.27 207.723H1906.88V205.789H1914.43V215H1912.93L1912.37 212.785C1911.58 213.652 1910.88 214.254 1910.27 214.59C1909.25 215.168 1907.95 215.457 1906.37 215.457C1904.33 215.457 1902.58 214.797 1901.11 213.477C1899.51 211.82 1898.71 209.547 1898.71 206.656C1898.71 203.773 1899.49 201.48 1901.05 199.777C1902.54 198.152 1904.46 197.34 1906.82 197.34ZM1918.28 197.785H1930.83V199.895H1920.55V205.121H1930.05V207.113H1920.55V212.949H1931V215H1918.28V197.785Z" fill="black"/>
<path d="M805.051 1113.79H812.797C814.328 1113.79 815.562 1114.22 816.5 1115.09C817.438 1115.95 817.906 1117.16 817.906 1118.72C817.906 1120.06 817.488 1121.23 816.652 1122.23C815.816 1123.23 814.531 1123.72 812.797 1123.72H807.383V1131H805.051V1113.79ZM815.551 1118.73C815.551 1117.46 815.082 1116.61 814.145 1116.15C813.629 1115.91 812.922 1115.79 812.023 1115.79H807.383V1121.75H812.023C813.07 1121.75 813.918 1121.53 814.566 1121.09C815.223 1120.64 815.551 1119.86 815.551 1118.73ZM828.266 1113.32C831.305 1113.32 833.555 1114.29 835.016 1116.25C836.156 1117.77 836.727 1119.72 836.727 1122.09C836.727 1124.66 836.074 1126.8 834.77 1128.5C833.238 1130.5 831.055 1131.5 828.219 1131.5C825.57 1131.5 823.488 1130.63 821.973 1128.88C820.621 1127.19 819.945 1125.06 819.945 1122.48C819.945 1120.15 820.523 1118.16 821.68 1116.5C823.164 1114.38 825.359 1113.32 828.266 1113.32ZM828.5 1129.42C830.555 1129.42 832.039 1128.68 832.953 1127.21C833.875 1125.74 834.336 1124.04 834.336 1122.13C834.336 1120.11 833.805 1118.48 832.742 1117.24C831.688 1116.01 830.242 1115.39 828.406 1115.39C826.625 1115.39 825.172 1116 824.047 1117.23C822.922 1118.45 822.359 1120.25 822.359 1122.63C822.359 1124.54 822.84 1126.15 823.801 1127.46C824.77 1128.77 826.336 1129.42 828.5 1129.42ZM841.039 1125.45C841.094 1126.42 841.324 1127.21 841.73 1127.82C842.504 1128.96 843.867 1129.54 845.82 1129.54C846.695 1129.54 847.492 1129.41 848.211 1129.16C849.602 1128.68 850.297 1127.81 850.297 1126.56C850.297 1125.62 850.004 1124.95 849.418 1124.55C848.824 1124.16 847.895 1123.82 846.629 1123.54L844.297 1123.01C842.773 1122.66 841.695 1122.29 841.062 1121.87C839.969 1121.15 839.422 1120.08 839.422 1118.65C839.422 1117.1 839.957 1115.83 841.027 1114.84C842.098 1113.85 843.613 1113.35 845.574 1113.35C847.379 1113.35 848.91 1113.79 850.168 1114.66C851.434 1115.53 852.066 1116.92 852.066 1118.84H849.875C849.758 1117.91 849.508 1117.21 849.125 1116.71C848.414 1115.82 847.207 1115.37 845.504 1115.37C844.129 1115.37 843.141 1115.66 842.539 1116.23C841.938 1116.81 841.637 1117.48 841.637 1118.25C841.637 1119.09 841.988 1119.71 842.691 1120.1C843.152 1120.35 844.195 1120.66 845.82 1121.04L848.234 1121.59C849.398 1121.86 850.297 1122.22 850.93 1122.68C852.023 1123.48 852.57 1124.65 852.57 1126.18C852.57 1128.09 851.875 1129.45 850.484 1130.27C849.102 1131.09 847.492 1131.5 845.656 1131.5C843.516 1131.5 841.84 1130.96 840.629 1129.86C839.418 1128.78 838.824 1127.3 838.848 1125.45H841.039ZM855.746 1113.79H868.297V1115.89H858.02V1121.12H867.523V1123.11H858.02V1128.95H868.473V1131H855.746V1113.79ZM873.055 1125.45C873.109 1126.42 873.34 1127.21 873.746 1127.82C874.52 1128.96 875.883 1129.54 877.836 1129.54C878.711 1129.54 879.508 1129.41 880.227 1129.16C881.617 1128.68 882.312 1127.81 882.312 1126.56C882.312 1125.62 882.02 1124.95 881.434 1124.55C880.84 1124.16 879.91 1123.82 878.645 1123.54L876.312 1123.01C874.789 1122.66 873.711 1122.29 873.078 1121.87C871.984 1121.15 871.438 1120.08 871.438 1118.65C871.438 1117.1 871.973 1115.83 873.043 1114.84C874.113 1113.85 875.629 1113.35 877.59 1113.35C879.395 1113.35 880.926 1113.79 882.184 1114.66C883.449 1115.53 884.082 1116.92 884.082 1118.84H881.891C881.773 1117.91 881.523 1117.21 881.141 1116.71C880.43 1115.82 879.223 1115.37 877.52 1115.37C876.145 1115.37 875.156 1115.66 874.555 1116.23C873.953 1116.81 873.652 1117.48 873.652 1118.25C873.652 1119.09 874.004 1119.71 874.707 1120.1C875.168 1120.35 876.211 1120.66 877.836 1121.04L880.25 1121.59C881.414 1121.86 882.312 1122.22 882.945 1122.68C884.039 1123.48 884.586 1124.65 884.586 1126.18C884.586 1128.09 883.891 1129.45 882.5 1130.27C881.117 1131.09 879.508 1131.5 877.672 1131.5C875.531 1131.5 873.855 1130.96 872.645 1129.86C871.434 1128.78 870.84 1127.3 870.863 1125.45H873.055Z" fill="black"/>
<path d="M620.051 756.785H627.797C629.328 756.785 630.562 757.219 631.5 758.086C632.438 758.945 632.906 760.156 632.906 761.719C632.906 763.062 632.488 764.234 631.652 765.234C630.816 766.227 629.531 766.723 627.797 766.723H622.383V774H620.051V756.785ZM630.551 761.73C630.551 760.465 630.082 759.605 629.145 759.152C628.629 758.91 627.922 758.789 627.023 758.789H622.383V764.754H627.023C628.07 764.754 628.918 764.531 629.566 764.086C630.223 763.641 630.551 762.855 630.551 761.73ZM642.891 766.945L640.277 759.34L637.5 766.945H642.891ZM639.059 756.785H641.695L647.941 774H645.387L643.641 768.844H636.832L634.969 774H632.578L639.059 756.785ZM660.809 756.785V758.836H655.008V774H652.641V758.836H646.84V756.785H660.809ZM675.48 756.785V758.836H669.68V774H667.312V758.836H661.512V756.785H675.48ZM677.848 756.785H690.398V758.895H680.121V764.121H689.625V766.113H680.121V771.949H690.574V774H677.848V756.785ZM701.637 764.672C702.73 764.672 703.594 764.453 704.227 764.016C704.867 763.578 705.188 762.789 705.188 761.648C705.188 760.422 704.742 759.586 703.852 759.141C703.375 758.906 702.738 758.789 701.941 758.789H696.246V764.672H701.637ZM693.914 756.785H701.883C703.195 756.785 704.277 756.977 705.129 757.359C706.746 758.094 707.555 759.449 707.555 761.426C707.555 762.457 707.34 763.301 706.91 763.957C706.488 764.613 705.895 765.141 705.129 765.539C705.801 765.812 706.305 766.172 706.641 766.617C706.984 767.062 707.176 767.785 707.215 768.785L707.297 771.094C707.32 771.75 707.375 772.238 707.461 772.559C707.602 773.105 707.852 773.457 708.211 773.613V774H705.352C705.273 773.852 705.211 773.66 705.164 773.426C705.117 773.191 705.078 772.738 705.047 772.066L704.906 769.195C704.852 768.07 704.434 767.316 703.652 766.934C703.207 766.723 702.508 766.617 701.555 766.617H696.246V774H693.914V756.785ZM710.977 756.785H713.73L722.426 770.73V756.785H724.641V774H722.027L713.203 760.066V774H710.977V756.785ZM729.844 768.445C729.898 769.422 730.129 770.215 730.535 770.824C731.309 771.965 732.672 772.535 734.625 772.535C735.5 772.535 736.297 772.41 737.016 772.16C738.406 771.676 739.102 770.809 739.102 769.559C739.102 768.621 738.809 767.953 738.223 767.555C737.629 767.164 736.699 766.824 735.434 766.535L733.102 766.008C731.578 765.664 730.5 765.285 729.867 764.871C728.773 764.152 728.227 763.078 728.227 761.648C728.227 760.102 728.762 758.832 729.832 757.84C730.902 756.848 732.418 756.352 734.379 756.352C736.184 756.352 737.715 756.789 738.973 757.664C740.238 758.531 740.871 759.922 740.871 761.836H738.68C738.562 760.914 738.312 760.207 737.93 759.715C737.219 758.816 736.012 758.367 734.309 758.367C732.934 758.367 731.945 758.656 731.344 759.234C730.742 759.812 730.441 760.484 730.441 761.25C730.441 762.094 730.793 762.711 731.496 763.102C731.957 763.352 733 763.664 734.625 764.039L737.039 764.59C738.203 764.855 739.102 765.219 739.734 765.68C740.828 766.484 741.375 767.652 741.375 769.184C741.375 771.09 740.68 772.453 739.289 773.273C737.906 774.094 736.297 774.504 734.461 774.504C732.32 774.504 730.645 773.957 729.434 772.863C728.223 771.777 727.629 770.305 727.652 768.445H729.844ZM751.23 756.785H758.977C760.508 756.785 761.742 757.219 762.68 758.086C763.617 758.945 764.086 760.156 764.086 761.719C764.086 763.062 763.668 764.234 762.832 765.234C761.996 766.227 760.711 766.723 758.977 766.723H753.562V774H751.23V756.785ZM761.73 761.73C761.73 760.465 761.262 759.605 760.324 759.152C759.809 758.91 759.102 758.789 758.203 758.789H753.562V764.754H758.203C759.25 764.754 760.098 764.531 760.746 764.086C761.402 763.641 761.73 762.855 761.73 761.73ZM767.238 756.785H779.789V758.895H769.512V764.121H779.016V766.113H769.512V771.949H779.965V774H767.238V756.785ZM791.027 764.672C792.121 764.672 792.984 764.453 793.617 764.016C794.258 763.578 794.578 762.789 794.578 761.648C794.578 760.422 794.133 759.586 793.242 759.141C792.766 758.906 792.129 758.789 791.332 758.789H785.637V764.672H791.027ZM783.305 756.785H791.273C792.586 756.785 793.668 756.977 794.52 757.359C796.137 758.094 796.945 759.449 796.945 761.426C796.945 762.457 796.73 763.301 796.301 763.957C795.879 764.613 795.285 765.141 794.52 765.539C795.191 765.812 795.695 766.172 796.031 766.617C796.375 767.062 796.566 767.785 796.605 768.785L796.688 771.094C796.711 771.75 796.766 772.238 796.852 772.559C796.992 773.105 797.242 773.457 797.602 773.613V774H794.742C794.664 773.852 794.602 773.66 794.555 773.426C794.508 773.191 794.469 772.738 794.438 772.066L794.297 769.195C794.242 768.07 793.824 767.316 793.043 766.934C792.598 766.723 791.898 766.617 790.945 766.617H785.637V774H783.305V756.785ZM813.516 764.062C814.5 764.062 815.266 763.926 815.812 763.652C816.672 763.223 817.102 762.449 817.102 761.332C817.102 760.207 816.645 759.449 815.73 759.059C815.215 758.84 814.449 758.73 813.434 758.73H809.273V764.062H813.516ZM814.301 772.008C815.73 772.008 816.75 771.594 817.359 770.766C817.742 770.242 817.934 769.609 817.934 768.867C817.934 767.617 817.375 766.766 816.258 766.312C815.664 766.07 814.879 765.949 813.902 765.949H809.273V772.008H814.301ZM806.988 756.785H814.383C816.398 756.785 817.832 757.387 818.684 758.59C819.184 759.301 819.434 760.121 819.434 761.051C819.434 762.137 819.125 763.027 818.508 763.723C818.188 764.09 817.727 764.426 817.125 764.73C818.008 765.066 818.668 765.445 819.105 765.867C819.879 766.617 820.266 767.652 820.266 768.973C820.266 770.082 819.918 771.086 819.223 771.984C818.184 773.328 816.531 774 814.266 774H806.988V756.785ZM831.059 764.672C832.152 764.672 833.016 764.453 833.648 764.016C834.289 763.578 834.609 762.789 834.609 761.648C834.609 760.422 834.164 759.586 833.273 759.141C832.797 758.906 832.16 758.789 831.363 758.789H825.668V764.672H831.059ZM823.336 756.785H831.305C832.617 756.785 833.699 756.977 834.551 757.359C836.168 758.094 836.977 759.449 836.977 761.426C836.977 762.457 836.762 763.301 836.332 763.957C835.91 764.613 835.316 765.141 834.551 765.539C835.223 765.812 835.727 766.172 836.062 766.617C836.406 767.062 836.598 767.785 836.637 768.785L836.719 771.094C836.742 771.75 836.797 772.238 836.883 772.559C837.023 773.105 837.273 773.457 837.633 773.613V774H834.773C834.695 773.852 834.633 773.66 834.586 773.426C834.539 773.191 834.5 772.738 834.469 772.066L834.328 769.195C834.273 768.07 833.855 767.316 833.074 766.934C832.629 766.723 831.93 766.617 830.977 766.617H825.668V774H823.336V756.785ZM849.234 766.945L846.621 759.34L843.844 766.945H849.234ZM845.402 756.785H848.039L854.285 774H851.73L849.984 768.844H843.176L841.312 774H838.922L845.402 756.785ZM856.406 756.785H859.16L867.855 770.73V756.785H870.07V774H867.457L858.633 760.066V774H856.406V756.785ZM880.359 772.008C881.148 772.008 881.797 771.926 882.305 771.762C883.211 771.457 883.953 770.871 884.531 770.004C884.992 769.309 885.324 768.418 885.527 767.332C885.645 766.684 885.703 766.082 885.703 765.527C885.703 763.395 885.277 761.738 884.426 760.559C883.582 759.379 882.219 758.789 880.336 758.789H876.199V772.008H880.359ZM873.855 756.785H880.828C883.195 756.785 885.031 757.625 886.336 759.305C887.5 760.82 888.082 762.762 888.082 765.129C888.082 766.957 887.738 768.609 887.051 770.086C885.84 772.695 883.758 774 880.805 774H873.855V756.785Z" fill="black"/>
<path d="M950.176 1120.48H948.176V1124.48H950.176V1120.48ZM1355.91 1123.9C1356.69 1123.12 1356.69 1121.85 1355.91 1121.07L1343.18 1108.34C1342.4 1107.56 1341.14 1107.56 1340.36 1108.34C1339.57 1109.12 1339.57 1110.39 1340.36 1111.17L1351.67 1122.48L1340.36 1133.8C1339.57 1134.58 1339.57 1135.84 1340.36 1136.62C1341.14 1137.41 1342.4 1137.41 1343.18 1136.62L1355.91 1123.9ZM950.176 1124.48H1354.5V1120.48H950.176V1124.48Z" fill="black"/>
<path d="M950.473 1294.99H948.473V1298.99H950.473V1294.99ZM1355.92 1298.41C1356.7 1297.63 1356.7 1296.36 1355.92 1295.58L1343.19 1282.85C1342.41 1282.07 1341.14 1282.07 1340.36 1282.85C1339.58 1283.63 1339.58 1284.9 1340.36 1285.68L1351.67 1296.99L1340.36 1308.31C1339.58 1309.09 1339.58 1310.36 1340.36 1311.14C1341.14 1311.92 1342.41 1311.92 1343.19 1311.14L1355.92 1298.41ZM950.473 1298.99H1354.5V1294.99H950.473V1298.99Z" fill="black"/>
<path d="M949.223 1596.3H947.223V1600.3H949.223V1596.3ZM1355.91 1599.72C1356.7 1598.94 1356.7 1597.67 1355.91 1596.89L1343.19 1584.16C1342.41 1583.38 1341.14 1583.38 1340.36 1584.16C1339.58 1584.94 1339.58 1586.21 1340.36 1586.99L1351.67 1598.3L1340.36 1609.62C1339.58 1610.4 1339.58 1611.67 1340.36 1612.45C1341.14 1613.23 1342.41 1613.23 1343.19 1612.45L1355.91 1599.72ZM949.223 1600.3H1354.5V1596.3H949.223V1600.3Z" fill="black"/>
<path d="M624.051 1287.79H636.602V1289.89H626.324V1295.12H635.828V1297.11H626.324V1302.95H636.777V1305H624.051V1287.79ZM646.445 1303.01C647.234 1303.01 647.883 1302.93 648.391 1302.76C649.297 1302.46 650.039 1301.87 650.617 1301C651.078 1300.31 651.41 1299.42 651.613 1298.33C651.73 1297.68 651.789 1297.08 651.789 1296.53C651.789 1294.39 651.363 1292.74 650.512 1291.56C649.668 1290.38 648.305 1289.79 646.422 1289.79H642.285V1303.01H646.445ZM639.941 1287.79H646.914C649.281 1287.79 651.117 1288.62 652.422 1290.3C653.586 1291.82 654.168 1293.76 654.168 1296.13C654.168 1297.96 653.824 1299.61 653.137 1301.09C651.926 1303.7 649.844 1305 646.891 1305H639.941V1287.79ZM657.707 1287.79H660.062V1305H657.707V1287.79ZM676.387 1287.79V1289.84H670.586V1305H668.219V1289.84H662.418V1287.79H676.387ZM685.586 1297.95L682.973 1290.34L680.195 1297.95H685.586ZM681.754 1287.79H684.391L690.637 1305H688.082L686.336 1299.84H679.527L677.664 1305H675.273L681.754 1287.79ZM699.227 1295.06C700.211 1295.06 700.977 1294.93 701.523 1294.65C702.383 1294.22 702.812 1293.45 702.812 1292.33C702.812 1291.21 702.355 1290.45 701.441 1290.06C700.926 1289.84 700.16 1289.73 699.145 1289.73H694.984V1295.06H699.227ZM700.012 1303.01C701.441 1303.01 702.461 1302.59 703.07 1301.77C703.453 1301.24 703.645 1300.61 703.645 1299.87C703.645 1298.62 703.086 1297.77 701.969 1297.31C701.375 1297.07 700.59 1296.95 699.613 1296.95H694.984V1303.01H700.012ZM692.699 1287.79H700.094C702.109 1287.79 703.543 1288.39 704.395 1289.59C704.895 1290.3 705.145 1291.12 705.145 1292.05C705.145 1293.14 704.836 1294.03 704.219 1294.72C703.898 1295.09 703.438 1295.43 702.836 1295.73C703.719 1296.07 704.379 1296.45 704.816 1296.87C705.59 1297.62 705.977 1298.65 705.977 1299.97C705.977 1301.08 705.629 1302.09 704.934 1302.98C703.895 1304.33 702.242 1305 699.977 1305H692.699V1287.79ZM708.766 1287.79H711.098V1302.95H719.816V1305H708.766V1287.79ZM722.348 1287.79H734.898V1289.89H724.621V1295.12H734.125V1297.11H724.621V1302.95H735.074V1305H722.348V1287.79ZM745.035 1287.79H752.781C754.312 1287.79 755.547 1288.22 756.484 1289.09C757.422 1289.95 757.891 1291.16 757.891 1292.72C757.891 1294.06 757.473 1295.23 756.637 1296.23C755.801 1297.23 754.516 1297.72 752.781 1297.72H747.367V1305H745.035V1287.79ZM755.535 1292.73C755.535 1291.46 755.066 1290.61 754.129 1290.15C753.613 1289.91 752.906 1289.79 752.008 1289.79H747.367V1295.75H752.008C753.055 1295.75 753.902 1295.53 754.551 1295.09C755.207 1294.64 755.535 1293.86 755.535 1292.73ZM768.25 1287.32C771.289 1287.32 773.539 1288.29 775 1290.25C776.141 1291.77 776.711 1293.72 776.711 1296.09C776.711 1298.66 776.059 1300.8 774.754 1302.5C773.223 1304.5 771.039 1305.5 768.203 1305.5C765.555 1305.5 763.473 1304.63 761.957 1302.88C760.605 1301.19 759.93 1299.06 759.93 1296.48C759.93 1294.15 760.508 1292.16 761.664 1290.5C763.148 1288.38 765.344 1287.32 768.25 1287.32ZM768.484 1303.42C770.539 1303.42 772.023 1302.68 772.938 1301.21C773.859 1299.74 774.32 1298.04 774.32 1296.13C774.32 1294.11 773.789 1292.48 772.727 1291.24C771.672 1290.01 770.227 1289.39 768.391 1289.39C766.609 1289.39 765.156 1290 764.031 1291.23C762.906 1292.45 762.344 1294.25 762.344 1296.63C762.344 1298.54 762.824 1300.15 763.785 1301.46C764.754 1302.77 766.32 1303.42 768.484 1303.42ZM781.023 1299.45C781.078 1300.42 781.309 1301.21 781.715 1301.82C782.488 1302.96 783.852 1303.54 785.805 1303.54C786.68 1303.54 787.477 1303.41 788.195 1303.16C789.586 1302.68 790.281 1301.81 790.281 1300.56C790.281 1299.62 789.988 1298.95 789.402 1298.55C788.809 1298.16 787.879 1297.82 786.613 1297.54L784.281 1297.01C782.758 1296.66 781.68 1296.29 781.047 1295.87C779.953 1295.15 779.406 1294.08 779.406 1292.65C779.406 1291.1 779.941 1289.83 781.012 1288.84C782.082 1287.85 783.598 1287.35 785.559 1287.35C787.363 1287.35 788.895 1287.79 790.152 1288.66C791.418 1289.53 792.051 1290.92 792.051 1292.84H789.859C789.742 1291.91 789.492 1291.21 789.109 1290.71C788.398 1289.82 787.191 1289.37 785.488 1289.37C784.113 1289.37 783.125 1289.66 782.523 1290.23C781.922 1290.81 781.621 1291.48 781.621 1292.25C781.621 1293.09 781.973 1293.71 782.676 1294.1C783.137 1294.35 784.18 1294.66 785.805 1295.04L788.219 1295.59C789.383 1295.86 790.281 1296.22 790.914 1296.68C792.008 1297.48 792.555 1298.65 792.555 1300.18C792.555 1302.09 791.859 1303.45 790.469 1304.27C789.086 1305.09 787.477 1305.5 785.641 1305.5C783.5 1305.5 781.824 1304.96 780.613 1303.86C779.402 1302.78 778.809 1301.3 778.832 1299.45H781.023ZM795.73 1287.79H808.281V1289.89H798.004V1295.12H807.508V1297.11H798.004V1302.95H808.457V1305H795.73V1287.79ZM818.195 1287.79H820.949L829.645 1301.73V1287.79H831.859V1305H829.246L820.422 1291.07V1305H818.195V1287.79ZM844.375 1297.95L841.762 1290.34L838.984 1297.95H844.375ZM840.543 1287.79H843.18L849.426 1305H846.871L845.125 1299.84H838.316L836.453 1305H834.062L840.543 1287.79ZM851.488 1287.79H854.828L859.773 1302.34L864.684 1287.79H867.988V1305H865.773V1294.84C865.773 1294.49 865.781 1293.91 865.797 1293.09C865.812 1292.28 865.82 1291.41 865.82 1290.48L860.91 1305H858.602L853.656 1290.48V1291.01C853.656 1291.43 853.664 1292.07 853.68 1292.94C853.703 1293.8 853.715 1294.43 853.715 1294.84V1305H851.488V1287.79ZM871.762 1287.79H884.312V1289.89H874.035V1295.12H883.539V1297.11H874.035V1302.95H884.488V1305H871.762V1287.79Z" fill="black"/>
<path d="M504.438 1604.01C505.227 1604.01 505.875 1603.93 506.383 1603.76C507.289 1603.46 508.031 1602.87 508.609 1602C509.07 1601.31 509.402 1600.42 509.605 1599.33C509.723 1598.68 509.781 1598.08 509.781 1597.53C509.781 1595.39 509.355 1593.74 508.504 1592.56C507.66 1591.38 506.297 1590.79 504.414 1590.79H500.277V1604.01H504.438ZM497.934 1588.79H504.906C507.273 1588.79 509.109 1589.62 510.414 1591.3C511.578 1592.82 512.16 1594.76 512.16 1597.13C512.16 1598.96 511.816 1600.61 511.129 1602.09C509.918 1604.7 507.836 1606 504.883 1606H497.934V1588.79ZM523.176 1596.67C524.27 1596.67 525.133 1596.45 525.766 1596.02C526.406 1595.58 526.727 1594.79 526.727 1593.65C526.727 1592.42 526.281 1591.59 525.391 1591.14C524.914 1590.91 524.277 1590.79 523.48 1590.79H517.785V1596.67H523.176ZM515.453 1588.79H523.422C524.734 1588.79 525.816 1588.98 526.668 1589.36C528.285 1590.09 529.094 1591.45 529.094 1593.43C529.094 1594.46 528.879 1595.3 528.449 1595.96C528.027 1596.61 527.434 1597.14 526.668 1597.54C527.34 1597.81 527.844 1598.17 528.18 1598.62C528.523 1599.06 528.715 1599.79 528.754 1600.79L528.836 1603.09C528.859 1603.75 528.914 1604.24 529 1604.56C529.141 1605.11 529.391 1605.46 529.75 1605.61V1606H526.891C526.812 1605.85 526.75 1605.66 526.703 1605.43C526.656 1605.19 526.617 1604.74 526.586 1604.07L526.445 1601.2C526.391 1600.07 525.973 1599.32 525.191 1598.93C524.746 1598.72 524.047 1598.62 523.094 1598.62H517.785V1606H515.453V1588.79ZM541.352 1598.95L538.738 1591.34L535.961 1598.95H541.352ZM537.52 1588.79H540.156L546.402 1606H543.848L542.102 1600.84H535.293L533.43 1606H531.039L537.52 1588.79ZM555.965 1588.34C557.582 1588.34 558.98 1588.65 560.16 1589.28C561.871 1590.18 562.918 1591.75 563.301 1594H560.992C560.711 1592.74 560.129 1591.83 559.246 1591.26C558.363 1590.68 557.25 1590.39 555.906 1590.39C554.312 1590.39 552.969 1590.99 551.875 1592.18C550.789 1593.38 550.246 1595.16 550.246 1597.53C550.246 1599.57 550.695 1601.24 551.594 1602.53C552.492 1603.81 553.957 1604.45 555.988 1604.45C557.543 1604.45 558.828 1604 559.844 1603.11C560.867 1602.2 561.391 1600.74 561.414 1598.72H556.023V1596.79H563.582V1606H562.082L561.52 1603.79C560.73 1604.65 560.031 1605.25 559.422 1605.59C558.398 1606.17 557.098 1606.46 555.52 1606.46C553.48 1606.46 551.727 1605.8 550.258 1604.48C548.656 1602.82 547.855 1600.55 547.855 1597.66C547.855 1594.77 548.637 1592.48 550.199 1590.78C551.684 1589.15 553.605 1588.34 555.965 1588.34ZM578.91 1595.48C579.652 1594.95 580.164 1594.53 580.445 1594.2C580.906 1593.67 581.137 1593.08 581.137 1592.43C581.137 1591.92 580.969 1591.48 580.633 1591.12C580.297 1590.75 579.844 1590.57 579.273 1590.57C578.406 1590.57 577.805 1590.86 577.469 1591.43C577.297 1591.73 577.211 1592.05 577.211 1592.41C577.211 1592.88 577.34 1593.34 577.598 1593.78C577.863 1594.21 578.301 1594.78 578.91 1595.48ZM578.371 1604.55C579.238 1604.55 579.984 1604.35 580.609 1603.95C581.234 1603.55 581.715 1603.11 582.051 1602.61L578.16 1597.87C577.059 1598.6 576.34 1599.16 576.004 1599.55C575.488 1600.14 575.23 1600.86 575.23 1601.7C575.23 1602.61 575.562 1603.32 576.227 1603.81C576.898 1604.3 577.613 1604.55 578.371 1604.55ZM576.988 1596.43C576.262 1595.59 575.773 1594.89 575.523 1594.32C575.281 1593.75 575.16 1593.2 575.16 1592.66C575.16 1591.55 575.535 1590.64 576.285 1589.91C577.035 1589.18 578.039 1588.81 579.297 1588.81C580.492 1588.81 581.426 1589.15 582.098 1589.83C582.77 1590.51 583.105 1591.32 583.105 1592.27C583.105 1593.37 582.758 1594.33 582.062 1595.16C581.656 1595.64 580.977 1596.2 580.023 1596.84L583.164 1600.59C583.375 1599.96 583.52 1599.5 583.598 1599.19C583.684 1598.88 583.77 1598.45 583.855 1597.89H585.859C585.727 1598.99 585.461 1600.05 585.062 1601.07C584.664 1602.07 584.465 1602.48 584.465 1602.29L587.523 1606H584.805L583.188 1604.03C582.547 1604.73 581.961 1605.23 581.43 1605.55C580.5 1606.12 579.43 1606.4 578.219 1606.4C576.43 1606.4 575.129 1605.92 574.316 1604.96C573.504 1603.99 573.098 1602.9 573.098 1601.69C573.098 1600.38 573.492 1599.29 574.281 1598.42C574.766 1597.89 575.668 1597.22 576.988 1596.43ZM603.18 1604.01C603.969 1604.01 604.617 1603.93 605.125 1603.76C606.031 1603.46 606.773 1602.87 607.352 1602C607.812 1601.31 608.145 1600.42 608.348 1599.33C608.465 1598.68 608.523 1598.08 608.523 1597.53C608.523 1595.39 608.098 1593.74 607.246 1592.56C606.402 1591.38 605.039 1590.79 603.156 1590.79H599.02V1604.01H603.18ZM596.676 1588.79H603.648C606.016 1588.79 607.852 1589.62 609.156 1591.3C610.32 1592.82 610.902 1594.76 610.902 1597.13C610.902 1598.96 610.559 1600.61 609.871 1602.09C608.66 1604.7 606.578 1606 603.625 1606H596.676V1588.79ZM621.918 1596.67C623.012 1596.67 623.875 1596.45 624.508 1596.02C625.148 1595.58 625.469 1594.79 625.469 1593.65C625.469 1592.42 625.023 1591.59 624.133 1591.14C623.656 1590.91 623.02 1590.79 622.223 1590.79H616.527V1596.67H621.918ZM614.195 1588.79H622.164C623.477 1588.79 624.559 1588.98 625.41 1589.36C627.027 1590.09 627.836 1591.45 627.836 1593.43C627.836 1594.46 627.621 1595.3 627.191 1595.96C626.77 1596.61 626.176 1597.14 625.41 1597.54C626.082 1597.81 626.586 1598.17 626.922 1598.62C627.266 1599.06 627.457 1599.79 627.496 1600.79L627.578 1603.09C627.602 1603.75 627.656 1604.24 627.742 1604.56C627.883 1605.11 628.133 1605.46 628.492 1605.61V1606H625.633C625.555 1605.85 625.492 1605.66 625.445 1605.43C625.398 1605.19 625.359 1604.74 625.328 1604.07L625.188 1601.2C625.133 1600.07 624.715 1599.32 623.934 1598.93C623.488 1598.72 622.789 1598.62 621.836 1598.62H616.527V1606H614.195V1588.79ZM638.688 1588.32C641.727 1588.32 643.977 1589.29 645.438 1591.25C646.578 1592.77 647.148 1594.72 647.148 1597.09C647.148 1599.66 646.496 1601.8 645.191 1603.5C643.66 1605.5 641.477 1606.5 638.641 1606.5C635.992 1606.5 633.91 1605.63 632.395 1603.88C631.043 1602.19 630.367 1600.06 630.367 1597.48C630.367 1595.15 630.945 1593.16 632.102 1591.5C633.586 1589.38 635.781 1588.32 638.688 1588.32ZM638.922 1604.42C640.977 1604.42 642.461 1603.68 643.375 1602.21C644.297 1600.74 644.758 1599.04 644.758 1597.13C644.758 1595.11 644.227 1593.48 643.164 1592.24C642.109 1591.01 640.664 1590.39 638.828 1590.39C637.047 1590.39 635.594 1591 634.469 1592.23C633.344 1593.45 632.781 1595.25 632.781 1597.63C632.781 1599.54 633.262 1601.15 634.223 1602.46C635.191 1603.77 636.758 1604.42 638.922 1604.42ZM650.16 1588.79H657.906C659.438 1588.79 660.672 1589.22 661.609 1590.09C662.547 1590.95 663.016 1592.16 663.016 1593.72C663.016 1595.06 662.598 1596.23 661.762 1597.23C660.926 1598.23 659.641 1598.72 657.906 1598.72H652.492V1606H650.16V1588.79ZM660.66 1593.73C660.66 1592.46 660.191 1591.61 659.254 1591.15C658.738 1590.91 658.031 1590.79 657.133 1590.79H652.492V1596.75H657.133C658.18 1596.75 659.027 1596.53 659.676 1596.09C660.332 1595.64 660.66 1594.86 660.66 1593.73ZM672.426 1588.79H684.367V1590.89H674.758V1596.12H683.207V1598.17H674.758V1606H672.426V1588.79ZM687.402 1588.79H689.758V1606H687.402V1588.79ZM693.555 1588.79H695.887V1603.95H704.605V1606H693.555V1588.79ZM707.137 1588.79H719.688V1590.89H709.41V1596.12H718.914V1598.11H709.41V1603.95H719.863V1606H707.137V1588.79ZM724.445 1600.45C724.5 1601.42 724.73 1602.21 725.137 1602.82C725.91 1603.96 727.273 1604.54 729.227 1604.54C730.102 1604.54 730.898 1604.41 731.617 1604.16C733.008 1603.68 733.703 1602.81 733.703 1601.56C733.703 1600.62 733.41 1599.95 732.824 1599.55C732.23 1599.16 731.301 1598.82 730.035 1598.54L727.703 1598.01C726.18 1597.66 725.102 1597.29 724.469 1596.87C723.375 1596.15 722.828 1595.08 722.828 1593.65C722.828 1592.1 723.363 1590.83 724.434 1589.84C725.504 1588.85 727.02 1588.35 728.98 1588.35C730.785 1588.35 732.316 1588.79 733.574 1589.66C734.84 1590.53 735.473 1591.92 735.473 1593.84H733.281C733.164 1592.91 732.914 1592.21 732.531 1591.71C731.82 1590.82 730.613 1590.37 728.91 1590.37C727.535 1590.37 726.547 1590.66 725.945 1591.23C725.344 1591.81 725.043 1592.48 725.043 1593.25C725.043 1594.09 725.395 1594.71 726.098 1595.1C726.559 1595.35 727.602 1595.66 729.227 1596.04L731.641 1596.59C732.805 1596.86 733.703 1597.22 734.336 1597.68C735.43 1598.48 735.977 1599.65 735.977 1601.18C735.977 1603.09 735.281 1604.45 733.891 1605.27C732.508 1606.09 730.898 1606.5 729.062 1606.5C726.922 1606.5 725.246 1605.96 724.035 1604.86C722.824 1603.78 722.23 1602.3 722.254 1600.45H724.445ZM757.715 1588.79V1590.84H751.914V1606H749.547V1590.84H743.746V1588.79H757.715ZM766.867 1588.32C769.906 1588.32 772.156 1589.29 773.617 1591.25C774.758 1592.77 775.328 1594.72 775.328 1597.09C775.328 1599.66 774.676 1601.8 773.371 1603.5C771.84 1605.5 769.656 1606.5 766.82 1606.5C764.172 1606.5 762.09 1605.63 760.574 1603.88C759.223 1602.19 758.547 1600.06 758.547 1597.48C758.547 1595.15 759.125 1593.16 760.281 1591.5C761.766 1589.38 763.961 1588.32 766.867 1588.32ZM767.102 1604.42C769.156 1604.42 770.641 1603.68 771.555 1602.21C772.477 1600.74 772.938 1599.04 772.938 1597.13C772.938 1595.11 772.406 1593.48 771.344 1592.24C770.289 1591.01 768.844 1590.39 767.008 1590.39C765.227 1590.39 763.773 1591 762.648 1592.23C761.523 1593.45 760.961 1595.25 760.961 1597.63C760.961 1599.54 761.441 1601.15 762.402 1602.46C763.371 1603.77 764.938 1604.42 767.102 1604.42ZM792.801 1596.67C793.895 1596.67 794.758 1596.45 795.391 1596.02C796.031 1595.58 796.352 1594.79 796.352 1593.65C796.352 1592.42 795.906 1591.59 795.016 1591.14C794.539 1590.91 793.902 1590.79 793.105 1590.79H787.41V1596.67H792.801ZM785.078 1588.79H793.047C794.359 1588.79 795.441 1588.98 796.293 1589.36C797.91 1590.09 798.719 1591.45 798.719 1593.43C798.719 1594.46 798.504 1595.3 798.074 1595.96C797.652 1596.61 797.059 1597.14 796.293 1597.54C796.965 1597.81 797.469 1598.17 797.805 1598.62C798.148 1599.06 798.34 1599.79 798.379 1600.79L798.461 1603.09C798.484 1603.75 798.539 1604.24 798.625 1604.56C798.766 1605.11 799.016 1605.46 799.375 1605.61V1606H796.516C796.438 1605.85 796.375 1605.66 796.328 1605.43C796.281 1605.19 796.242 1604.74 796.211 1604.07L796.07 1601.2C796.016 1600.07 795.598 1599.32 794.816 1598.93C794.371 1598.72 793.672 1598.62 792.719 1598.62H787.41V1606H785.078V1588.79ZM802.363 1588.79H814.914V1590.89H804.637V1596.12H814.141V1598.11H804.637V1603.95H815.09V1606H802.363V1588.79ZM818.148 1588.79H820.902L829.598 1602.73V1588.79H831.812V1606H829.199L820.375 1592.07V1606H818.148V1588.79ZM844.328 1598.95L841.715 1591.34L838.938 1598.95H844.328ZM840.496 1588.79H843.133L849.379 1606H846.824L845.078 1600.84H838.27L836.406 1606H834.016L840.496 1588.79ZM851.441 1588.79H854.781L859.727 1603.34L864.637 1588.79H867.941V1606H865.727V1595.84C865.727 1595.49 865.734 1594.91 865.75 1594.09C865.766 1593.28 865.773 1592.41 865.773 1591.48L860.863 1606H858.555L853.609 1591.48V1592.01C853.609 1592.43 853.617 1593.07 853.633 1593.94C853.656 1594.8 853.668 1595.43 853.668 1595.84V1606H851.441V1588.79ZM871.715 1588.79H884.266V1590.89H873.988V1596.12H883.492V1598.11H873.988V1603.95H884.441V1606H871.715V1588.79Z" fill="black"/>
<path d="M2810.3 1811.06C2811.28 1811.06 2812.05 1810.93 2812.59 1810.65C2813.45 1810.22 2813.88 1809.45 2813.88 1808.33C2813.88 1807.21 2813.43 1806.45 2812.51 1806.06C2812 1805.84 2811.23 1805.73 2810.21 1805.73H2806.05V1811.06H2810.3ZM2811.08 1819.01C2812.51 1819.01 2813.53 1818.59 2814.14 1817.77C2814.52 1817.24 2814.71 1816.61 2814.71 1815.87C2814.71 1814.62 2814.16 1813.77 2813.04 1813.31C2812.45 1813.07 2811.66 1812.95 2810.68 1812.95H2806.05V1819.01H2811.08ZM2803.77 1803.79H2811.16C2813.18 1803.79 2814.61 1804.39 2815.46 1805.59C2815.96 1806.3 2816.21 1807.12 2816.21 1808.05C2816.21 1809.14 2815.91 1810.03 2815.29 1810.72C2814.97 1811.09 2814.51 1811.43 2813.91 1811.73C2814.79 1812.07 2815.45 1812.45 2815.89 1812.87C2816.66 1813.62 2817.05 1814.65 2817.05 1815.97C2817.05 1817.08 2816.7 1818.09 2816 1818.98C2814.96 1820.33 2813.31 1821 2811.05 1821H2803.77V1803.79ZM2828.67 1813.95L2826.06 1806.34L2823.28 1813.95H2828.67ZM2824.84 1803.79H2827.48L2833.72 1821H2831.17L2829.42 1815.84H2822.61L2820.75 1821H2818.36L2824.84 1803.79ZM2843.1 1803.32C2845.28 1803.32 2846.97 1803.89 2848.17 1805.04C2849.38 1806.19 2850.04 1807.49 2850.18 1808.95H2847.9C2847.64 1807.84 2847.13 1806.96 2846.36 1806.32C2845.59 1805.67 2844.51 1805.34 2843.12 1805.34C2841.43 1805.34 2840.05 1805.94 2839.01 1807.14C2837.97 1808.32 2837.45 1810.15 2837.45 1812.61C2837.45 1814.62 2837.92 1816.26 2838.86 1817.52C2839.8 1818.77 2841.21 1819.39 2843.07 1819.39C2844.79 1819.39 2846.1 1818.73 2847 1817.41C2847.48 1816.72 2847.83 1815.8 2848.07 1814.67H2850.34C2850.14 1816.48 2849.46 1818 2848.32 1819.23C2846.96 1820.71 2845.11 1821.45 2842.79 1821.45C2840.79 1821.45 2839.11 1820.84 2837.75 1819.63C2835.96 1818.03 2835.07 1815.55 2835.07 1812.21C2835.07 1809.67 2835.74 1807.59 2837.09 1805.96C2838.54 1804.2 2840.54 1803.32 2843.1 1803.32ZM2853.19 1803.79H2855.46V1812.18L2863.85 1803.79H2867.07L2859.91 1810.72L2867.27 1821H2864.24L2858.21 1812.36L2855.46 1815V1821H2853.19V1803.79ZM2879.51 1803.79H2881.29L2875.83 1821H2874.05L2879.51 1803.79ZM2895.84 1819.01C2896.63 1819.01 2897.28 1818.93 2897.79 1818.76C2898.7 1818.46 2899.44 1817.87 2900.02 1817C2900.48 1816.31 2900.81 1815.42 2901.01 1814.33C2901.13 1813.68 2901.19 1813.08 2901.19 1812.53C2901.19 1810.39 2900.76 1808.74 2899.91 1807.56C2899.07 1806.38 2897.7 1805.79 2895.82 1805.79H2891.68V1819.01H2895.84ZM2889.34 1803.79H2896.31C2898.68 1803.79 2900.52 1804.62 2901.82 1806.3C2902.98 1807.82 2903.57 1809.76 2903.57 1812.13C2903.57 1813.96 2903.22 1815.61 2902.54 1817.09C2901.32 1819.7 2899.24 1821 2896.29 1821H2889.34V1803.79ZM2914.58 1811.67C2915.68 1811.67 2916.54 1811.45 2917.17 1811.02C2917.81 1810.58 2918.13 1809.79 2918.13 1808.65C2918.13 1807.42 2917.69 1806.59 2916.8 1806.14C2916.32 1805.91 2915.68 1805.79 2914.89 1805.79H2909.19V1811.67H2914.58ZM2906.86 1803.79H2914.83C2916.14 1803.79 2917.22 1803.98 2918.07 1804.36C2919.69 1805.09 2920.5 1806.45 2920.5 1808.43C2920.5 1809.46 2920.29 1810.3 2919.86 1810.96C2919.43 1811.61 2918.84 1812.14 2918.07 1812.54C2918.75 1812.81 2919.25 1813.17 2919.59 1813.62C2919.93 1814.06 2920.12 1814.79 2920.16 1815.79L2920.24 1818.09C2920.27 1818.75 2920.32 1819.24 2920.41 1819.56C2920.55 1820.11 2920.8 1820.46 2921.16 1820.61V1821H2918.3C2918.22 1820.85 2918.16 1820.66 2918.11 1820.43C2918.06 1820.19 2918.02 1819.74 2917.99 1819.07L2917.85 1816.2C2917.8 1815.07 2917.38 1814.32 2916.6 1813.93C2916.15 1813.72 2915.45 1813.62 2914.5 1813.62H2909.19V1821H2906.86V1803.79ZM2932.76 1813.95L2930.14 1806.34L2927.37 1813.95H2932.76ZM2928.93 1803.79H2931.56L2937.81 1821H2935.25L2933.51 1815.84H2926.7L2924.84 1821H2922.45L2928.93 1803.79ZM2940.15 1803.79H2952.09V1805.89H2942.48V1811.12H2950.93V1813.17H2942.48V1821H2940.15V1803.79ZM2967.13 1803.79V1805.84H2961.33V1821H2958.96V1805.84H2953.16V1803.79H2967.13ZM2979.16 1803.79H2980.95L2975.48 1821H2973.7L2979.16 1803.79ZM2988.89 1803.79H2991.22V1818.95H2999.94V1821H2988.89V1803.79ZM3011.09 1813.95L3008.47 1806.34L3005.7 1813.95H3011.09ZM3007.25 1803.79H3009.89L3016.14 1821H3013.58L3011.84 1815.84H3005.03L3003.16 1821H3000.77L3007.25 1803.79ZM3020.79 1803.79V1814.43C3020.79 1815.68 3021.02 1816.71 3021.49 1817.54C3022.19 1818.79 3023.36 1819.42 3025.01 1819.42C3026.98 1819.42 3028.33 1818.74 3029.04 1817.39C3029.42 1816.66 3029.61 1815.67 3029.61 1814.43V1803.79H3031.98V1813.45C3031.98 1815.57 3031.7 1817.2 3031.12 1818.34C3030.08 1820.42 3028.1 1821.46 3025.2 1821.46C3022.29 1821.46 3020.32 1820.42 3019.28 1818.34C3018.71 1817.2 3018.42 1815.57 3018.42 1813.45V1803.79H3020.79ZM3035.6 1803.79H3038.36L3047.05 1817.73V1803.79H3049.27V1821H3046.65L3037.83 1807.07V1821H3035.6V1803.79ZM3060.2 1803.32C3062.38 1803.32 3064.07 1803.89 3065.27 1805.04C3066.48 1806.19 3067.14 1807.49 3067.28 1808.95H3065C3064.75 1807.84 3064.23 1806.96 3063.46 1806.32C3062.69 1805.67 3061.61 1805.34 3060.22 1805.34C3058.53 1805.34 3057.16 1805.94 3056.11 1807.14C3055.07 1808.32 3054.55 1810.15 3054.55 1812.61C3054.55 1814.62 3055.02 1816.26 3055.96 1817.52C3056.9 1818.77 3058.31 1819.39 3060.18 1819.39C3061.89 1819.39 3063.2 1818.73 3064.1 1817.41C3064.58 1816.72 3064.93 1815.8 3065.17 1814.67H3067.44C3067.24 1816.48 3066.57 1818 3065.43 1819.23C3064.06 1820.71 3062.21 1821.45 3059.89 1821.45C3057.89 1821.45 3056.21 1820.84 3054.86 1819.63C3053.07 1818.03 3052.17 1815.55 3052.17 1812.21C3052.17 1809.67 3052.84 1807.59 3054.19 1805.96C3055.64 1804.2 3057.64 1803.32 3060.2 1803.32ZM3070.35 1803.79H3072.7V1810.9H3081.66V1803.79H3084.01V1821H3081.66V1812.95H3072.7V1821H3070.35V1803.79Z" fill="black"/>
<path d="M700.051 498.785H707.797C709.328 498.785 710.562 499.219 711.5 500.086C712.438 500.945 712.906 502.156 712.906 503.719C712.906 505.062 712.488 506.234 711.652 507.234C710.816 508.227 709.531 508.723 707.797 508.723H702.383V516H700.051V498.785ZM710.551 503.73C710.551 502.465 710.082 501.605 709.145 501.152C708.629 500.91 707.922 500.789 707.023 500.789H702.383V506.754H707.023C708.07 506.754 708.918 506.531 709.566 506.086C710.223 505.641 710.551 504.855 710.551 503.73ZM723.84 506.672C724.934 506.672 725.797 506.453 726.43 506.016C727.07 505.578 727.391 504.789 727.391 503.648C727.391 502.422 726.945 501.586 726.055 501.141C725.578 500.906 724.941 500.789 724.145 500.789H718.449V506.672H723.84ZM716.117 498.785H724.086C725.398 498.785 726.48 498.977 727.332 499.359C728.949 500.094 729.758 501.449 729.758 503.426C729.758 504.457 729.543 505.301 729.113 505.957C728.691 506.613 728.098 507.141 727.332 507.539C728.004 507.812 728.508 508.172 728.844 508.617C729.188 509.062 729.379 509.785 729.418 510.785L729.5 513.094C729.523 513.75 729.578 514.238 729.664 514.559C729.805 515.105 730.055 515.457 730.414 515.613V516H727.555C727.477 515.852 727.414 515.66 727.367 515.426C727.32 515.191 727.281 514.738 727.25 514.066L727.109 511.195C727.055 510.07 726.637 509.316 725.855 508.934C725.41 508.723 724.711 508.617 723.758 508.617H718.449V516H716.117V498.785ZM740.609 498.316C743.648 498.316 745.898 499.293 747.359 501.246C748.5 502.77 749.07 504.719 749.07 507.094C749.07 509.664 748.418 511.801 747.113 513.504C745.582 515.504 743.398 516.504 740.562 516.504C737.914 516.504 735.832 515.629 734.316 513.879C732.965 512.191 732.289 510.059 732.289 507.48C732.289 505.152 732.867 503.16 734.023 501.504C735.508 499.379 737.703 498.316 740.609 498.316ZM740.844 514.418C742.898 514.418 744.383 513.684 745.297 512.215C746.219 510.738 746.68 509.043 746.68 507.129C746.68 505.105 746.148 503.477 745.086 502.242C744.031 501.008 742.586 500.391 740.75 500.391C738.969 500.391 737.516 501.004 736.391 502.23C735.266 503.449 734.703 505.25 734.703 507.633C734.703 509.539 735.184 511.148 736.145 512.461C737.113 513.766 738.68 514.418 740.844 514.418ZM760.309 510.867C760.309 512.32 760.094 513.449 759.664 514.254C758.867 515.723 757.352 516.457 755.117 516.457C753.828 516.457 752.727 516.109 751.812 515.414C750.898 514.711 750.441 513.465 750.441 511.676V510.445H752.633V511.676C752.633 512.613 752.84 513.32 753.254 513.797C753.676 514.266 754.328 514.5 755.211 514.5C756.453 514.5 757.266 514.074 757.648 513.223C757.883 512.699 758 511.711 758 510.258V498.785H760.309V510.867ZM764.082 498.785H776.633V500.895H766.355V506.121H775.859V508.113H766.355V513.949H776.809V516H764.082V498.785ZM787.121 498.316C789.301 498.316 790.992 498.891 792.195 500.039C793.398 501.188 794.066 502.492 794.199 503.953H791.926C791.668 502.844 791.152 501.965 790.379 501.316C789.613 500.668 788.535 500.344 787.145 500.344C785.449 500.344 784.078 500.941 783.031 502.137C781.992 503.324 781.473 505.148 781.473 507.609C781.473 509.625 781.941 511.262 782.879 512.52C783.824 513.77 785.23 514.395 787.098 514.395C788.816 514.395 790.125 513.734 791.023 512.414C791.5 511.719 791.855 510.805 792.09 509.672H794.363C794.16 511.484 793.488 513.004 792.348 514.23C790.98 515.707 789.137 516.445 786.816 516.445C784.816 516.445 783.137 515.84 781.777 514.629C779.988 513.027 779.094 510.555 779.094 507.211C779.094 504.672 779.766 502.59 781.109 500.965C782.562 499.199 784.566 498.316 787.121 498.316ZM809.738 498.785V500.836H803.938V516H801.57V500.836H795.77V498.785H809.738ZM818.141 498.785H820.895L829.59 512.73V498.785H831.805V516H829.191L820.367 502.066V516H818.141V498.785ZM844.32 508.945L841.707 501.34L838.93 508.945H844.32ZM840.488 498.785H843.125L849.371 516H846.816L845.07 510.844H838.262L836.398 516H834.008L840.488 498.785ZM851.434 498.785H854.773L859.719 513.34L864.629 498.785H867.934V516H865.719V505.84C865.719 505.488 865.727 504.906 865.742 504.094C865.758 503.281 865.766 502.41 865.766 501.48L860.855 516H858.547L853.602 501.48V502.008C853.602 502.43 853.609 503.074 853.625 503.941C853.648 504.801 853.66 505.434 853.66 505.84V516H851.434V498.785ZM871.707 498.785H884.258V500.895H873.98V506.121H883.484V508.113H873.98V513.949H884.434V516H871.707V498.785Z" fill="black"/>
<path d="M2811.08 756.316C2813.26 756.316 2814.95 756.891 2816.16 758.039C2817.36 759.188 2818.03 760.492 2818.16 761.953H2815.89C2815.63 760.844 2815.11 759.965 2814.34 759.316C2813.57 758.668 2812.5 758.344 2811.11 758.344C2809.41 758.344 2808.04 758.941 2806.99 760.137C2805.95 761.324 2805.43 763.148 2805.43 765.609C2805.43 767.625 2805.9 769.262 2806.84 770.52C2807.79 771.77 2809.19 772.395 2811.06 772.395C2812.78 772.395 2814.09 771.734 2814.98 770.414C2815.46 769.719 2815.82 768.805 2816.05 767.672H2818.32C2818.12 769.484 2817.45 771.004 2816.31 772.23C2814.94 773.707 2813.1 774.445 2810.78 774.445C2808.78 774.445 2807.1 773.84 2805.74 772.629C2803.95 771.027 2803.05 768.555 2803.05 765.211C2803.05 762.672 2803.73 760.59 2805.07 758.965C2806.52 757.199 2808.53 756.316 2811.08 756.316ZM2829.18 764.672C2830.27 764.672 2831.13 764.453 2831.77 764.016C2832.41 763.578 2832.73 762.789 2832.73 761.648C2832.73 760.422 2832.28 759.586 2831.39 759.141C2830.91 758.906 2830.28 758.789 2829.48 758.789H2823.79V764.672H2829.18ZM2821.45 756.785H2829.42C2830.73 756.785 2831.82 756.977 2832.67 757.359C2834.29 758.094 2835.09 759.449 2835.09 761.426C2835.09 762.457 2834.88 763.301 2834.45 763.957C2834.03 764.613 2833.43 765.141 2832.67 765.539C2833.34 765.812 2833.84 766.172 2834.18 766.617C2834.52 767.062 2834.71 767.785 2834.75 768.785L2834.84 771.094C2834.86 771.75 2834.91 772.238 2835 772.559C2835.14 773.105 2835.39 773.457 2835.75 773.613V774H2832.89C2832.81 773.852 2832.75 773.66 2832.7 773.426C2832.66 773.191 2832.62 772.738 2832.59 772.066L2832.45 769.195C2832.39 768.07 2831.97 767.316 2831.19 766.934C2830.75 766.723 2830.05 766.617 2829.09 766.617H2823.79V774H2821.45V756.785ZM2838.74 756.785H2851.29V758.895H2841.01V764.121H2850.52V766.113H2841.01V771.949H2851.46V774H2838.74V756.785ZM2863.36 766.945L2860.75 759.34L2857.97 766.945H2863.36ZM2859.53 756.785H2862.16L2868.41 774H2865.86L2864.11 768.844H2857.3L2855.44 774H2853.05L2859.53 756.785ZM2881.28 756.785V758.836H2875.48V774H2873.11V758.836H2867.31V756.785H2881.28ZM2883.64 756.785H2896.2V758.895H2885.92V764.121H2895.42V766.113H2885.92V771.949H2896.37V774H2883.64V756.785ZM2906.11 756.785H2908.86L2917.56 770.73V756.785H2919.77V774H2917.16L2908.34 760.066V774H2906.11V756.785ZM2923.68 756.785H2936.23V758.895H2925.95V764.121H2935.45V766.113H2925.95V771.949H2936.4V774H2923.68V756.785ZM2940.6 756.785L2943.84 770.789L2947.73 756.785H2950.27L2954.16 770.789L2957.4 756.785H2959.96L2955.43 774H2952.98L2949.01 759.727L2945.02 774H2942.57L2938.07 756.785H2940.6ZM2969.03 756.785H2976.77C2978.3 756.785 2979.54 757.219 2980.48 758.086C2981.41 758.945 2981.88 760.156 2981.88 761.719C2981.88 763.062 2981.46 764.234 2980.63 765.234C2979.79 766.227 2978.51 766.723 2976.77 766.723H2971.36V774H2969.03V756.785ZM2979.53 761.73C2979.53 760.465 2979.06 759.605 2978.12 759.152C2977.61 758.91 2976.9 758.789 2976 758.789H2971.36V764.754H2976C2977.05 764.754 2977.89 764.531 2978.54 764.086C2979.2 763.641 2979.53 762.855 2979.53 761.73ZM2991.87 766.945L2989.25 759.34L2986.48 766.945H2991.87ZM2988.04 756.785H2990.67L2996.92 774H2994.36L2992.62 768.844H2985.81L2983.95 774H2981.55L2988.04 756.785ZM3009.79 756.785V758.836H3003.98V774H3001.62V758.836H2995.82V756.785H3009.79ZM3024.46 756.785V758.836H3018.66V774H3016.29V758.836H3010.49V756.785H3024.46ZM3026.82 756.785H3039.38V758.895H3029.1V764.121H3038.6V766.113H3029.1V771.949H3039.55V774H3026.82V756.785ZM3050.61 764.672C3051.71 764.672 3052.57 764.453 3053.2 764.016C3053.84 763.578 3054.16 762.789 3054.16 761.648C3054.16 760.422 3053.72 759.586 3052.83 759.141C3052.35 758.906 3051.71 758.789 3050.92 758.789H3045.22V764.672H3050.61ZM3042.89 756.785H3050.86C3052.17 756.785 3053.25 756.977 3054.11 757.359C3055.72 758.094 3056.53 759.449 3056.53 761.426C3056.53 762.457 3056.32 763.301 3055.89 763.957C3055.46 764.613 3054.87 765.141 3054.11 765.539C3054.78 765.812 3055.28 766.172 3055.62 766.617C3055.96 767.062 3056.15 767.785 3056.19 768.785L3056.27 771.094C3056.3 771.75 3056.35 772.238 3056.44 772.559C3056.58 773.105 3056.83 773.457 3057.19 773.613V774H3054.33C3054.25 773.852 3054.19 773.66 3054.14 773.426C3054.09 773.191 3054.05 772.738 3054.02 772.066L3053.88 769.195C3053.83 768.07 3053.41 767.316 3052.63 766.934C3052.18 766.723 3051.48 766.617 3050.53 766.617H3045.22V774H3042.89V756.785ZM3059.95 756.785H3062.71L3071.4 770.73V756.785H3073.62V774H3071L3062.18 760.066V774H3059.95V756.785Z" fill="black"/>
<path d="M2759.38 769.188H2761.38V765.188H2759.38V769.188ZM2326.09 765.773C2325.3 766.554 2325.3 767.821 2326.09 768.602L2338.81 781.33C2339.59 782.111 2340.86 782.111 2341.64 781.33C2342.42 780.549 2342.42 779.282 2341.64 778.501L2330.33 767.188L2341.64 755.874C2342.42 755.093 2342.42 753.826 2341.64 753.045C2340.86 752.264 2339.59 752.264 2338.81 753.045L2326.09 765.773ZM2759.38 765.188H2327.5V769.188H2759.38V765.188Z" fill="black"/>
<path d="M2759.77 1814.59H2761.77V1810.59H2759.77V1814.59ZM2326.09 1811.18C2325.3 1811.96 2325.3 1813.22 2326.09 1814L2338.81 1826.73C2339.59 1827.51 2340.86 1827.51 2341.64 1826.73C2342.42 1825.95 2342.42 1824.68 2341.64 1823.9L2330.33 1812.59L2341.64 1801.28C2342.42 1800.5 2342.42 1799.23 2341.64 1798.45C2340.86 1797.67 2339.59 1797.67 2338.81 1798.45L2326.09 1811.18ZM2759.77 1810.59H2327.5V1814.59H2759.77V1810.59Z" fill="black"/>
</svg>
