<svg width="3656" height="1825" viewBox="0 0 3656 1825" fill="none" xmlns="http://www.w3.org/2000/svg">
<rect width="3656" height="1825" fill="white"/>
<g clip-path="url(#clip0_312_2596)">
<rect x="1072" y="422" width="1512" height="982" fill="white"/>
<rect x="2381" y="442" width="89" height="52" fill="#5F5F5F"/>
<rect x="1111" y="442" width="154" height="52" fill="#5F5F5F"/>
<rect x="1407" y="558" width="325" height="52" fill="#D9D9D9"/>
<rect x="1407.5" y="705.5" width="324" height="51" stroke="#D9D9D9"/>
<rect x="1407" y="627" width="757" height="29" fill="#D9D9D9"/>
<rect x="2492" y="442" width="52" height="52" fill="#5F5F5F"/>
<line x1="1072" y1="508.5" x2="2584" y2="508.5" stroke="#B2B2B2"/>
<rect x="2009" y="705" width="239" height="52" fill="#929292"/>
<rect x="1751" y="705" width="52" height="52" fill="#D9D9D9"/>
<rect x="1822" y="705" width="52" height="52" fill="#D9D9D9"/>
<line x1="1407" y1="780.5" x2="2248" y2="780.5" stroke="black"/>
<rect x="1407" y="806" width="841" height="139" fill="#D9D9D9"/>
<rect x="1407" y="806" width="139" height="139" fill="#B2B2B2"/>
<rect x="1570" y="821" width="354" height="34" fill="#B2B2B2"/>
<rect x="1570" y="858" width="201" height="18" fill="#B2B2B2"/>
<rect x="1570" y="898" width="120" height="33" fill="#B2B2B2"/>
<path d="M2220.44 871.706C2219.44 871.595 2218.41 870.232 2217.75 869.629C2214.86 866.981 2212.26 864.079 2209.84 860.999C2208.66 859.504 2207.68 857.845 2206.46 856.386C2206.07 855.911 2204.67 854.686 2205.17 855.057C2208.11 857.269 2210.55 859.85 2213.34 862.267C2216.02 864.594 2218.88 866.846 2221.25 869.507C2222 870.351 2222.97 871.582 2223.53 872.531C2223.63 872.704 2224.44 873.353 2224.23 873.57C2223.96 873.836 2222.57 873.631 2222.23 873.631C2220.65 873.631 2219.22 874.393 2217.86 875.143C2214.78 876.84 2211.89 878.844 2208.86 880.627C2206.71 881.894 2204.44 882.971 2202.34 884.323C2201.81 884.664 2200.92 884.901 2200.64 885.453" stroke="#929292" stroke-width="3" stroke-linecap="round"/>
<rect x="1401" y="962" width="841" height="139" fill="#D9D9D9"/>
<rect x="1401" y="962" width="139" height="139" fill="#B2B2B2"/>
<rect x="1564" y="977" width="354" height="34" fill="#B2B2B2"/>
<rect x="1564" y="1014" width="201" height="18" fill="#B2B2B2"/>
<rect x="1564" y="1054" width="120" height="33" fill="#B2B2B2"/>
<path d="M2214.44 1027.71C2213.44 1027.6 2212.41 1026.23 2211.75 1025.63C2208.86 1022.98 2206.26 1020.08 2203.84 1017C2202.66 1015.5 2201.68 1013.85 2200.46 1012.39C2200.07 1011.91 2198.67 1010.69 2199.17 1011.06C2202.11 1013.27 2204.55 1015.85 2207.34 1018.27C2210.02 1020.59 2212.88 1022.85 2215.25 1025.51C2216 1026.35 2216.97 1027.58 2217.53 1028.53C2217.63 1028.7 2218.44 1029.35 2218.23 1029.57C2217.96 1029.84 2216.57 1029.63 2216.23 1029.63C2214.65 1029.63 2213.22 1030.39 2211.86 1031.14C2208.78 1032.84 2205.89 1034.84 2202.86 1036.63C2200.71 1037.89 2198.44 1038.97 2196.34 1040.32C2195.81 1040.66 2194.92 1040.9 2194.64 1041.45" stroke="#929292" stroke-width="3" stroke-linecap="round"/>
<rect x="1401" y="1118" width="841" height="139" fill="#D9D9D9"/>
<rect x="1401" y="1118" width="139" height="139" fill="#B2B2B2"/>
<rect x="1564" y="1133" width="354" height="34" fill="#B2B2B2"/>
<rect x="1564" y="1170" width="201" height="18" fill="#B2B2B2"/>
<rect x="1564" y="1210" width="120" height="33" fill="#B2B2B2"/>
<path d="M2214.44 1183.71C2213.44 1183.6 2212.41 1182.23 2211.75 1181.63C2208.86 1178.98 2206.26 1176.08 2203.84 1173C2202.66 1171.5 2201.68 1169.85 2200.46 1168.39C2200.07 1167.91 2198.67 1166.69 2199.17 1167.06C2202.11 1169.27 2204.55 1171.85 2207.34 1174.27C2210.02 1176.59 2212.88 1178.85 2215.25 1181.51C2216 1182.35 2216.97 1183.58 2217.53 1184.53C2217.63 1184.7 2218.44 1185.35 2218.23 1185.57C2217.96 1185.84 2216.57 1185.63 2216.23 1185.63C2214.65 1185.63 2213.22 1186.39 2211.86 1187.14C2208.78 1188.84 2205.89 1190.84 2202.86 1192.63C2200.71 1193.89 2198.44 1194.97 2196.34 1196.32C2195.81 1196.66 2194.92 1196.9 2194.64 1197.45" stroke="#929292" stroke-width="3" stroke-linecap="round"/>
<rect x="1401" y="1274" width="841" height="139" fill="#D9D9D9"/>
<rect x="1401" y="1274" width="139" height="139" fill="#B2B2B2"/>
<rect x="1564" y="1289" width="354" height="34" fill="#B2B2B2"/>
<rect x="1564" y="1326" width="201" height="18" fill="#B2B2B2"/>
<rect x="1564" y="1366" width="120" height="33" fill="#B2B2B2"/>
<path d="M2214.44 1339.71C2213.44 1339.6 2212.41 1338.23 2211.75 1337.63C2208.86 1334.98 2206.26 1332.08 2203.84 1329C2202.66 1327.5 2201.68 1325.85 2200.46 1324.39C2200.07 1323.91 2198.67 1322.69 2199.17 1323.06C2202.11 1325.27 2204.55 1327.85 2207.34 1330.27C2210.02 1332.59 2212.88 1334.85 2215.25 1337.51C2216 1338.35 2216.97 1339.58 2217.53 1340.53C2217.63 1340.7 2218.44 1341.35 2218.23 1341.57C2217.96 1341.84 2216.57 1341.63 2216.23 1341.63C2214.65 1341.63 2213.22 1342.39 2211.86 1343.14C2208.78 1344.84 2205.89 1346.84 2202.86 1348.63C2200.71 1349.89 2198.44 1350.97 2196.34 1352.32C2195.81 1352.66 2194.92 1352.9 2194.64 1353.45" stroke="#929292" stroke-width="3" stroke-linecap="round"/>
<circle cx="2268.5" cy="730.5" r="20.5" fill="white"/>
</g>
<rect x="1072.5" y="422.5" width="1511" height="981" stroke="black"/>
<path d="M2793.83 874.672C2794.93 874.672 2795.79 874.453 2796.42 874.016C2797.06 873.578 2797.38 872.789 2797.38 871.648C2797.38 870.422 2796.94 869.586 2796.05 869.141C2795.57 868.906 2794.93 868.789 2794.14 868.789H2788.44V874.672H2793.83ZM2786.11 866.785H2794.08C2795.39 866.785 2796.47 866.977 2797.32 867.359C2798.94 868.094 2799.75 869.449 2799.75 871.426C2799.75 872.457 2799.54 873.301 2799.11 873.957C2798.68 874.613 2798.09 875.141 2797.32 875.539C2798 875.812 2798.5 876.172 2798.84 876.617C2799.18 877.062 2799.37 877.785 2799.41 878.785L2799.49 881.094C2799.52 881.75 2799.57 882.238 2799.66 882.559C2799.8 883.105 2800.05 883.457 2800.41 883.613V884H2797.55C2797.47 883.852 2797.41 883.66 2797.36 883.426C2797.31 883.191 2797.27 882.738 2797.24 882.066L2797.1 879.195C2797.05 878.07 2796.63 877.316 2795.85 876.934C2795.4 876.723 2794.7 876.617 2793.75 876.617H2788.44V884H2786.11V866.785ZM2803.39 866.785H2815.95V868.895H2805.67V874.121H2815.17V876.113H2805.67V881.949H2816.12V884H2803.39V866.785ZM2826.43 866.316C2828.61 866.316 2830.3 866.891 2831.51 868.039C2832.71 869.188 2833.38 870.492 2833.51 871.953H2831.24C2830.98 870.844 2830.46 869.965 2829.69 869.316C2828.93 868.668 2827.85 868.344 2826.46 868.344C2824.76 868.344 2823.39 868.941 2822.34 870.137C2821.3 871.324 2820.79 873.148 2820.79 875.609C2820.79 877.625 2821.25 879.262 2822.19 880.52C2823.14 881.77 2824.54 882.395 2826.41 882.395C2828.13 882.395 2829.44 881.734 2830.34 880.414C2830.81 879.719 2831.17 878.805 2831.4 877.672H2833.68C2833.47 879.484 2832.8 881.004 2831.66 882.23C2830.29 883.707 2828.45 884.445 2826.13 884.445C2824.13 884.445 2822.45 883.84 2821.09 882.629C2819.3 881.027 2818.41 878.555 2818.41 875.211C2818.41 872.672 2819.08 870.59 2820.42 868.965C2821.88 867.199 2823.88 866.316 2826.43 866.316ZM2836.75 866.785H2849.3V868.895H2839.02V874.121H2848.52V876.113H2839.02V881.949H2849.47V884H2836.75V866.785ZM2852.53 866.785H2855.29L2863.98 880.73V866.785H2866.2V884H2863.58L2854.76 870.066V884H2852.53V866.785ZM2882.4 866.785V868.836H2876.6V884H2874.23V868.836H2868.43V866.785H2882.4ZM2891.03 866.785H2898.77C2900.3 866.785 2901.54 867.219 2902.48 868.086C2903.41 868.945 2903.88 870.156 2903.88 871.719C2903.88 873.062 2903.46 874.234 2902.63 875.234C2901.79 876.227 2900.51 876.723 2898.77 876.723H2893.36V884H2891.03V866.785ZM2901.53 871.73C2901.53 870.465 2901.06 869.605 2900.12 869.152C2899.61 868.91 2898.9 868.789 2898 868.789H2893.36V874.754H2898C2899.05 874.754 2899.89 874.531 2900.54 874.086C2901.2 873.641 2901.53 872.855 2901.53 871.73ZM2914.82 874.672C2915.91 874.672 2916.77 874.453 2917.41 874.016C2918.05 873.578 2918.37 872.789 2918.37 871.648C2918.37 870.422 2917.92 869.586 2917.03 869.141C2916.55 868.906 2915.92 868.789 2915.12 868.789H2909.43V874.672H2914.82ZM2907.09 866.785H2915.06C2916.38 866.785 2917.46 866.977 2918.31 867.359C2919.93 868.094 2920.73 869.449 2920.73 871.426C2920.73 872.457 2920.52 873.301 2920.09 873.957C2919.67 874.613 2919.07 875.141 2918.31 875.539C2918.98 875.812 2919.48 876.172 2919.82 876.617C2920.16 877.062 2920.36 877.785 2920.39 878.785L2920.48 881.094C2920.5 881.75 2920.55 882.238 2920.64 882.559C2920.78 883.105 2921.03 883.457 2921.39 883.613V884H2918.53C2918.45 883.852 2918.39 883.66 2918.34 883.426C2918.3 883.191 2918.26 882.738 2918.23 882.066L2918.09 879.195C2918.03 878.07 2917.61 877.316 2916.83 876.934C2916.39 876.723 2915.69 876.617 2914.73 876.617H2909.43V884H2907.09V866.785ZM2931.59 866.316C2934.62 866.316 2936.88 867.293 2938.34 869.246C2939.48 870.77 2940.05 872.719 2940.05 875.094C2940.05 877.664 2939.39 879.801 2938.09 881.504C2936.56 883.504 2934.38 884.504 2931.54 884.504C2928.89 884.504 2926.81 883.629 2925.29 881.879C2923.94 880.191 2923.27 878.059 2923.27 875.48C2923.27 873.152 2923.84 871.16 2925 869.504C2926.48 867.379 2928.68 866.316 2931.59 866.316ZM2931.82 882.418C2933.88 882.418 2935.36 881.684 2936.27 880.215C2937.2 878.738 2937.66 877.043 2937.66 875.129C2937.66 873.105 2937.12 871.477 2936.06 870.242C2935.01 869.008 2933.56 868.391 2931.73 868.391C2929.95 868.391 2928.49 869.004 2927.37 870.23C2926.24 871.449 2925.68 873.25 2925.68 875.633C2925.68 877.539 2926.16 879.148 2927.12 880.461C2928.09 881.766 2929.66 882.418 2931.82 882.418ZM2951.29 878.867C2951.29 880.32 2951.07 881.449 2950.64 882.254C2949.84 883.723 2948.33 884.457 2946.09 884.457C2944.8 884.457 2943.7 884.109 2942.79 883.414C2941.88 882.711 2941.42 881.465 2941.42 879.676V878.445H2943.61V879.676C2943.61 880.613 2943.82 881.32 2944.23 881.797C2944.65 882.266 2945.3 882.5 2946.19 882.5C2947.43 882.5 2948.24 882.074 2948.62 881.223C2948.86 880.699 2948.98 879.711 2948.98 878.258V866.785H2951.29V878.867ZM2955.06 866.785H2967.61V868.895H2957.33V874.121H2966.84V876.113H2957.33V881.949H2967.79V884H2955.06V866.785ZM2978.1 866.316C2980.28 866.316 2981.97 866.891 2983.17 868.039C2984.38 869.188 2985.04 870.492 2985.18 871.953H2982.9C2982.64 870.844 2982.13 869.965 2981.36 869.316C2980.59 868.668 2979.51 868.344 2978.12 868.344C2976.43 868.344 2975.05 868.941 2974.01 870.137C2972.97 871.324 2972.45 873.148 2972.45 875.609C2972.45 877.625 2972.92 879.262 2973.86 880.52C2974.8 881.77 2976.21 882.395 2978.07 882.395C2979.79 882.395 2981.1 881.734 2982 880.414C2982.48 879.719 2982.83 878.805 2983.07 877.672H2985.34C2985.14 879.484 2984.46 881.004 2983.32 882.23C2981.96 883.707 2980.11 884.445 2977.79 884.445C2975.79 884.445 2974.11 883.84 2972.75 882.629C2970.96 881.027 2970.07 878.555 2970.07 875.211C2970.07 872.672 2970.74 870.59 2972.09 868.965C2973.54 867.199 2975.54 866.316 2978.1 866.316ZM3000.71 866.785V868.836H2994.91V884H2992.55V868.836H2986.75V866.785H3000.71ZM3004.38 878.445C3004.44 879.422 3004.67 880.215 3005.07 880.824C3005.85 881.965 3007.21 882.535 3009.16 882.535C3010.04 882.535 3010.84 882.41 3011.55 882.16C3012.95 881.676 3013.64 880.809 3013.64 879.559C3013.64 878.621 3013.35 877.953 3012.76 877.555C3012.17 877.164 3011.24 876.824 3009.97 876.535L3007.64 876.008C3006.12 875.664 3005.04 875.285 3004.41 874.871C3003.31 874.152 3002.77 873.078 3002.77 871.648C3002.77 870.102 3003.3 868.832 3004.37 867.84C3005.44 866.848 3006.96 866.352 3008.92 866.352C3010.72 866.352 3012.25 866.789 3013.51 867.664C3014.78 868.531 3015.41 869.922 3015.41 871.836H3013.22C3013.1 870.914 3012.85 870.207 3012.47 869.715C3011.76 868.816 3010.55 868.367 3008.85 868.367C3007.47 868.367 3006.48 868.656 3005.88 869.234C3005.28 869.812 3004.98 870.484 3004.98 871.25C3004.98 872.094 3005.33 872.711 3006.04 873.102C3006.5 873.352 3007.54 873.664 3009.16 874.039L3011.58 874.59C3012.74 874.855 3013.64 875.219 3014.27 875.68C3015.37 876.484 3015.91 877.652 3015.91 879.184C3015.91 881.09 3015.22 882.453 3013.83 883.273C3012.45 884.094 3010.84 884.504 3009 884.504C3006.86 884.504 3005.18 883.957 3003.97 882.863C3002.76 881.777 3002.17 880.305 3002.19 878.445H3004.38Z" fill="black"/>
<path d="M2793.08 721.316C2795.26 721.316 2796.95 721.891 2798.16 723.039C2799.36 724.188 2800.03 725.492 2800.16 726.953H2797.89C2797.63 725.844 2797.11 724.965 2796.34 724.316C2795.57 723.668 2794.5 723.344 2793.11 723.344C2791.41 723.344 2790.04 723.941 2788.99 725.137C2787.95 726.324 2787.43 728.148 2787.43 730.609C2787.43 732.625 2787.9 734.262 2788.84 735.52C2789.79 736.77 2791.19 737.395 2793.06 737.395C2794.78 737.395 2796.09 736.734 2796.98 735.414C2797.46 734.719 2797.82 733.805 2798.05 732.672H2800.32C2800.12 734.484 2799.45 736.004 2798.31 737.23C2796.94 738.707 2795.1 739.445 2792.78 739.445C2790.78 739.445 2789.1 738.84 2787.74 737.629C2785.95 736.027 2785.05 733.555 2785.05 730.211C2785.05 727.672 2785.73 725.59 2787.07 723.965C2788.52 722.199 2790.53 721.316 2793.08 721.316ZM2811.18 729.672C2812.27 729.672 2813.13 729.453 2813.77 729.016C2814.41 728.578 2814.73 727.789 2814.73 726.648C2814.73 725.422 2814.28 724.586 2813.39 724.141C2812.91 723.906 2812.28 723.789 2811.48 723.789H2805.79V729.672H2811.18ZM2803.45 721.785H2811.42C2812.73 721.785 2813.82 721.977 2814.67 722.359C2816.29 723.094 2817.09 724.449 2817.09 726.426C2817.09 727.457 2816.88 728.301 2816.45 728.957C2816.03 729.613 2815.43 730.141 2814.67 730.539C2815.34 730.812 2815.84 731.172 2816.18 731.617C2816.52 732.062 2816.71 732.785 2816.75 733.785L2816.84 736.094C2816.86 736.75 2816.91 737.238 2817 737.559C2817.14 738.105 2817.39 738.457 2817.75 738.613V739H2814.89C2814.81 738.852 2814.75 738.66 2814.7 738.426C2814.66 738.191 2814.62 737.738 2814.59 737.066L2814.45 734.195C2814.39 733.07 2813.97 732.316 2813.19 731.934C2812.75 731.723 2812.05 731.617 2811.09 731.617H2805.79V739H2803.45V721.785ZM2820.74 721.785H2833.29V723.895H2823.01V729.121H2832.52V731.113H2823.01V736.949H2833.46V739H2820.74V721.785ZM2845.36 731.945L2842.75 724.34L2839.97 731.945H2845.36ZM2841.53 721.785H2844.16L2850.41 739H2847.86L2846.11 733.844H2839.3L2837.44 739H2835.05L2841.53 721.785ZM2863.28 721.785V723.836H2857.48V739H2855.11V723.836H2849.31V721.785H2863.28ZM2865.64 721.785H2878.2V723.895H2867.92V729.121H2877.42V731.113H2867.92V736.949H2878.37V739H2865.64V721.785ZM2888.11 721.785H2890.86L2899.56 735.73V721.785H2901.77V739H2899.16L2890.34 725.066V739H2888.11V721.785ZM2905.68 721.785H2918.23V723.895H2907.95V729.121H2917.45V731.113H2907.95V736.949H2918.4V739H2905.68V721.785ZM2922.6 721.785L2925.84 735.789L2929.73 721.785H2932.27L2936.16 735.789L2939.4 721.785H2941.96L2937.43 739H2934.98L2931.01 724.727L2927.02 739H2924.57L2920.07 721.785H2922.6ZM2951.03 721.785H2958.77C2960.3 721.785 2961.54 722.219 2962.48 723.086C2963.41 723.945 2963.88 725.156 2963.88 726.719C2963.88 728.062 2963.46 729.234 2962.63 730.234C2961.79 731.227 2960.51 731.723 2958.77 731.723H2953.36V739H2951.03V721.785ZM2961.53 726.73C2961.53 725.465 2961.06 724.605 2960.12 724.152C2959.61 723.91 2958.9 723.789 2958 723.789H2953.36V729.754H2958C2959.05 729.754 2959.89 729.531 2960.54 729.086C2961.2 728.641 2961.53 727.855 2961.53 726.73ZM2974.82 729.672C2975.91 729.672 2976.77 729.453 2977.41 729.016C2978.05 728.578 2978.37 727.789 2978.37 726.648C2978.37 725.422 2977.92 724.586 2977.03 724.141C2976.55 723.906 2975.92 723.789 2975.12 723.789H2969.43V729.672H2974.82ZM2967.09 721.785H2975.06C2976.38 721.785 2977.46 721.977 2978.31 722.359C2979.93 723.094 2980.73 724.449 2980.73 726.426C2980.73 727.457 2980.52 728.301 2980.09 728.957C2979.67 729.613 2979.07 730.141 2978.31 730.539C2978.98 730.812 2979.48 731.172 2979.82 731.617C2980.16 732.062 2980.36 732.785 2980.39 733.785L2980.48 736.094C2980.5 736.75 2980.55 737.238 2980.64 737.559C2980.78 738.105 2981.03 738.457 2981.39 738.613V739H2978.53C2978.45 738.852 2978.39 738.66 2978.34 738.426C2978.3 738.191 2978.26 737.738 2978.23 737.066L2978.09 734.195C2978.03 733.07 2977.61 732.316 2976.83 731.934C2976.39 731.723 2975.69 731.617 2974.73 731.617H2969.43V739H2967.09V721.785ZM2991.59 721.316C2994.62 721.316 2996.88 722.293 2998.34 724.246C2999.48 725.77 3000.05 727.719 3000.05 730.094C3000.05 732.664 2999.39 734.801 2998.09 736.504C2996.56 738.504 2994.38 739.504 2991.54 739.504C2988.89 739.504 2986.81 738.629 2985.29 736.879C2983.94 735.191 2983.27 733.059 2983.27 730.48C2983.27 728.152 2983.84 726.16 2985 724.504C2986.48 722.379 2988.68 721.316 2991.59 721.316ZM2991.82 737.418C2993.88 737.418 2995.36 736.684 2996.27 735.215C2997.2 733.738 2997.66 732.043 2997.66 730.129C2997.66 728.105 2997.12 726.477 2996.06 725.242C2995.01 724.008 2993.56 723.391 2991.73 723.391C2989.95 723.391 2988.49 724.004 2987.37 725.23C2986.24 726.449 2985.68 728.25 2985.68 730.633C2985.68 732.539 2986.16 734.148 2987.12 735.461C2988.09 736.766 2989.66 737.418 2991.82 737.418ZM3011.29 733.867C3011.29 735.32 3011.07 736.449 3010.64 737.254C3009.84 738.723 3008.33 739.457 3006.09 739.457C3004.8 739.457 3003.7 739.109 3002.79 738.414C3001.88 737.711 3001.42 736.465 3001.42 734.676V733.445H3003.61V734.676C3003.61 735.613 3003.82 736.32 3004.23 736.797C3004.65 737.266 3005.3 737.5 3006.19 737.5C3007.43 737.5 3008.24 737.074 3008.62 736.223C3008.86 735.699 3008.98 734.711 3008.98 733.258V721.785H3011.29V733.867ZM3015.06 721.785H3027.61V723.895H3017.33V729.121H3026.84V731.113H3017.33V736.949H3027.79V739H3015.06V721.785ZM3038.1 721.316C3040.28 721.316 3041.97 721.891 3043.17 723.039C3044.38 724.188 3045.04 725.492 3045.18 726.953H3042.9C3042.64 725.844 3042.13 724.965 3041.36 724.316C3040.59 723.668 3039.51 723.344 3038.12 723.344C3036.43 723.344 3035.05 723.941 3034.01 725.137C3032.97 726.324 3032.45 728.148 3032.45 730.609C3032.45 732.625 3032.92 734.262 3033.86 735.52C3034.8 736.77 3036.21 737.395 3038.07 737.395C3039.79 737.395 3041.1 736.734 3042 735.414C3042.48 734.719 3042.83 733.805 3043.07 732.672H3045.34C3045.14 734.484 3044.46 736.004 3043.32 737.23C3041.96 738.707 3040.11 739.445 3037.79 739.445C3035.79 739.445 3034.11 738.84 3032.75 737.629C3030.96 736.027 3030.07 733.555 3030.07 730.211C3030.07 727.672 3030.74 725.59 3032.09 723.965C3033.54 722.199 3035.54 721.316 3038.1 721.316ZM3060.71 721.785V723.836H3054.91V739H3052.55V723.836H3046.75V721.785H3060.71Z" fill="black"/>
<path d="M2739.13 731.988H2741.13V727.988H2739.13V731.988ZM2253.09 728.574C2252.3 729.355 2252.3 730.621 2253.09 731.402L2265.81 744.13C2266.59 744.911 2267.86 744.911 2268.64 744.13C2269.42 743.349 2269.42 742.083 2268.64 741.302L2257.33 729.988L2268.64 718.675C2269.42 717.894 2269.42 716.627 2268.64 715.846C2267.86 715.065 2266.59 715.065 2265.81 715.846L2253.09 728.574ZM2739.13 727.988H2254.5V731.988H2739.13V727.988Z" fill="black"/>
<path d="M2741.18 877.875H2743.18V873.875H2741.18V877.875ZM2253.09 874.461C2252.3 875.242 2252.3 876.508 2253.09 877.289L2265.81 890.017C2266.59 890.798 2267.86 890.798 2268.64 890.017C2269.42 889.236 2269.42 887.97 2268.64 887.189L2257.33 875.875L2268.64 864.561C2269.42 863.78 2269.42 862.514 2268.64 861.733C2267.86 860.952 2266.59 860.952 2265.81 861.733L2253.09 874.461ZM2741.18 873.875H2254.5V877.875H2741.18V873.875Z" fill="black"/>
<path d="M656.352 733.445C656.406 734.422 656.637 735.215 657.043 735.824C657.816 736.965 659.18 737.535 661.133 737.535C662.008 737.535 662.805 737.41 663.523 737.16C664.914 736.676 665.609 735.809 665.609 734.559C665.609 733.621 665.316 732.953 664.73 732.555C664.137 732.164 663.207 731.824 661.941 731.535L659.609 731.008C658.086 730.664 657.008 730.285 656.375 729.871C655.281 729.152 654.734 728.078 654.734 726.648C654.734 725.102 655.27 723.832 656.34 722.84C657.41 721.848 658.926 721.352 660.887 721.352C662.691 721.352 664.223 721.789 665.48 722.664C666.746 723.531 667.379 724.922 667.379 726.836H665.188C665.07 725.914 664.82 725.207 664.438 724.715C663.727 723.816 662.52 723.367 660.816 723.367C659.441 723.367 658.453 723.656 657.852 724.234C657.25 724.812 656.949 725.484 656.949 726.25C656.949 727.094 657.301 727.711 658.004 728.102C658.465 728.352 659.508 728.664 661.133 729.039L663.547 729.59C664.711 729.855 665.609 730.219 666.242 730.68C667.336 731.484 667.883 732.652 667.883 734.184C667.883 736.09 667.188 737.453 665.797 738.273C664.414 739.094 662.805 739.504 660.969 739.504C658.828 739.504 657.152 738.957 655.941 737.863C654.73 736.777 654.137 735.305 654.16 733.445H656.352ZM671.059 721.785H683.609V723.895H673.332V729.121H682.836V731.113H673.332V736.949H683.785V739H671.059V721.785ZM695.68 731.945L693.066 724.34L690.289 731.945H695.68ZM691.848 721.785H694.484L700.73 739H698.176L696.43 733.844H689.621L687.758 739H685.367L691.848 721.785ZM710.855 729.672C711.949 729.672 712.812 729.453 713.445 729.016C714.086 728.578 714.406 727.789 714.406 726.648C714.406 725.422 713.961 724.586 713.07 724.141C712.594 723.906 711.957 723.789 711.16 723.789H705.465V729.672H710.855ZM703.133 721.785H711.102C712.414 721.785 713.496 721.977 714.348 722.359C715.965 723.094 716.773 724.449 716.773 726.426C716.773 727.457 716.559 728.301 716.129 728.957C715.707 729.613 715.113 730.141 714.348 730.539C715.02 730.812 715.523 731.172 715.859 731.617C716.203 732.062 716.395 732.785 716.434 733.785L716.516 736.094C716.539 736.75 716.594 737.238 716.68 737.559C716.82 738.105 717.07 738.457 717.43 738.613V739H714.57C714.492 738.852 714.43 738.66 714.383 738.426C714.336 738.191 714.297 737.738 714.266 737.066L714.125 734.195C714.07 733.07 713.652 732.316 712.871 731.934C712.426 731.723 711.727 731.617 710.773 731.617H705.465V739H703.133V721.785ZM727.449 721.316C729.629 721.316 731.32 721.891 732.523 723.039C733.727 724.188 734.395 725.492 734.527 726.953H732.254C731.996 725.844 731.48 724.965 730.707 724.316C729.941 723.668 728.863 723.344 727.473 723.344C725.777 723.344 724.406 723.941 723.359 725.137C722.32 726.324 721.801 728.148 721.801 730.609C721.801 732.625 722.27 734.262 723.207 735.52C724.152 736.77 725.559 737.395 727.426 737.395C729.145 737.395 730.453 736.734 731.352 735.414C731.828 734.719 732.184 733.805 732.418 732.672H734.691C734.488 734.484 733.816 736.004 732.676 737.23C731.309 738.707 729.465 739.445 727.145 739.445C725.145 739.445 723.465 738.84 722.105 737.629C720.316 736.027 719.422 733.555 719.422 730.211C719.422 727.672 720.094 725.59 721.438 723.965C722.891 722.199 724.895 721.316 727.449 721.316ZM737.598 721.785H739.953V728.898H748.906V721.785H751.262V739H748.906V730.949H739.953V739H737.598V721.785ZM761.785 721.785H769.531C771.062 721.785 772.297 722.219 773.234 723.086C774.172 723.945 774.641 725.156 774.641 726.719C774.641 728.062 774.223 729.234 773.387 730.234C772.551 731.227 771.266 731.723 769.531 731.723H764.117V739H761.785V721.785ZM772.285 726.73C772.285 725.465 771.816 724.605 770.879 724.152C770.363 723.91 769.656 723.789 768.758 723.789H764.117V729.754H768.758C769.805 729.754 770.652 729.531 771.301 729.086C771.957 728.641 772.285 727.855 772.285 726.73ZM785.574 729.672C786.668 729.672 787.531 729.453 788.164 729.016C788.805 728.578 789.125 727.789 789.125 726.648C789.125 725.422 788.68 724.586 787.789 724.141C787.312 723.906 786.676 723.789 785.879 723.789H780.184V729.672H785.574ZM777.852 721.785H785.82C787.133 721.785 788.215 721.977 789.066 722.359C790.684 723.094 791.492 724.449 791.492 726.426C791.492 727.457 791.277 728.301 790.848 728.957C790.426 729.613 789.832 730.141 789.066 730.539C789.738 730.812 790.242 731.172 790.578 731.617C790.922 732.062 791.113 732.785 791.152 733.785L791.234 736.094C791.258 736.75 791.312 737.238 791.398 737.559C791.539 738.105 791.789 738.457 792.148 738.613V739H789.289C789.211 738.852 789.148 738.66 789.102 738.426C789.055 738.191 789.016 737.738 788.984 737.066L788.844 734.195C788.789 733.07 788.371 732.316 787.59 731.934C787.145 731.723 786.445 731.617 785.492 731.617H780.184V739H777.852V721.785ZM802.344 721.316C805.383 721.316 807.633 722.293 809.094 724.246C810.234 725.77 810.805 727.719 810.805 730.094C810.805 732.664 810.152 734.801 808.848 736.504C807.316 738.504 805.133 739.504 802.297 739.504C799.648 739.504 797.566 738.629 796.051 736.879C794.699 735.191 794.023 733.059 794.023 730.48C794.023 728.152 794.602 726.16 795.758 724.504C797.242 722.379 799.438 721.316 802.344 721.316ZM802.578 737.418C804.633 737.418 806.117 736.684 807.031 735.215C807.953 733.738 808.414 732.043 808.414 730.129C808.414 728.105 807.883 726.477 806.82 725.242C805.766 724.008 804.32 723.391 802.484 723.391C800.703 723.391 799.25 724.004 798.125 725.23C797 726.449 796.438 728.25 796.438 730.633C796.438 732.539 796.918 734.148 797.879 735.461C798.848 736.766 800.414 737.418 802.578 737.418ZM822.043 733.867C822.043 735.32 821.828 736.449 821.398 737.254C820.602 738.723 819.086 739.457 816.852 739.457C815.562 739.457 814.461 739.109 813.547 738.414C812.633 737.711 812.176 736.465 812.176 734.676V733.445H814.367V734.676C814.367 735.613 814.574 736.32 814.988 736.797C815.41 737.266 816.062 737.5 816.945 737.5C818.188 737.5 819 737.074 819.383 736.223C819.617 735.699 819.734 734.711 819.734 733.258V721.785H822.043V733.867ZM825.816 721.785H838.367V723.895H828.09V729.121H837.594V731.113H828.09V736.949H838.543V739H825.816V721.785ZM848.855 721.316C851.035 721.316 852.727 721.891 853.93 723.039C855.133 724.188 855.801 725.492 855.934 726.953H853.66C853.402 725.844 852.887 724.965 852.113 724.316C851.348 723.668 850.27 723.344 848.879 723.344C847.184 723.344 845.812 723.941 844.766 725.137C843.727 726.324 843.207 728.148 843.207 730.609C843.207 732.625 843.676 734.262 844.613 735.52C845.559 736.77 846.965 737.395 848.832 737.395C850.551 737.395 851.859 736.734 852.758 735.414C853.234 734.719 853.59 733.805 853.824 732.672H856.098C855.895 734.484 855.223 736.004 854.082 737.23C852.715 738.707 850.871 739.445 848.551 739.445C846.551 739.445 844.871 738.84 843.512 737.629C841.723 736.027 840.828 733.555 840.828 730.211C840.828 727.672 841.5 725.59 842.844 723.965C844.297 722.199 846.301 721.316 848.855 721.316ZM871.473 721.785V723.836H865.672V739H863.305V723.836H857.504V721.785H871.473Z" fill="black"/>
<path d="M922.957 729.205H920.957V733.205H922.957V729.205ZM1401.91 732.619C1402.7 731.838 1402.7 730.572 1401.91 729.791L1389.19 717.063C1388.41 716.282 1387.14 716.282 1386.36 717.063C1385.58 717.844 1385.58 719.11 1386.36 719.891L1397.67 731.205L1386.36 742.519C1385.58 743.3 1385.58 744.566 1386.36 745.347C1387.14 746.128 1388.41 746.128 1389.19 745.347L1401.91 732.619ZM922.957 733.205H1400.5V729.205H922.957V733.205Z" fill="black"/>
<path d="M1630.89 320.785H1633.24V327.898H1642.2V320.785H1644.55V338H1642.2V329.949H1633.24V338H1630.89V320.785ZM1655.6 320.316C1658.64 320.316 1660.89 321.293 1662.35 323.246C1663.49 324.77 1664.06 326.719 1664.06 329.094C1664.06 331.664 1663.41 333.801 1662.11 335.504C1660.57 337.504 1658.39 338.504 1655.55 338.504C1652.91 338.504 1650.82 337.629 1649.31 335.879C1647.96 334.191 1647.28 332.059 1647.28 329.48C1647.28 327.152 1647.86 325.16 1649.02 323.504C1650.5 321.379 1652.7 320.316 1655.6 320.316ZM1655.84 336.418C1657.89 336.418 1659.38 335.684 1660.29 334.215C1661.21 332.738 1661.67 331.043 1661.67 329.129C1661.67 327.105 1661.14 325.477 1660.08 324.242C1659.02 323.008 1657.58 322.391 1655.74 322.391C1653.96 322.391 1652.51 323.004 1651.38 324.23C1650.26 325.449 1649.7 327.25 1649.7 329.633C1649.7 331.539 1650.18 333.148 1651.14 334.461C1652.11 335.766 1653.67 336.418 1655.84 336.418ZM1666.79 320.785H1670.13L1675.08 335.34L1679.99 320.785H1683.29V338H1681.08V327.84C1681.08 327.488 1681.09 326.906 1681.1 326.094C1681.12 325.281 1681.12 324.41 1681.12 323.48L1676.21 338H1673.91L1668.96 323.48V324.008C1668.96 324.43 1668.97 325.074 1668.98 325.941C1669.01 326.801 1669.02 327.434 1669.02 327.84V338H1666.79V320.785ZM1687.07 320.785H1699.62V322.895H1689.34V328.121H1698.84V330.113H1689.34V335.949H1699.79V338H1687.07V320.785ZM1713.16 320.785H1714.95L1709.48 338H1707.7L1713.16 320.785ZM1723.11 320.785H1730.86C1732.39 320.785 1733.62 321.219 1734.56 322.086C1735.5 322.945 1735.97 324.156 1735.97 325.719C1735.97 327.062 1735.55 328.234 1734.71 329.234C1733.88 330.227 1732.59 330.723 1730.86 330.723H1725.45V338H1723.11V320.785ZM1733.61 325.73C1733.61 324.465 1733.14 323.605 1732.21 323.152C1731.69 322.91 1730.98 322.789 1730.09 322.789H1725.45V328.754H1730.09C1731.13 328.754 1731.98 328.531 1732.63 328.086C1733.29 327.641 1733.61 326.855 1733.61 325.73ZM1746.9 328.672C1748 328.672 1748.86 328.453 1749.49 328.016C1750.13 327.578 1750.45 326.789 1750.45 325.648C1750.45 324.422 1750.01 323.586 1749.12 323.141C1748.64 322.906 1748 322.789 1747.21 322.789H1741.51V328.672H1746.9ZM1739.18 320.785H1747.15C1748.46 320.785 1749.54 320.977 1750.39 321.359C1752.01 322.094 1752.82 323.449 1752.82 325.426C1752.82 326.457 1752.61 327.301 1752.18 327.957C1751.75 328.613 1751.16 329.141 1750.39 329.539C1751.07 329.812 1751.57 330.172 1751.91 330.617C1752.25 331.062 1752.44 331.785 1752.48 332.785L1752.56 335.094C1752.59 335.75 1752.64 336.238 1752.73 336.559C1752.87 337.105 1753.12 337.457 1753.48 337.613V338H1750.62C1750.54 337.852 1750.48 337.66 1750.43 337.426C1750.38 337.191 1750.34 336.738 1750.31 336.066L1750.17 333.195C1750.12 332.07 1749.7 331.316 1748.92 330.934C1748.47 330.723 1747.77 330.617 1746.82 330.617H1741.51V338H1739.18V320.785ZM1763.67 320.316C1766.71 320.316 1768.96 321.293 1770.42 323.246C1771.56 324.77 1772.13 326.719 1772.13 329.094C1772.13 331.664 1771.48 333.801 1770.18 335.504C1768.64 337.504 1766.46 338.504 1763.62 338.504C1760.98 338.504 1758.89 337.629 1757.38 335.879C1756.03 334.191 1755.35 332.059 1755.35 329.48C1755.35 327.152 1755.93 325.16 1757.09 323.504C1758.57 321.379 1760.77 320.316 1763.67 320.316ZM1763.91 336.418C1765.96 336.418 1767.45 335.684 1768.36 334.215C1769.28 332.738 1769.74 331.043 1769.74 329.129C1769.74 327.105 1769.21 325.477 1768.15 324.242C1767.09 323.008 1765.65 322.391 1763.81 322.391C1762.03 322.391 1760.58 323.004 1759.45 324.23C1758.33 325.449 1757.77 327.25 1757.77 329.633C1757.77 331.539 1758.25 333.148 1759.21 334.461C1760.18 335.766 1761.74 336.418 1763.91 336.418ZM1783.37 332.867C1783.37 334.32 1783.16 335.449 1782.73 336.254C1781.93 337.723 1780.41 338.457 1778.18 338.457C1776.89 338.457 1775.79 338.109 1774.88 337.414C1773.96 336.711 1773.5 335.465 1773.5 333.676V332.445H1775.7V333.676C1775.7 334.613 1775.9 335.32 1776.32 335.797C1776.74 336.266 1777.39 336.5 1778.27 336.5C1779.52 336.5 1780.33 336.074 1780.71 335.223C1780.95 334.699 1781.06 333.711 1781.06 332.258V320.785H1783.37V332.867ZM1787.14 320.785H1799.7V322.895H1789.42V328.121H1798.92V330.113H1789.42V335.949H1799.87V338H1787.14V320.785ZM1810.18 320.316C1812.36 320.316 1814.05 320.891 1815.26 322.039C1816.46 323.188 1817.13 324.492 1817.26 325.953H1814.99C1814.73 324.844 1814.21 323.965 1813.44 323.316C1812.68 322.668 1811.6 322.344 1810.21 322.344C1808.51 322.344 1807.14 322.941 1806.09 324.137C1805.05 325.324 1804.54 327.148 1804.54 329.609C1804.54 331.625 1805 333.262 1805.94 334.52C1806.89 335.77 1808.29 336.395 1810.16 336.395C1811.88 336.395 1813.19 335.734 1814.09 334.414C1814.56 333.719 1814.92 332.805 1815.15 331.672H1817.43C1817.22 333.484 1816.55 335.004 1815.41 336.23C1814.04 337.707 1812.2 338.445 1809.88 338.445C1807.88 338.445 1806.2 337.84 1804.84 336.629C1803.05 335.027 1802.16 332.555 1802.16 329.211C1802.16 326.672 1802.83 324.59 1804.17 322.965C1805.62 321.199 1807.63 320.316 1810.18 320.316ZM1832.8 320.785V322.836H1827V338H1824.63V322.836H1818.83V320.785H1832.8ZM1836.47 332.445C1836.52 333.422 1836.75 334.215 1837.16 334.824C1837.93 335.965 1839.3 336.535 1841.25 336.535C1842.12 336.535 1842.92 336.41 1843.64 336.16C1845.03 335.676 1845.73 334.809 1845.73 333.559C1845.73 332.621 1845.43 331.953 1844.85 331.555C1844.25 331.164 1843.32 330.824 1842.06 330.535L1839.73 330.008C1838.2 329.664 1837.12 329.285 1836.49 328.871C1835.4 328.152 1834.85 327.078 1834.85 325.648C1834.85 324.102 1835.39 322.832 1836.46 321.84C1837.53 320.848 1839.04 320.352 1841 320.352C1842.81 320.352 1844.34 320.789 1845.6 321.664C1846.86 322.531 1847.5 323.922 1847.5 325.836H1845.3C1845.19 324.914 1844.94 324.207 1844.55 323.715C1843.84 322.816 1842.64 322.367 1840.93 322.367C1839.56 322.367 1838.57 322.656 1837.97 323.234C1837.37 323.812 1837.07 324.484 1837.07 325.25C1837.07 326.094 1837.42 326.711 1838.12 327.102C1838.58 327.352 1839.62 327.664 1841.25 328.039L1843.66 328.59C1844.83 328.855 1845.73 329.219 1846.36 329.68C1847.45 330.484 1848 331.652 1848 333.184C1848 335.09 1847.3 336.453 1845.91 337.273C1844.53 338.094 1842.92 338.504 1841.09 338.504C1838.95 338.504 1837.27 337.957 1836.06 336.863C1834.85 335.777 1834.25 334.305 1834.28 332.445H1836.47ZM1857.57 320.785H1860.91L1865.86 335.34L1870.77 320.785H1874.07V338H1871.86V327.84C1871.86 327.488 1871.87 326.906 1871.88 326.094C1871.9 325.281 1871.91 324.41 1871.91 323.48L1867 338H1864.69L1859.74 323.48V324.008C1859.74 324.43 1859.75 325.074 1859.77 325.941C1859.79 326.801 1859.8 327.434 1859.8 327.84V338H1857.57V320.785ZM1886.46 330.945L1883.85 323.34L1881.07 330.945H1886.46ZM1882.63 320.785H1885.27L1891.51 338H1888.96L1887.21 332.844H1880.4L1878.54 338H1876.15L1882.63 320.785ZM1893.63 320.785H1896.39L1905.08 334.73V320.785H1907.3V338H1904.68L1895.86 324.066V338H1893.63V320.785ZM1919.81 330.945L1917.2 323.34L1914.42 330.945H1919.81ZM1915.98 320.785H1918.62L1924.86 338H1922.31L1920.56 332.844H1913.75L1911.89 338H1909.5L1915.98 320.785ZM1934.43 320.34C1936.04 320.34 1937.44 320.652 1938.62 321.277C1940.33 322.176 1941.38 323.75 1941.76 326H1939.45C1939.17 324.742 1938.59 323.828 1937.71 323.258C1936.82 322.68 1935.71 322.391 1934.37 322.391C1932.77 322.391 1931.43 322.988 1930.34 324.184C1929.25 325.379 1928.71 327.16 1928.71 329.527C1928.71 331.574 1929.16 333.242 1930.05 334.531C1930.95 335.812 1932.42 336.453 1934.45 336.453C1936 336.453 1937.29 336.004 1938.3 335.105C1939.33 334.199 1939.85 332.738 1939.88 330.723H1934.48V328.789H1942.04V338H1940.54L1939.98 335.785C1939.19 336.652 1938.49 337.254 1937.88 337.59C1936.86 338.168 1935.56 338.457 1933.98 338.457C1931.94 338.457 1930.19 337.797 1928.72 336.477C1927.12 334.82 1926.32 332.547 1926.32 329.656C1926.32 326.773 1927.1 324.48 1928.66 322.777C1930.14 321.152 1932.07 320.34 1934.43 320.34ZM1945.89 320.785H1958.44V322.895H1948.16V328.121H1957.66V330.113H1948.16V335.949H1958.61V338H1945.89V320.785ZM1961.61 320.785H1964.95L1969.9 335.34L1974.81 320.785H1978.11V338H1975.9V327.84C1975.9 327.488 1975.91 326.906 1975.92 326.094C1975.94 325.281 1975.95 324.41 1975.95 323.48L1971.04 338H1968.73L1963.78 323.48V324.008C1963.78 324.43 1963.79 325.074 1963.8 325.941C1963.83 326.801 1963.84 327.434 1963.84 327.84V338H1961.61V320.785ZM1981.89 320.785H1994.44V322.895H1984.16V328.121H1993.66V330.113H1984.16V335.949H1994.61V338H1981.89V320.785ZM1997.67 320.785H2000.43L2009.12 334.73V320.785H2011.34V338H2008.72L1999.9 324.066V338H1997.67V320.785ZM2027.54 320.785V322.836H2021.74V338H2019.38V322.836H2013.57V320.785H2027.54Z" fill="black"/>
<path d="M1073.83 1488.79H1076.16V1503.95H1084.88V1506H1073.83V1488.79ZM1087.41 1488.79H1099.96V1490.89H1089.68V1496.12H1099.19V1498.11H1089.68V1503.95H1100.14V1506H1087.41V1488.79ZM1115.72 1488.79V1490.84H1109.92V1506H1107.55V1490.84H1101.75V1488.79H1115.72ZM1126.66 1488.79V1499.43C1126.66 1500.68 1126.89 1501.71 1127.36 1502.54C1128.05 1503.79 1129.23 1504.42 1130.88 1504.42C1132.85 1504.42 1134.2 1503.74 1134.91 1502.39C1135.29 1501.66 1135.48 1500.67 1135.48 1499.43V1488.79H1137.85V1498.45C1137.85 1500.57 1137.56 1502.2 1136.99 1503.34C1135.95 1505.42 1133.97 1506.46 1131.06 1506.46C1128.16 1506.46 1126.18 1505.42 1125.14 1503.34C1124.57 1502.2 1124.29 1500.57 1124.29 1498.45V1488.79H1126.66ZM1142.99 1500.45C1143.05 1501.42 1143.28 1502.21 1143.68 1502.82C1144.46 1503.96 1145.82 1504.54 1147.77 1504.54C1148.65 1504.54 1149.45 1504.41 1150.16 1504.16C1151.55 1503.68 1152.25 1502.81 1152.25 1501.56C1152.25 1500.62 1151.96 1499.95 1151.37 1499.55C1150.78 1499.16 1149.85 1498.82 1148.58 1498.54L1146.25 1498.01C1144.73 1497.66 1143.65 1497.29 1143.02 1496.87C1141.92 1496.15 1141.38 1495.08 1141.38 1493.65C1141.38 1492.1 1141.91 1490.83 1142.98 1489.84C1144.05 1488.85 1145.57 1488.35 1147.53 1488.35C1149.33 1488.35 1150.86 1488.79 1152.12 1489.66C1153.39 1490.53 1154.02 1491.92 1154.02 1493.84H1151.83C1151.71 1492.91 1151.46 1492.21 1151.08 1491.71C1150.37 1490.82 1149.16 1490.37 1147.46 1490.37C1146.08 1490.37 1145.09 1490.66 1144.49 1491.23C1143.89 1491.81 1143.59 1492.48 1143.59 1493.25C1143.59 1494.09 1143.94 1494.71 1144.64 1495.1C1145.11 1495.35 1146.15 1495.66 1147.77 1496.04L1150.19 1496.59C1151.35 1496.86 1152.25 1497.22 1152.88 1497.68C1153.98 1498.48 1154.52 1499.65 1154.52 1501.18C1154.52 1503.09 1153.83 1504.45 1152.44 1505.27C1151.05 1506.09 1149.45 1506.5 1147.61 1506.5C1145.47 1506.5 1143.79 1505.96 1142.58 1504.86C1141.37 1503.78 1140.78 1502.3 1140.8 1500.45H1142.99ZM1157.7 1488.79H1170.25V1490.89H1159.97V1496.12H1169.48V1498.11H1159.97V1503.95H1170.43V1506H1157.7V1488.79ZM1181.49 1496.67C1182.58 1496.67 1183.45 1496.45 1184.08 1496.02C1184.72 1495.58 1185.04 1494.79 1185.04 1493.65C1185.04 1492.42 1184.59 1491.59 1183.7 1491.14C1183.23 1490.91 1182.59 1490.79 1181.79 1490.79H1176.1V1496.67H1181.49ZM1173.77 1488.79H1181.73C1183.05 1488.79 1184.13 1488.98 1184.98 1489.36C1186.6 1490.09 1187.41 1491.45 1187.41 1493.43C1187.41 1494.46 1187.19 1495.3 1186.76 1495.96C1186.34 1496.61 1185.75 1497.14 1184.98 1497.54C1185.65 1497.81 1186.16 1498.17 1186.49 1498.62C1186.84 1499.06 1187.03 1499.79 1187.07 1500.79L1187.15 1503.09C1187.17 1503.75 1187.23 1504.24 1187.31 1504.56C1187.45 1505.11 1187.7 1505.46 1188.06 1505.61V1506H1185.2C1185.12 1505.85 1185.06 1505.66 1185.02 1505.43C1184.97 1505.19 1184.93 1504.74 1184.9 1504.07L1184.76 1501.2C1184.7 1500.07 1184.29 1499.32 1183.5 1498.93C1183.06 1498.72 1182.36 1498.62 1181.41 1498.62H1176.1V1506H1173.77V1488.79ZM1205.96 1500.87C1205.96 1502.32 1205.74 1503.45 1205.31 1504.25C1204.52 1505.72 1203 1506.46 1200.77 1506.46C1199.48 1506.46 1198.38 1506.11 1197.46 1505.41C1196.55 1504.71 1196.09 1503.46 1196.09 1501.68V1500.45H1198.28V1501.68C1198.28 1502.61 1198.49 1503.32 1198.9 1503.8C1199.32 1504.27 1199.98 1504.5 1200.86 1504.5C1202.1 1504.5 1202.91 1504.07 1203.3 1503.22C1203.53 1502.7 1203.65 1501.71 1203.65 1500.26V1488.79H1205.96V1500.87ZM1212.04 1488.79V1499.43C1212.04 1500.68 1212.27 1501.71 1212.74 1502.54C1213.44 1503.79 1214.61 1504.42 1216.26 1504.42C1218.23 1504.42 1219.58 1503.74 1220.29 1502.39C1220.67 1501.66 1220.86 1500.67 1220.86 1499.43V1488.79H1223.23V1498.45C1223.23 1500.57 1222.95 1502.2 1222.38 1503.34C1221.33 1505.42 1219.35 1506.46 1216.45 1506.46C1213.54 1506.46 1211.57 1505.42 1210.53 1503.34C1209.96 1502.2 1209.67 1500.57 1209.67 1498.45V1488.79H1212.04ZM1226.79 1488.79H1230.13L1235.08 1503.34L1239.99 1488.79H1243.29V1506H1241.08V1495.84C1241.08 1495.49 1241.09 1494.91 1241.1 1494.09C1241.12 1493.28 1241.12 1492.41 1241.12 1491.48L1236.21 1506H1233.91L1228.96 1491.48V1492.01C1228.96 1492.43 1228.97 1493.07 1228.98 1493.94C1229.01 1494.8 1229.02 1495.43 1229.02 1495.84V1506H1226.79V1488.79ZM1247.07 1488.79H1254.81C1256.34 1488.79 1257.58 1489.22 1258.52 1490.09C1259.45 1490.95 1259.92 1492.16 1259.92 1493.72C1259.92 1495.06 1259.5 1496.23 1258.67 1497.23C1257.83 1498.23 1256.55 1498.72 1254.81 1498.72H1249.4V1506H1247.07V1488.79ZM1257.57 1493.73C1257.57 1492.46 1257.1 1491.61 1256.16 1491.15C1255.64 1490.91 1254.94 1490.79 1254.04 1490.79H1249.4V1496.75H1254.04C1255.09 1496.75 1255.93 1496.53 1256.58 1496.09C1257.24 1495.64 1257.57 1494.86 1257.57 1493.73ZM1275.58 1496.06C1276.56 1496.06 1277.33 1495.93 1277.88 1495.65C1278.73 1495.22 1279.16 1494.45 1279.16 1493.33C1279.16 1492.21 1278.71 1491.45 1277.79 1491.06C1277.28 1490.84 1276.51 1490.73 1275.5 1490.73H1271.34V1496.06H1275.58ZM1276.36 1504.01C1277.79 1504.01 1278.81 1503.59 1279.42 1502.77C1279.8 1502.24 1280 1501.61 1280 1500.87C1280 1499.62 1279.44 1498.77 1278.32 1498.31C1277.73 1498.07 1276.94 1497.95 1275.96 1497.95H1271.34V1504.01H1276.36ZM1269.05 1488.79H1276.45C1278.46 1488.79 1279.89 1489.39 1280.75 1490.59C1281.25 1491.3 1281.5 1492.12 1281.5 1493.05C1281.5 1494.14 1281.19 1495.03 1280.57 1495.72C1280.25 1496.09 1279.79 1496.43 1279.19 1496.73C1280.07 1497.07 1280.73 1497.45 1281.17 1497.87C1281.94 1498.62 1282.33 1499.65 1282.33 1500.97C1282.33 1502.08 1281.98 1503.09 1281.29 1503.98C1280.25 1505.33 1278.59 1506 1276.33 1506H1269.05V1488.79ZM1293.95 1498.95L1291.34 1491.34L1288.56 1498.95H1293.95ZM1290.12 1488.79H1292.76L1299 1506H1296.45L1294.7 1500.84H1287.89L1286.03 1506H1283.64L1290.12 1488.79ZM1308.38 1488.32C1310.56 1488.32 1312.25 1488.89 1313.45 1490.04C1314.66 1491.19 1315.32 1492.49 1315.46 1493.95H1313.18C1312.93 1492.84 1312.41 1491.96 1311.64 1491.32C1310.87 1490.67 1309.79 1490.34 1308.4 1490.34C1306.71 1490.34 1305.34 1490.94 1304.29 1492.14C1303.25 1493.32 1302.73 1495.15 1302.73 1497.61C1302.73 1499.62 1303.2 1501.26 1304.14 1502.52C1305.08 1503.77 1306.49 1504.39 1308.36 1504.39C1310.07 1504.39 1311.38 1503.73 1312.28 1502.41C1312.76 1501.72 1313.11 1500.8 1313.35 1499.67H1315.62C1315.42 1501.48 1314.75 1503 1313.61 1504.23C1312.24 1505.71 1310.39 1506.45 1308.07 1506.45C1306.07 1506.45 1304.39 1505.84 1303.04 1504.63C1301.25 1503.03 1300.35 1500.55 1300.35 1497.21C1300.35 1494.67 1301.02 1492.59 1302.37 1490.96C1303.82 1489.2 1305.82 1488.32 1308.38 1488.32ZM1318.47 1488.79H1320.74V1497.18L1329.13 1488.79H1332.36L1325.2 1495.72L1332.55 1506H1329.52L1323.5 1497.36L1320.74 1500V1506H1318.47V1488.79ZM1341.68 1488.79H1344.04V1506H1341.68V1488.79ZM1347.84 1488.79H1350.59L1359.29 1502.73V1488.79H1361.5V1506H1358.89L1350.06 1492.07V1506H1347.84V1488.79ZM1372.08 1488.79H1379.83C1381.36 1488.79 1382.59 1489.22 1383.53 1490.09C1384.47 1490.95 1384.94 1492.16 1384.94 1493.72C1384.94 1495.06 1384.52 1496.23 1383.68 1497.23C1382.85 1498.23 1381.56 1498.72 1379.83 1498.72H1374.41V1506H1372.08V1488.79ZM1382.58 1493.73C1382.58 1492.46 1382.11 1491.61 1381.18 1491.15C1380.66 1490.91 1379.95 1490.79 1379.05 1490.79H1374.41V1496.75H1379.05C1380.1 1496.75 1380.95 1496.53 1381.6 1496.09C1382.25 1495.64 1382.58 1494.86 1382.58 1493.73ZM1394.92 1498.95L1392.31 1491.34L1389.53 1498.95H1394.92ZM1391.09 1488.79H1393.73L1399.97 1506H1397.42L1395.67 1500.84H1388.86L1387 1506H1384.61L1391.09 1488.79ZM1403.62 1500.45C1403.67 1501.42 1403.9 1502.21 1404.31 1502.82C1405.08 1503.96 1406.45 1504.54 1408.4 1504.54C1409.27 1504.54 1410.07 1504.41 1410.79 1504.16C1412.18 1503.68 1412.88 1502.81 1412.88 1501.56C1412.88 1500.62 1412.58 1499.95 1412 1499.55C1411.4 1499.16 1410.47 1498.82 1409.21 1498.54L1406.88 1498.01C1405.35 1497.66 1404.27 1497.29 1403.64 1496.87C1402.55 1496.15 1402 1495.08 1402 1493.65C1402 1492.1 1402.54 1490.83 1403.61 1489.84C1404.68 1488.85 1406.19 1488.35 1408.15 1488.35C1409.96 1488.35 1411.49 1488.79 1412.75 1489.66C1414.01 1490.53 1414.64 1491.92 1414.64 1493.84H1412.45C1412.34 1492.91 1412.09 1492.21 1411.7 1491.71C1410.99 1490.82 1409.79 1490.37 1408.08 1490.37C1406.71 1490.37 1405.72 1490.66 1405.12 1491.23C1404.52 1491.81 1404.21 1492.48 1404.21 1493.25C1404.21 1494.09 1404.57 1494.71 1405.27 1495.1C1405.73 1495.35 1406.77 1495.66 1408.4 1496.04L1410.81 1496.59C1411.98 1496.86 1412.88 1497.22 1413.51 1497.68C1414.6 1498.48 1415.15 1499.65 1415.15 1501.18C1415.15 1503.09 1414.45 1504.45 1413.06 1505.27C1411.68 1506.09 1410.07 1506.5 1408.23 1506.5C1406.09 1506.5 1404.42 1505.96 1403.21 1504.86C1402 1503.78 1401.4 1502.3 1401.43 1500.45H1403.62ZM1430.63 1488.79V1490.84H1424.83V1506H1422.46V1490.84H1416.66V1488.79H1430.63ZM1439.25 1488.79H1447C1448.53 1488.79 1449.77 1489.22 1450.7 1490.09C1451.64 1490.95 1452.11 1492.16 1452.11 1493.72C1452.11 1495.06 1451.69 1496.23 1450.86 1497.23C1450.02 1498.23 1448.73 1498.72 1447 1498.72H1441.59V1506H1439.25V1488.79ZM1449.75 1493.73C1449.75 1492.46 1449.29 1491.61 1448.35 1491.15C1447.83 1490.91 1447.12 1490.79 1446.23 1490.79H1441.59V1496.75H1446.23C1447.27 1496.75 1448.12 1496.53 1448.77 1496.09C1449.43 1495.64 1449.75 1494.86 1449.75 1493.73ZM1463.04 1496.67C1464.14 1496.67 1465 1496.45 1465.63 1496.02C1466.27 1495.58 1466.59 1494.79 1466.59 1493.65C1466.59 1492.42 1466.15 1491.59 1465.26 1491.14C1464.78 1490.91 1464.14 1490.79 1463.35 1490.79H1457.65V1496.67H1463.04ZM1455.32 1488.79H1463.29C1464.6 1488.79 1465.68 1488.98 1466.54 1489.36C1468.15 1490.09 1468.96 1491.45 1468.96 1493.43C1468.96 1494.46 1468.75 1495.3 1468.32 1495.96C1467.89 1496.61 1467.3 1497.14 1466.54 1497.54C1467.21 1497.81 1467.71 1498.17 1468.05 1498.62C1468.39 1499.06 1468.58 1499.79 1468.62 1500.79L1468.7 1503.09C1468.73 1503.75 1468.78 1504.24 1468.87 1504.56C1469.01 1505.11 1469.26 1505.46 1469.62 1505.61V1506H1466.76C1466.68 1505.85 1466.62 1505.66 1466.57 1505.43C1466.52 1505.19 1466.48 1504.74 1466.45 1504.07L1466.31 1501.2C1466.26 1500.07 1465.84 1499.32 1465.06 1498.93C1464.61 1498.72 1463.91 1498.62 1462.96 1498.62H1457.65V1506H1455.32V1488.79ZM1479.81 1488.32C1482.85 1488.32 1485.1 1489.29 1486.56 1491.25C1487.7 1492.77 1488.27 1494.72 1488.27 1497.09C1488.27 1499.66 1487.62 1501.8 1486.32 1503.5C1484.79 1505.5 1482.6 1506.5 1479.77 1506.5C1477.12 1506.5 1475.04 1505.63 1473.52 1503.88C1472.17 1502.19 1471.49 1500.06 1471.49 1497.48C1471.49 1495.15 1472.07 1493.16 1473.23 1491.5C1474.71 1489.38 1476.91 1488.32 1479.81 1488.32ZM1480.05 1504.42C1482.1 1504.42 1483.59 1503.68 1484.5 1502.21C1485.42 1500.74 1485.88 1499.04 1485.88 1497.13C1485.88 1495.11 1485.35 1493.48 1484.29 1492.24C1483.23 1491.01 1481.79 1490.39 1479.95 1490.39C1478.17 1490.39 1476.72 1491 1475.59 1492.23C1474.47 1493.45 1473.91 1495.25 1473.91 1497.63C1473.91 1499.54 1474.39 1501.15 1475.35 1502.46C1476.32 1503.77 1477.88 1504.42 1480.05 1504.42ZM1499.51 1500.87C1499.51 1502.32 1499.3 1503.45 1498.87 1504.25C1498.07 1505.72 1496.55 1506.46 1494.32 1506.46C1493.03 1506.46 1491.93 1506.11 1491.02 1505.41C1490.1 1504.71 1489.64 1503.46 1489.64 1501.68V1500.45H1491.84V1501.68C1491.84 1502.61 1492.04 1503.32 1492.46 1503.8C1492.88 1504.27 1493.53 1504.5 1494.41 1504.5C1495.66 1504.5 1496.47 1504.07 1496.85 1503.22C1497.09 1502.7 1497.2 1501.71 1497.2 1500.26V1488.79H1499.51V1500.87ZM1503.29 1488.79H1515.84V1490.89H1505.56V1496.12H1515.06V1498.11H1505.56V1503.95H1516.01V1506H1503.29V1488.79ZM1526.32 1488.32C1528.5 1488.32 1530.2 1488.89 1531.4 1490.04C1532.6 1491.19 1533.27 1492.49 1533.4 1493.95H1531.13C1530.87 1492.84 1530.36 1491.96 1529.58 1491.32C1528.82 1490.67 1527.74 1490.34 1526.35 1490.34C1524.65 1490.34 1523.28 1490.94 1522.23 1492.14C1521.2 1493.32 1520.68 1495.15 1520.68 1497.61C1520.68 1499.62 1521.14 1501.26 1522.08 1502.52C1523.03 1503.77 1524.43 1504.39 1526.3 1504.39C1528.02 1504.39 1529.33 1503.73 1530.23 1502.41C1530.7 1501.72 1531.06 1500.8 1531.29 1499.67H1533.57C1533.36 1501.48 1532.69 1503 1531.55 1504.23C1530.18 1505.71 1528.34 1506.45 1526.02 1506.45C1524.02 1506.45 1522.34 1505.84 1520.98 1504.63C1519.19 1503.03 1518.3 1500.55 1518.3 1497.21C1518.3 1494.67 1518.97 1492.59 1520.31 1490.96C1521.77 1489.2 1523.77 1488.32 1526.32 1488.32ZM1548.94 1488.79V1490.84H1543.14V1506H1540.77V1490.84H1534.97V1488.79H1548.94ZM1552.61 1500.45C1552.66 1501.42 1552.89 1502.21 1553.3 1502.82C1554.07 1503.96 1555.44 1504.54 1557.39 1504.54C1558.27 1504.54 1559.06 1504.41 1559.78 1504.16C1561.17 1503.68 1561.87 1502.81 1561.87 1501.56C1561.87 1500.62 1561.57 1499.95 1560.99 1499.55C1560.39 1499.16 1559.46 1498.82 1558.2 1498.54L1555.87 1498.01C1554.34 1497.66 1553.27 1497.29 1552.63 1496.87C1551.54 1496.15 1550.99 1495.08 1550.99 1493.65C1550.99 1492.1 1551.53 1490.83 1552.6 1489.84C1553.67 1488.85 1555.18 1488.35 1557.14 1488.35C1558.95 1488.35 1560.48 1488.79 1561.74 1489.66C1563 1490.53 1563.64 1491.92 1563.64 1493.84H1561.45C1561.33 1492.91 1561.08 1492.21 1560.7 1491.71C1559.98 1490.82 1558.78 1490.37 1557.07 1490.37C1555.7 1490.37 1554.71 1490.66 1554.11 1491.23C1553.51 1491.81 1553.21 1492.48 1553.21 1493.25C1553.21 1494.09 1553.56 1494.71 1554.26 1495.1C1554.72 1495.35 1555.77 1495.66 1557.39 1496.04L1559.8 1496.59C1560.97 1496.86 1561.87 1497.22 1562.5 1497.68C1563.59 1498.48 1564.14 1499.65 1564.14 1501.18C1564.14 1503.09 1563.45 1504.45 1562.05 1505.27C1560.67 1506.09 1559.06 1506.5 1557.23 1506.5C1555.09 1506.5 1553.41 1505.96 1552.2 1504.86C1550.99 1503.78 1550.39 1502.3 1550.42 1500.45H1552.61ZM1577.41 1488.79H1579.19L1573.73 1506H1571.95L1577.41 1488.79ZM1594.39 1488.32C1596.57 1488.32 1598.26 1488.89 1599.46 1490.04C1600.66 1491.19 1601.33 1492.49 1601.46 1493.95H1599.19C1598.93 1492.84 1598.42 1491.96 1597.64 1491.32C1596.88 1490.67 1595.8 1490.34 1594.41 1490.34C1592.71 1490.34 1591.34 1490.94 1590.3 1492.14C1589.26 1493.32 1588.74 1495.15 1588.74 1497.61C1588.74 1499.62 1589.21 1501.26 1590.14 1502.52C1591.09 1503.77 1592.5 1504.39 1594.36 1504.39C1596.08 1504.39 1597.39 1503.73 1598.29 1502.41C1598.77 1501.72 1599.12 1500.8 1599.36 1499.67H1601.63C1601.43 1501.48 1600.75 1503 1599.61 1504.23C1598.25 1505.71 1596.4 1506.45 1594.08 1506.45C1592.08 1506.45 1590.4 1505.84 1589.04 1504.63C1587.25 1503.03 1586.36 1500.55 1586.36 1497.21C1586.36 1494.67 1587.03 1492.59 1588.38 1490.96C1589.83 1489.2 1591.83 1488.32 1594.39 1488.32ZM1612.48 1496.67C1613.57 1496.67 1614.44 1496.45 1615.07 1496.02C1615.71 1495.58 1616.03 1494.79 1616.03 1493.65C1616.03 1492.42 1615.59 1491.59 1614.7 1491.14C1614.22 1490.91 1613.58 1490.79 1612.79 1490.79H1607.09V1496.67H1612.48ZM1604.76 1488.79H1612.73C1614.04 1488.79 1615.12 1488.98 1615.97 1489.36C1617.59 1490.09 1618.4 1491.45 1618.4 1493.43C1618.4 1494.46 1618.18 1495.3 1617.75 1495.96C1617.33 1496.61 1616.74 1497.14 1615.97 1497.54C1616.64 1497.81 1617.15 1498.17 1617.48 1498.62C1617.83 1499.06 1618.02 1499.79 1618.06 1500.79L1618.14 1503.09C1618.16 1503.75 1618.22 1504.24 1618.3 1504.56C1618.45 1505.11 1618.7 1505.46 1619.05 1505.61V1506H1616.2C1616.12 1505.85 1616.05 1505.66 1616.01 1505.43C1615.96 1505.19 1615.92 1504.74 1615.89 1504.07L1615.75 1501.2C1615.7 1500.07 1615.28 1499.32 1614.5 1498.93C1614.05 1498.72 1613.35 1498.62 1612.4 1498.62H1607.09V1506H1604.76V1488.79ZM1622.04 1488.79H1634.59V1490.89H1624.32V1496.12H1633.82V1498.11H1624.32V1503.95H1634.77V1506H1622.04V1488.79ZM1646.66 1498.95L1644.05 1491.34L1641.27 1498.95H1646.66ZM1642.83 1488.79H1645.47L1651.71 1506H1649.16L1647.41 1500.84H1640.61L1638.74 1506H1636.35L1642.83 1488.79ZM1664.58 1488.79V1490.84H1658.78V1506H1656.41V1490.84H1650.61V1488.79H1664.58ZM1666.95 1488.79H1679.5V1490.89H1669.22V1496.12H1678.73V1498.11H1669.22V1503.95H1679.68V1506H1666.95V1488.79ZM1689.41 1488.79H1692.17L1700.86 1502.73V1488.79H1703.08V1506H1700.46L1691.64 1492.07V1506H1689.41V1488.79ZM1706.98 1488.79H1719.53V1490.89H1709.25V1496.12H1718.76V1498.11H1709.25V1503.95H1719.71V1506H1706.98V1488.79ZM1723.9 1488.79L1727.15 1502.79L1731.04 1488.79H1733.57L1737.46 1502.79L1740.71 1488.79H1743.26L1738.74 1506H1736.29L1732.32 1491.73L1728.32 1506H1725.87L1721.37 1488.79H1723.9ZM1759.54 1488.32C1762.58 1488.32 1764.83 1489.29 1766.29 1491.25C1767.43 1492.77 1768 1494.72 1768 1497.09C1768 1499.66 1767.35 1501.8 1766.04 1503.5C1764.51 1505.5 1762.33 1506.5 1759.49 1506.5C1756.84 1506.5 1754.76 1505.63 1753.25 1503.88C1751.89 1502.19 1751.22 1500.06 1751.22 1497.48C1751.22 1495.15 1751.8 1493.16 1752.95 1491.5C1754.44 1489.38 1756.63 1488.32 1759.54 1488.32ZM1759.77 1504.42C1761.83 1504.42 1763.31 1503.68 1764.23 1502.21C1765.15 1500.74 1765.61 1499.04 1765.61 1497.13C1765.61 1495.11 1765.08 1493.48 1764.02 1492.24C1762.96 1491.01 1761.52 1490.39 1759.68 1490.39C1757.9 1490.39 1756.45 1491 1755.32 1492.23C1754.2 1493.45 1753.63 1495.25 1753.63 1497.63C1753.63 1499.54 1754.11 1501.15 1755.07 1502.46C1756.04 1503.77 1757.61 1504.42 1759.77 1504.42ZM1770.79 1488.79H1773.54L1782.24 1502.73V1488.79H1784.45V1506H1781.84L1773.02 1492.07V1506H1770.79V1488.79ZM1788.36 1488.79H1800.91V1490.89H1790.63V1496.12H1800.13V1498.11H1790.63V1503.95H1801.08V1506H1788.36V1488.79ZM1805.66 1500.45C1805.72 1501.42 1805.95 1502.21 1806.36 1502.82C1807.13 1503.96 1808.49 1504.54 1810.45 1504.54C1811.32 1504.54 1812.12 1504.41 1812.84 1504.16C1814.23 1503.68 1814.92 1502.81 1814.92 1501.56C1814.92 1500.62 1814.63 1499.95 1814.04 1499.55C1813.45 1499.16 1812.52 1498.82 1811.25 1498.54L1808.92 1498.01C1807.4 1497.66 1806.32 1497.29 1805.69 1496.87C1804.59 1496.15 1804.05 1495.08 1804.05 1493.65C1804.05 1492.1 1804.58 1490.83 1805.65 1489.84C1806.72 1488.85 1808.24 1488.35 1810.2 1488.35C1812 1488.35 1813.54 1488.79 1814.79 1489.66C1816.06 1490.53 1816.69 1491.92 1816.69 1493.84H1814.5C1814.38 1492.91 1814.13 1492.21 1813.75 1491.71C1813.04 1490.82 1811.83 1490.37 1810.13 1490.37C1808.75 1490.37 1807.77 1490.66 1807.16 1491.23C1806.56 1491.81 1806.26 1492.48 1806.26 1493.25C1806.26 1494.09 1806.61 1494.71 1807.32 1495.1C1807.78 1495.35 1808.82 1495.66 1810.45 1496.04L1812.86 1496.59C1814.02 1496.86 1814.92 1497.22 1815.55 1497.68C1816.65 1498.48 1817.2 1499.65 1817.2 1501.18C1817.2 1503.09 1816.5 1504.45 1815.11 1505.27C1813.73 1506.09 1812.12 1506.5 1810.28 1506.5C1808.14 1506.5 1806.46 1505.96 1805.25 1504.86C1804.04 1503.78 1803.45 1502.3 1803.47 1500.45H1805.66Z" fill="black"/>
<defs>
<clipPath id="clip0_312_2596">
<rect x="1072" y="422" width="1512" height="982" fill="white"/>
</clipPath>
</defs>
</svg>
