<svg width="32" height="18" viewBox="0 0 32 18" fill="none" xmlns="http://www.w3.org/2000/svg">
<path fill-rule="evenodd" clip-rule="evenodd" d="M8.36935 0.496216C8.3702 0.496216 8.3709 0.49691 8.3709 0.497766V5.35552C8.3709 7.29411 9.94243 8.86565 11.881 8.86565C13.7722 8.86565 15.2558 7.30265 16.0632 5.59242C17.4026 2.75501 20.2899 0.791703 23.6357 0.791703C28.258 0.791704 32.0051 4.53879 32.0051 9.16105C32.0051 13.7833 28.258 17.5304 23.6357 17.5304C23.6349 17.5304 23.6342 17.5297 23.6342 17.5288V12.6712C23.6342 10.7326 22.0626 9.16108 20.124 9.16107C18.2328 9.16107 16.7493 10.7241 15.9419 12.4343C14.6024 15.2716 11.7151 17.2349 8.36935 17.2349C3.74708 17.2349 0 13.4878 0 8.86556C0 4.2433 3.74708 0.496216 8.36935 0.496216Z" fill="#191919"/>
</svg>
